<svg xmlns="http://www.w3.org/2000/svg" width="19.833" height="19.776" viewBox="0 0 19.833 19.776">
						<path id="Phone_2" d="M183.266,109.15a2.077,2.077,0,0,1-1.476-.609l-.528-.528c-2.307-2.3-.452-7.763,4.224-12.43,3.22-3.213,6.95-5.209,9.736-5.209a3.745,3.745,0,0,1,2.719.994l.527.527a2.077,2.077,0,0,1,0,2.945l-2.111,2.107a2.138,2.138,0,0,1-2.951,0l-.528-.527a.9.9,0,0,0-.666-.252c-.527,0-1.718.307-3.775,2.36-2.416,2.411-2.675,3.871-2.112,4.433l.528.527a2.081,2.081,0,0,1,0,2.944l-2.112,2.109A2.075,2.075,0,0,1,183.266,109.15Zm11.956-17.592c-2.445,0-5.938,1.908-8.9,4.862-4.066,4.058-6,8.984-4.224,10.757l.528.527a.925.925,0,0,0,1.274,0l2.111-2.107a.9.9,0,0,0,0-1.271l-.528-.527c-.6-.6-1.6-2.4,2.112-6.107,1.8-1.8,3.352-2.706,4.614-2.706a2.081,2.081,0,0,1,1.5.6l.528.527a.921.921,0,0,0,1.273,0L197.63,94a.9.9,0,0,0,0-1.27l-.528-.527A2.558,2.558,0,0,0,195.222,91.558Z" transform="translate(-179.747 -89.874)" fill="#bc2539" stroke="#bc2539" stroke-miterlimit="10" stroke-width="1"/>
					</svg>