<?xml version="1.0" encoding="UTF-8"?><svg id="_лой_2" xmlns="http://www.w3.org/2000/svg" viewBox="0 0 67.73 82.7"><defs><style>.cls-1{fill:#bc2539;}</style></defs><g id="_лой_1-2"><path class="cls-1" d="M31.71,74.71c.11,0,.22,0,.33,0,3.67,0,7.34,0,11.01,0,3.14,0,5.69,1.99,6.45,5.04,.05,.2,.13,.26,.34,.25,.21-.01,.43,.01,.63,.06,.72,.18,1.07,.72,.99,1.47-.08,.66-.64,1.16-1.33,1.17-.09,0-.18,0-.27,0-13.03,0-26.05,0-39.08,0-.21,0-.43,0-.63-.06-.57-.14-.96-.64-1-1.23-.03-.55,.26-1.02,.81-1.24,.27-.11,.56-.17,.85-.19,.2-.02,.27-.09,.32-.26,.32-1.11,.86-2.11,1.65-2.96,1.28-1.38,2.88-2.04,4.75-2.04,3.68,0,7.36,0,11.04,0h.36v-2.68c-.15,0-.28,0-.42,0-1.52,.05-3.01-.19-4.5-.48-2.42-.48-4.8-1.08-7.11-1.97-.36-.14-.72-.3-1.06-.49-.63-.36-.8-.75-.58-1.44,.24-.75,.54-1.47,.83-2.2,.4-.98,.8-1.96,1.22-2.93,.11-.25,.07-.37-.18-.51-1.31-.72-2.65-1.39-3.89-2.22-2.98-1.99-5.48-4.48-7.57-7.39-2.28-3.19-3.98-6.64-4.86-10.48C.14,38.93-.12,35.9,.05,32.84c.21-3.97,1.1-7.78,2.89-11.34C7.2,13.01,13.91,7.5,23.13,5.11c2.85-.74,5.77-.95,8.7-.81,2.87,.13,5.64,.8,8.37,1.66,.5,.16,.49,.15,.69-.33,.6-1.47,1.19-2.94,1.8-4.41,.06-.15,.14-.31,.22-.45,.38-.69,.8-.91,1.55-.68,.61,.19,1.21,.44,1.79,.71,3.07,1.43,5.85,3.32,8.45,5.48,.08,.07,.15,.15,.23,.22,1.74,1.86,3.47,3.72,5.21,5.59,.1,.1,.18,.22,.26,.34,.93,1.46,1.88,2.91,2.78,4.39,.4,.65,.74,1.35,1.05,2.05,.94,2.16,1.76,4.37,2.37,6.65,.44,1.64,.71,3.31,.88,5,.13,1.29,.25,2.59,.26,3.88,.02,6.17-1.4,12-4.2,17.5-1.2,2.35-2.71,4.49-4.35,6.55-1.83,2.3-4.01,4.23-6.31,6.03-3.91,3.05-8.32,5.06-13.09,6.34-1.89,.5-3.79,.9-5.74,1.1-.69,.07-1.38,.09-2.06,.12-.21,0-.27,.07-.27,.27,.01,.79,0,1.57,0,2.4ZM43.25,7.09c1.03,.58,2.04,1.12,3.02,1.71,3.45,2.09,6.34,4.8,8.67,8.08,3.7,5.23,5.7,11.05,5.79,17.48,.04,2.77-.36,5.49-1.07,8.17-.52,1.97-1.24,3.87-2.17,5.67-.51,.98-1.06,1.94-1.62,2.89-.83,1.39-1.78,2.7-2.95,3.84-.91,.89-1.86,1.74-2.8,2.6-.61,.56-1.18,1.16-1.83,1.65-2.77,2.07-5.85,3.54-9.15,4.57-1.99,.62-4.01,1.05-6.09,1.18-.43,.03-.86,.05-1.33,.07v4.28c.09,0,.19,0,.28,0,1.14-.11,2.29-.17,3.43-.33,3.47-.52,6.78-1.57,9.95-3.08,2.61-1.24,5-2.82,7.19-4.7,.56-.48,1.17-.9,1.69-1.41,.74-.73,1.43-1.52,2.12-2.3,5.63-6.32,8.35-13.77,8.63-22.16,.1-2.95-.27-5.86-1-8.71-1.45-5.63-3.89-10.75-7.91-15.03-1.13-1.21-2.19-2.51-3.53-3.51-.93-.69-1.83-1.44-2.8-2.05-1.53-.96-3.12-1.83-4.69-2.73-.02-.01-.05,0-.1-.02l-1.7,3.84ZM17.67,30.96c-.04,.08-.06,.14-.08,.19-.49,1.39-.98,2.78-1.47,4.17-.19,.54-.79,.9-1.36,.82-.81-.11-1.26-.66-1.14-1.49,.09-.6,.24-1.19,.43-1.77,.27-.83,.62-1.63,.9-2.46,.19-.54,.17-.56-.35-.79-.96-.41-1.93-.79-2.89-1.18-2.37-.98-4.73-1.95-7.09-2.94-.21-.09-.33-.07-.41,.15-.15,.41-.34,.82-.45,1.24-.58,2.22-.94,4.47-1.03,6.77-.08,2,.05,3.99,.43,5.96,.38,1.98,.98,3.9,1.74,5.77,.14,.36,.14,.35,.5,.25,1.45-.42,2.92-.76,4.42-.93,.6-.07,1.19-.12,1.8-.18,.02-.09,.04-.18,.05-.28,.12-1.1,.22-2.2,.38-3.29,.09-.59,.29-1.16,.49-1.72,.12-.33,.39-.56,.74-.68,.99-.32,1.93,.61,1.75,1.68-.23,1.36-.41,2.72-.6,4.08,0,.03,.01,.07,.02,.1,.15,.02,.28,.05,.42,.07,1.72,.21,3.44,.41,5.15,.65,1.12,.16,2.22,.42,3.27,.85,.2,.08,.4,.18,.65,.29,1.68-3.56,3.12-7.2,4.57-10.87l-10.85-4.47Zm18.92,23.92c.07,.08,.13,.16,.19,.23,1.03,1.21,1.99,2.48,2.75,3.89,.23,.42,.53,.81,.8,1.22,.07,.12,.15,.15,.28,.09,1.72-.67,3.35-1.5,4.86-2.56,.96-.68,1.87-1.42,2.8-2.14,.34-.26,.73-.49,1.02-.8,1.04-1.13,2.08-2.27,3.05-3.46,1.1-1.36,1.88-2.93,2.72-4.44,.06-.11,.12-.23,.21-.41-3.62-1.53-7.24-2.99-10.85-4.5-.03,.06-.06,.1-.07,.14-.97,2.65-2.43,5.04-3.96,7.38-1.15,1.75-2.42,3.42-3.64,5.12-.06,.08-.11,.16-.17,.25ZM16.17,27.28c.05-.06,.11-.11,.15-.18,.13-.3,.24-.61,.38-.9,.97-2.13,2.17-4.12,3.36-6.13,1.09-1.84,2.37-3.54,3.75-5.16,.29-.34,.32-.34,.06-.7-.26-.36-.57-.68-.82-1.04-.85-1.23-1.79-2.41-2.5-3.74-.31-.59-.27-.48-.79-.28-2.13,.82-4.06,2.03-5.92,3.33-1.34,.94-2.48,2.11-3.62,3.26-.37,.37-.73,.77-1.04,1.2-.95,1.3-1.88,2.6-2.79,3.93-.34,.5-.57,1.07-.87,1.61-.13,.24-.07,.39,.18,.48,.21,.08,.4,.19,.6,.27,3.05,1.27,6.11,2.54,9.17,3.81,.21,.09,.43,.15,.7,.25Zm40.2,16.63c.15-.53,.29-1.03,.43-1.52,.68-2.4,1.13-4.83,1.14-7.33,0-1.65-.11-3.28-.37-4.91-.36-2.2-.95-4.32-1.84-6.36-.08-.17-.15-.21-.34-.17-1.1,.27-2.21,.55-3.32,.78-.9,.18-1.81,.28-2.72,.41-.23,.03-.38,.06-.4,.38-.1,1.57-.31,3.13-.65,4.66-.69,3.15-1.51,6.26-2.66,9.27-.1,.25-.04,.34,.2,.44,3.41,1.4,6.82,2.82,10.22,4.23,.1,.04,.19,.07,.31,.12Zm-19.77-20.81s-.03,.06-.05,.11c-1.3,3.13-2.6,6.26-3.91,9.38-.14,.33-.26,.68-.4,1.01-.09,.22-.03,.35,.18,.43,.66,.28,1.31,.56,1.97,.84,2.51,1.04,5.02,2.09,7.53,3.13,.35,.14,.71,.25,1.07,.39,.1-.31,.17-.58,.27-.85,1.28-3.67,2.37-7.39,2.81-11.28,.05-.46,.08-.92,.11-1.35-1.65-.2-3.27-.3-4.86-.6-1.59-.3-3.14-.8-4.74-1.21Zm5.29,17.83l-10.88-4.43-4.45,10.84c1.52,.67,2.91,1.49,4.23,2.42,1.32,.94,2.59,1.96,3.91,2.97,.18-.21,.41-.45,.61-.7,2.37-3.01,4.34-6.27,6.02-9.71,.22-.44,.37-.91,.57-1.39Zm-7.81-18.94c-.26-.11-.49-.19-.71-.29-1.56-.69-2.95-1.66-4.3-2.7-.97-.74-1.9-1.53-2.85-2.3-.15-.12-.25-.13-.37,.02-.22,.26-.46,.51-.67,.79-1.58,2.05-2.97,4.24-4.27,6.48-.75,1.29-1.49,2.59-2.02,3.99-.14,.36-.13,.37,.22,.52,3.35,1.4,6.69,2.79,10.04,4.18,.14,.06,.29,.1,.44,.15,1.5-3.62,2.99-7.21,4.49-10.83Zm12.61,57.98c-.11-.25-.19-.48-.31-.67-.49-.76-1.18-1.28-2.01-1.62-.1-.04-.2-.07-.31-.07-1.13-.06-2.26-.15-3.39-.15-5.26-.02-10.52-.03-15.78-.02-2.59,0-5.18,.05-7.77,.13-1.43,.04-2.42,.84-3.05,2.09-.05,.09-.06,.19-.11,.32H46.7Zm-13.98-25.06c-.1-.11-.15-.21-.23-.27-1.44-1.12-2.77-2.37-4.34-3.31-.79-.47-1.61-.88-2.42-1.31-.2-.11-.31-.07-.38,.17-.08,.29-.19,.57-.31,.84-1.28,3.08-2.56,6.16-3.84,9.24-.04,.09-.07,.19-.11,.29,.06,.02,.08,.03,.11,.03,1.46,.17,2.87,0,4.24-.55,2.3-.91,4.29-2.3,6.1-3.96,.4-.37,.78-.77,1.18-1.16Zm2.44-35.47l4.39-10.66c-.09-.02-.13-.03-.18-.03-1.91-.17-3.71,.18-5.4,1.08-2.25,1.19-4.17,2.8-5.96,4.59-.01,.01-.01,.03-.02,.05,.5,.91,4.65,3.79,7.17,4.98ZM14.32,47.2c0,.19-.02,.27-.02,.36-.08,2.47,.3,4.87,1.1,7.21,.51,1.49,1.22,2.88,2.35,4.01,.23,.23,.48,.44,.77,.7,1.5-3.59,2.97-7.12,4.44-10.64-.52-.27-4.61-1.27-6.14-1.47-.82-.11-1.65-.12-2.5-.18ZM42.16,9.89c-1.51,3.57-2.99,7.08-4.47,10.58,.04,.03,.06,.05,.07,.05,.23,.07,.46,.13,.69,.2,2.46,.79,4.96,1.31,7.56,1.37,.27,0,.32-.07,.33-.32,.02-1.46-.08-2.91-.32-4.36-.29-1.75-.8-3.44-1.66-5-.44-.79-.93-1.54-1.64-2.13-.16-.13-.34-.24-.55-.39Zm-13.24,59.41c.02-.08,.03-.12,.03-.16,0-1.32,0-2.63,0-3.95,0-.17-.08-.2-.23-.21-.5-.02-1.01-.03-1.51-.08-1.8-.18-3.55-.58-5.28-1.09-.65-.19-1.3-.39-1.96-.59l-1.63,3.96c3.46,1.24,6.94,2.01,10.57,2.11ZM54.4,21.1c-1.69-3.03-3.83-5.59-6.53-7.69,.89,2.78,1.24,5.62,1.25,8.54,1.8,.14,3.48-.51,5.28-.85ZM27.62,62.08l.03,.07c.05,0,.1,.02,.15,.02,2.02,.09,4.05,.17,6.06-.11,1.06-.15,2.12-.37,3.17-.58,.21-.04,.41-.15,.6-.22-.28-.92-2.44-3.95-3.05-4.29-2.06,2.05-4.35,3.8-6.97,5.11Zm-14.81-6.16c-.93-2.77-1.23-5.64-1.27-8.53-.89-.15-4.64,.53-5.2,.94,1.64,2.95,3.78,5.49,6.47,7.6ZM33.1,7.22c-.61-.07-1.17-.18-1.73-.18-1.1,0-2.19,.04-3.29,.09-1.57,.08-3.1,.37-4.62,.75-.17,.04-.32,.12-.52,.19,1,1.49,1.82,3.03,3.01,4.34,.48-.43,.93-.82,1.37-1.23,1.7-1.61,3.57-2.96,5.77-3.97Z"/></g></svg>