<?xml version="1.0" encoding="UTF-8"?>
<!DOCTYPE svg PUBLIC "-//W3C//DTD SVG 1.1//EN" "http://www.w3.org/Graphics/SVG/1.1/DTD/svg11.dtd">
<!-- Creator: CorelDRAW 2021.5 -->
<svg xmlns="http://www.w3.org/2000/svg" xml:space="preserve" width="17.9017mm" height="21.1098mm" version="1.1" style="shape-rendering:geometricPrecision; text-rendering:geometricPrecision; image-rendering:optimizeQuality; fill-rule:evenodd; clip-rule:evenodd"
viewBox="0 0 1789.9 2110.66"
 xmlns:xlink="http://www.w3.org/1999/xlink"
 xmlns:xodm="http://www.corel.com/coreldraw/odm/2003">
 <defs>
  <style type="text/css">
   <![CDATA[
    .fil0 {fill:#FEFEFE;fill-rule:nonzero}
   ]]>
  </style>
 </defs>
 <g id="Слой_x0020_1">
  <metadata id="CorelCorpID_0Corel-Layer"/>
  <g id="_лой_1-2">
   <path class="fil0" d="M1687 0c2.38,1.32 4.5,3.18 7.14,3.7 63.49,16.93 95.77,57.93 95.77,123.81 0,289.41 0,578.82 0,868.5 0,57.67 0,115.6 0,173.27 -0.26,75.13 -50.26,125.13 -125.66,125.13 -195.23,0 -390.47,0 -585.7,0l-27.24 0c29.63,56.35 65.61,102.37 112.69,139.42 5.03,3.97 12.96,4.23 19.31,6.35 44.7,12.96 73.54,50.53 74.07,97.62 0.26,20.64 0,41.27 0,61.9 0,28.05 -10.32,38.62 -38.35,38.88 -80.42,0.26 -160.85,0 -241.26,0 -132.8,0 -265.34,0 -398.14,0 -39.15,0 -46.82,-7.94 -46.82,-47.09 0,-18.52 0,-37.03 0,-55.82 0.79,-45.23 30.69,-82.54 74.07,-95.77 11.91,-3.7 24.08,-10.05 33.86,-17.99 39.41,-32.81 83.86,-92.59 95.5,-127.51 -8.73,0 -16.67,0 -24.61,0 -195.23,0 -390.47,0 -585.7,0 -62.17,0 -109.25,-35.44 -122.75,-92.59 -2.91,-11.91 -2.91,-24.61 -2.91,-36.77 -0.25,-344.43 -0.25,-688.87 -0.25,-1033.56 0,-70.37 29.37,-108.72 97.89,-128.3 1.85,-0.53 3.44,-2.12 5.03,-3.18l1584.08 0zm-82.54 188.09l-1418.22 0 0 821.68 1418.22 0 0 -821.68zm121.16 889.14l-1663.19 0c0,27.52 0,53.44 0,79.63 0,55.02 18.52,73.54 72.49,73.54 506.6,0 1013.47,0 1520.07,0 6.88,0 13.76,0.26 20.64,0 25.4,-1.85 47.62,-19.31 49.2,-44.44 2.38,-35.44 0.53,-71.16 0.53,-108.19l0.26 -0.53zm0.79 -66.93c0.53,-8.47 1.06,-15.88 1.06,-23.28 0,-283.86 0,-567.97 0,-851.83 0,-51.32 -19.58,-70.37 -71.43,-70.37 -507.39,0 -1014.79,0 -1522.18,0 -52.64,0 -71.69,18.79 -71.69,72.22 0,282.54 0,565.06 0,847.6 0,8.2 0.79,16.14 1.06,25.14l57.67 -0.01 0 -28.05c0,-268.78 0,-537.55 0,-806.33 0,-44.44 7.14,-51.85 50.79,-51.85 482,0 963.99,0 1445.73,0 6.88,0 13.76,0 20.64,0.26 15.88,0.79 25.66,9.53 28.58,24.87 1.85,8.73 1.85,17.73 1.85,26.72 0,269.57 0,538.88 0,808.45l0 26.46 57.39 0.01 0.53 0zm-831.45 565.59c92.86,0 185.44,0 278.3,-0.53 6.88,0 18.52,-5.56 19.58,-10.32 9.53,-44.44 -7.67,-65.34 -52.64,-65.34 -163.49,0 -326.98,0 -490.47,0 -43.12,0 -52.64,10.58 -53.7,53.44 -0.53,18.26 4.76,23.28 23.02,23.28 92.07,-0.79 184.12,-0.53 276.19,-0.53l-0.27 0zm169.57 -141.01c-27.52,-44.44 -54.23,-88.36 -81.75,-131.48 -2.91,-4.5 -10.85,-8.47 -16.4,-8.47 -47.35,-0.79 -94.71,-0.79 -142.06,0 -6.88,0 -15.61,6.88 -19.84,13.23 -11.64,17.73 -20.64,37.3 -32.28,55.02 -15.61,23.81 -33.07,46.56 -51.05,71.69l343.1 0.01 0.27 0z"/>
   <path class="fil0" d="M1532.77 2041.48c-17.73,-101.32 -35.44,-202.64 -53.44,-303.96 -5.56,-31.75 -24.08,-51.85 -55.82,-58.46 -11.38,-2.38 -23.02,-3.44 -34.65,-3.44 -329.36,0 -658.71,0 -988.07,0 -4.76,0 -9.53,0 -14.55,0 -43.91,1.59 -69.31,24.87 -76.72,67.99 -16.93,98.15 -34.39,196.03 -51.58,293.91 -5.03,28.05 3.7,50 29.63,60.84 17.2,7.14 37.03,11.64 55.55,11.64 183.59,0.79 367.18,0.53 550.78,0.53 183.59,0 368.5,0.53 552.9,-0.53 20.37,0 42.06,-6.35 60.84,-14.82 21.43,-9.53 29.1,-30.16 25.14,-53.7l0.01 0.01zm-1211.61 3.97c7.41,-43.38 14.55,-85.19 21.7,-126.72 9,-52.11 18.79,-103.96 27.25,-156.08 2.65,-16.14 7.67,-23.55 25.93,-23.55 332.53,0.53 665.33,0.53 997.86,0 14.29,0 22.75,2.91 25.4,19.05 15.35,91.27 31.49,182.53 47.35,273.8 0.79,3.97 0.53,7.94 1.06,13.49l-1146.54 0.01z"/>
   <path class="fil0" d="M626.18 778.29c11.64,11.38 26.72,12.44 38.62,0 11.91,-12.44 10.32,-26.19 -0.79,-38.62 -4.5,-5.03 -9.53,-9.79 -14.55,-14.82 -40.74,-40.74 -81.48,-81.48 -127.51,-127.24 8.47,-6.09 15.35,-9.79 20.9,-15.08 40.21,-39.68 79.89,-79.37 119.84,-119.31 12.17,-12.17 15.35,-26.19 4.23,-40.47 -9.26,-11.91 -27.78,-12.44 -40.21,0 -53.44,52.38 -106.34,105.28 -158.99,158.73 -11.91,12.17 -11.91,26.72 0,38.88 52.64,53.17 105.81,106.08 159.26,158.47l-0.8 -0.53z"/>
   <path class="fil0" d="M1128.54 737.55c-14.02,14.02 -15.35,30.69 -4.5,41.79 10.85,11.11 28.31,10.32 42.06,-2.91 51.05,-50 101.84,-100.26 152.38,-150.79 18.79,-18.79 18.26,-32.01 -0.79,-51.05 -46.03,-46.29 -92.33,-92.07 -138.62,-138.36 -4.5,-4.23 -8.47,-9 -13.23,-12.96 -14.02,-12.17 -29.63,-12.7 -40.21,-0.79 -11.64,12.96 -10.05,26.19 1.06,38.88 5.03,5.56 10.58,10.85 15.88,16.14 40.21,40.47 80.16,80.95 122.22,123.28 -6.09,6.35 -11.11,11.91 -16.4,17.2 -39.94,39.68 -79.89,79.37 -119.57,119.31l-0.28 0.25z"/>
   <path class="fil0" d="M827.5 776.17c4.5,-4.76 15.35,-12.44 20.64,-22.49 48.41,-92.59 95.77,-185.71 143.38,-278.57 10.32,-19.84 7.14,-34.65 -7.67,-42.85 -14.82,-7.94 -29.37,-1.85 -39.68,17.46 -15.35,29.1 -30.43,58.46 -45.5,87.83 -33.33,64.81 -66.93,129.36 -99.99,194.17 -12.44,24.34 -2.38,44.7 29.1,44.44l-0.26 0.01z"/>
   <path class="fil0" d="M863.21 1152.89c0,16.93 14.29,30.96 31.75,30.96 17.46,0 32.01,-13.76 32.01,-30.69 0,-16.93 -14.29,-30.69 -31.75,-30.96 -17.46,0 -32.01,13.76 -32.01,30.69z"/>
   <path class="fil0" d="M901.3 2033.28c-103.17,0 -206.08,0 -309.25,0 -6.09,0 -12.44,0.53 -18.52,-0.53 -16.14,-3.18 -25.93,-13.76 -26.46,-29.9 -0.53,-15.08 6.88,-26.72 22.23,-30.69 7.14,-1.85 14.82,-2.38 22.49,-2.38 207.67,0 415.07,0 622.74,0 3.44,0 6.88,0 10.32,0 21.96,2.12 34.12,14.55 33.07,33.86 -1.06,18.52 -13.23,29.37 -34.92,29.37 -87.3,0 -174.6,0 -261.9,0 -19.84,0 -39.94,0 -59.79,0l0.01 0.26z"/>
   <path class="fil0" d="M439.67 2029.05c-10.85,0 -21.96,1.32 -32.81,0 -17.2,-2.38 -26.72,-13.76 -26.46,-30.96 0,-16.14 9,-28.31 25.66,-29.37 23.28,-1.59 46.56,-1.59 69.84,0 16.93,1.06 25.66,14.02 25.66,29.63 0,16.67 -9.26,28.84 -26.72,30.96 -11.38,1.32 -23.28,0 -34.92,0l-0.25 -0.26z"/>
   <path class="fil0" d="M1353.94 2029.31c-9.53,0 -19.31,0.53 -28.84,0 -18.26,-1.06 -29.63,-12.7 -30.16,-29.9 -0.53,-17.73 10.05,-30.43 28.05,-31.49 21.17,-1.06 42.59,-1.06 63.75,0 18.26,1.06 28.84,13.76 28.05,31.49 -0.79,17.73 -10.58,28.05 -28.05,29.63 -10.85,1.06 -21.96,0 -33.07,0l0 0.01 0.26 0.26z"/>
   <path class="fil0" d="M417.19 1925.88c-23.28,-0.53 -37.3,-12.7 -37.03,-32.28 0,-19.84 15.35,-31.75 39.94,-31.75 24.61,0 38.62,12.7 37.83,33.33 -0.79,20.37 -14.82,30.69 -40.74,30.43l0 0.26z"/>
   <path class="fil0" d="M802.1 1925.88c-24.87,0 -38.88,-11.64 -38.62,-32.54 0.26,-19.58 14.29,-30.96 37.83,-31.22 24.87,0 39.41,11.38 39.68,31.75 0,20.64 -13.76,32.28 -38.88,32.28l-0.01 -0.27z"/>
   <path class="fil0" d="M1280.4 1925.88c-24.87,0 -38.88,-11.91 -38.35,-32.81 0.53,-19.58 14.29,-30.96 38.09,-31.22 24.87,0 39.41,11.64 39.41,31.75 0,20.64 -14.02,32.01 -39.15,32.01l0 0.27z"/>
   <path class="fil0" d="M897.86 1925.88c-24.61,0 -39.41,-12.17 -39.15,-32.28 0,-19.84 15.35,-31.75 39.94,-31.49 23.81,0 37.3,11.64 37.56,31.49 0.26,20.9 -13.49,32.28 -38.62,32.28l0.27 0z"/>
   <path class="fil0" d="M1376.15 1925.88c-24.61,0 -39.41,-12.44 -38.88,-32.54 0.26,-19.84 15.61,-31.75 40.21,-31.22 23.81,0.26 37.3,11.64 37.56,31.75 0,20.9 -13.49,32.28 -38.88,32.28l-0.01 -0.27z"/>
   <path class="fil0" d="M708.45 1862.13c23.02,0.53 37.56,13.23 37.3,32.28 0,20.64 -15.88,32.28 -42.06,31.49 -23.02,-0.53 -36.5,-12.96 -35.71,-33.07 0.79,-20.11 15.35,-31.22 40.47,-30.69l0 -0.01z"/>
   <path class="fil0" d="M1185.42 1925.88c-25.14,0 -38.88,-11.38 -38.88,-32.01 0,-19.84 13.49,-31.49 37.3,-31.75 24.61,-0.26 39.94,11.38 40.47,31.22 0.53,20.11 -14.55,32.54 -38.88,32.54l-0.01 0z"/>
   <path class="fil0" d="M515.07 1925.88c-24.08,0 -39.94,-12.96 -39.41,-32.28 0.26,-19.31 16.4,-31.75 40.74,-31.49 23.02,0.26 38.09,12.7 38.35,31.49 0,19.84 -15.08,32.28 -39.41,32.28l-0.27 0z"/>
   <path class="fil0" d="M609.78 1925.88c-23.28,0 -38.09,-12.17 -38.35,-31.22 -0.53,-19.58 15.35,-32.54 39.41,-32.54 23.81,0 39.94,13.23 39.68,32.54 -0.53,19.31 -16.14,31.49 -40.47,31.22l-0.27 0z"/>
   <path class="fil0" d="M993.1 1925.88c-23.81,0 -39.68,-13.49 -38.88,-32.81 0.79,-19.31 16.93,-31.22 41,-30.96 23.02,0.53 37.83,12.96 37.83,32.01 0,19.58 -15.35,32.01 -39.94,31.75l-0.01 0.01z"/>
   <path class="fil0" d="M1089.4 1925.88c-24.34,0 -39.68,-12.7 -39.41,-32.28 0.26,-18.79 15.35,-31.22 38.35,-31.49 24.08,-0.26 40.21,12.17 40.47,31.49 0.26,19.31 -15.35,32.28 -39.68,32.28l0.27 0z"/>
   <path class="fil0" d="M611.36 1827.2c-25.14,0 -39.94,-11.38 -40.21,-31.22 0,-19.58 14.82,-31.49 39.94,-31.49 23.55,0 38.35,11.64 39.15,30.16 0.79,19.31 -14.82,32.28 -38.88,32.54l0 0.01z"/>
   <path class="fil0" d="M1089.4 1827.2c-24.61,0 -39.68,-12.17 -39.41,-31.75 0,-19.05 14.55,-30.69 38.35,-30.96 24.87,0 40.21,11.38 40.74,30.69 0.26,19.31 -15.08,31.75 -39.41,32.01l-0.27 0.01z"/>
   <path class="fil0" d="M515.07 1827.2c-24.61,0 -39.94,-12.17 -39.68,-31.75 0.26,-19.31 15.88,-31.22 40.47,-30.96 23.81,0 38.09,11.64 38.35,30.69 0.26,19.84 -14.55,31.75 -39.15,31.75l0.01 0.27z"/>
   <path class="fil0" d="M992.83 1827.2c-24.08,0 -39.68,-13.23 -38.88,-32.54 0.79,-18.52 15.61,-29.9 39.15,-30.16 24.87,0 39.94,11.64 39.68,31.49 0,19.58 -15.08,31.22 -40.21,30.96l0.26 0.25z"/>
   <path class="fil0" d="M1281.19 1827.2c-25.66,0 -39.15,-10.85 -39.15,-31.49 0,-20.64 13.49,-31.49 39.41,-31.22 24.61,0 37.56,10.58 38.09,30.43 0.53,20.9 -12.96,32.01 -38.35,32.28z"/>
   <path class="fil0" d="M801.83 1827.2c-25.4,0 -38.88,-11.38 -38.35,-32.28 0.53,-19.84 13.49,-30.16 38.09,-30.43 25.93,0 39.41,10.32 39.41,31.22 0,20.64 -13.49,31.49 -39.15,31.49z"/>
   <path class="fil0" d="M419.04 1827.2c-24.87,0 -39.15,-11.91 -38.88,-32.01 0.53,-19.84 14.82,-30.96 40.21,-30.69 24.34,0.26 37.3,11.11 37.56,30.96 0,20.64 -13.49,31.75 -38.88,31.49l-0.01 0.25z"/>
   <path class="fil0" d="M1185.16 1827.2c-25.4,0 -38.88,-11.11 -38.62,-31.75 0,-20.11 13.23,-30.43 37.56,-30.69 25.4,0 39.94,10.85 40.21,30.69 0,20.11 -14.02,31.75 -39.15,31.75z"/>
   <path class="fil0" d="M1376.42 1827.2c-25.14,0 -39.41,-11.64 -39.15,-31.75 0,-20.11 14.55,-31.22 39.94,-30.96 24.61,0 37.56,10.85 37.83,30.69 0,20.64 -13.23,31.75 -38.62,31.75l0 0.27z"/>
   <path class="fil0" d="M706.59 1827.2c-25.4,0 -38.88,-11.11 -38.62,-31.75 0,-20.11 13.23,-30.43 37.56,-30.69 25.4,0 39.94,10.85 40.21,30.69 0,20.11 -14.02,31.75 -39.15,31.75z"/>
   <path class="fil0" d="M897.86 1827.2c-24.87,0 -39.41,-11.91 -38.88,-32.01 0.26,-19.84 14.82,-30.96 40.21,-30.69 24.61,0.26 37.3,10.85 37.56,30.96 0,20.64 -13.23,31.75 -38.88,31.75l-0.01 -0.01z"/>
  </g>
 </g>
</svg>
