<?xml version="1.0" encoding="UTF-8"?>
<!DOCTYPE svg PUBLIC "-//W3C//DTD SVG 1.1//EN" "http://www.w3.org/Graphics/SVG/1.1/DTD/svg11.dtd">
<!-- Creator: CorelDRAW 2021.5 -->
<svg xmlns="http://www.w3.org/2000/svg" xml:space="preserve" width="19.1998mm" height="22.1184mm" version="1.1" style="shape-rendering:geometricPrecision; text-rendering:geometricPrecision; image-rendering:optimizeQuality; fill-rule:evenodd; clip-rule:evenodd"
viewBox="0 0 1920.38 2212.3"
 xmlns:xlink="http://www.w3.org/1999/xlink"
 xmlns:xodm="http://www.corel.com/coreldraw/odm/2003">
 <defs>
  <style type="text/css">
   <![CDATA[
    .fil0 {fill:#FEFEFE;fill-rule:nonzero}
   ]]>
  </style>
 </defs>
 <g id="Слой_x0020_1">
  <metadata id="CorelCorpID_0Corel-Layer"/>
  <g id="_лой_1-2">
   <path class="fil0" d="M936.31 1058.56c19.84,-18.26 34.41,-33.88 50.81,-46.31 65.89,-49.22 132.59,-97.65 199.27,-146.08 11.91,-8.73 24.09,-16.93 36.79,-23.81 59.54,-31.76 118.02,-19.31 157.46,35.73 18.79,26.47 32.55,56.37 51.34,83.1 9.79,14.02 23.02,27 37.85,35.2 62.45,35.2 125.44,69.33 189.22,102.41 88.92,45.78 125.71,120.94 133.38,217.8 9.79,121.74 23.28,243.2 39.43,364.15 4.23,31.76 23.28,61.66 36.79,92.1 14.82,33.35 33.61,65.1 45.52,99.5 15.08,43.93 1.85,84.16 -30.44,116.7 -15.88,16.14 -34.14,30.7 -53.46,42.08 -88.66,51.87 -177.58,103.21 -267.29,152.96 -23.02,12.7 -49.49,21.96 -75.43,26.47 -51.34,8.73 -90.24,-15.88 -119.35,-56.1 -21.43,-29.64 -40.76,-60.86 -59.54,-92.62 -24.09,-40.76 -54.78,-74.37 -92.36,-103.21 -120.94,-92.89 -240.82,-187.1 -362.03,-279.46 -42.61,-32.29 -62.45,-74.63 -63.77,-125.97 -1.06,-38.11 3.44,-76.75 2.12,-114.85 -1.85,-60.86 -8.2,-121.74 -8.73,-182.87 0,-41.55 -17.99,-71.18 -48.69,-95.27 -19.31,-15.08 -27,-34.94 -29.11,-59.01 -2.65,-30.7 -9.26,-61.13 -13.23,-91.83 -5.03,-38.11 6.35,-49.49 44.46,-44.72 37.05,4.76 74.37,9.26 111.15,15.88 10.32,1.85 20.9,9 28.85,16.4 21.17,20.11 40.76,41.81 59.54,61.13l-0.55 0.51zm575.59 24.88l-5.56 6.61c3.7,6.88 7.14,14.02 11.11,20.9 18.79,32.55 37.32,65.1 56.1,97.39 10.32,17.73 8.47,33.08 -9.79,43.93 -19.05,11.38 -32.55,2.38 -42.61,-14.29 -3.7,-6.35 -7.41,-12.7 -11.11,-19.05 -55.31,-96.06 -110.35,-192.13 -166.45,-287.93 -29.91,-51.07 -62.98,-57.95 -111.15,-24.35 -35.46,24.88 -69.86,50.81 -104.8,76.22 -36.79,27 -74.1,53.46 -110.09,81.51 -17.73,13.76 -25.15,32.02 -12.7,53.99 11.64,20.9 29.91,27 52.13,20.9 14.02,-3.7 27.79,-9.26 41.29,-15.08 40.49,-17.46 80.45,-35.46 120.68,-53.19 30.44,-13.23 39.7,-10.58 55.84,17.2 25.15,42.87 49.75,86.01 74.63,129.15 33.61,58.22 26.47,114.06 -12.17,166.98 -9.79,13.49 -22.49,25.15 -37.85,42.08 8.2,6.35 16.93,11.38 23.81,18.26 69.33,69.07 139.2,137.88 207.21,208.27 58.75,60.6 38.9,148.2 -39.43,178.9 -46.05,18.26 -84.16,3.44 -117.23,-30.17 -125.97,-126.77 -251.93,-253.52 -378.43,-379.76 -19.05,-19.05 -32.29,-39.7 -39.96,-65.63 -12.7,-43.4 -30.97,-84.16 -63.25,-116.97 -14.02,-14.29 -29.91,-21.7 -51.34,-13.23 0.79,13.23 1.59,26.2 2.38,39.17 2.91,56.1 6.61,111.94 8.2,168.05 0.79,29.38 -2.91,58.75 -3.7,87.86 -1.32,50.02 14.55,88.66 56.63,122 147.93,116.97 307.51,220.18 442.21,356.73 140.52,-81.25 283.16,-163.28 425.28,-246.38 5.56,-3.18 9.26,-15.61 8.2,-23.02 -6.09,-40.23 -16.14,-79.66 -20.64,-120.15 -11.64,-106.91 -20.64,-214.09 -31.76,-321.27 -4.23,-41.55 -15.88,-82.31 -52.13,-106.65 -53.19,-35.73 -109.29,-67.21 -164.07,-100.3l0.54 1.33zm-755.55 -55.3c3.7,27 5.56,50.55 10.58,73.31 4.23,19.58 46.58,55.31 62.98,54.51 53.99,-2.38 96.06,21.43 123.86,65.1 23.55,37.32 39.96,79.66 59.54,119.61 5.03,10.05 8.2,21.96 15.88,29.38 129.68,131 259.61,261.46 390.08,391.4 8.2,7.94 20.11,14.55 31.23,16.67 23.28,4.23 38.37,-9.53 48.69,-29.11 11.91,-22.75 2.65,-40.23 -13.76,-56.63 -213.03,-213.56 -425.8,-427.13 -639.1,-640.42 -6.35,-6.35 -15.61,-12.17 -24.35,-14.02 -19.84,-4.23 -39.96,-6.09 -65.63,-9.53l0 -0.27zm618.46 1025.73c6.35,10.85 11.38,19.84 16.93,28.85 49.75,80.19 72.25,87.07 155.61,41.55 75.69,-41.29 150.31,-84.69 224.68,-128.35 23.81,-14.02 46.05,-30.7 66.95,-48.69 19.58,-16.67 27,-39.7 16.93,-64.04 -11.64,-28.06 -26.47,-54.78 -40.49,-83.89 -149.26,86.27 -294.28,169.9 -440.89,254.58l0.27 -0.01zm-114.84 -679.06c44.72,-24.62 65.1,-70.92 44.46,-112.2 -20.37,-40.76 -44.2,-79.4 -67.48,-118.55 -2.65,-4.23 -12.7,-8.47 -16.93,-6.88 -46.58,19.58 -92.89,40.23 -138.14,60.07l178.37 177.58 -0.27 -0.01z"/>
   <path class="fil0" d="M1.07 1002.46c0,-284.75 1.59,-569.5 -1.06,-854.26 -0.79,-90.77 68.28,-148.72 147.67,-148.19 323.13,2.38 645.98,0.79 969.1,1.06 89.98,0 145.55,55.04 145.55,144.23 0,199.01 0,398.28 0,597.28 0,6.61 2.38,15.08 -0.79,19.05 -7.94,9.79 -18.26,23.81 -28.06,24.35 -9.53,0.53 -21.96,-12.17 -29.38,-21.96 -4.5,-6.09 -2.38,-17.2 -2.38,-26.2 0,-140.26 -0.53,-280.78 0.26,-421.04 0,-19.84 -5.03,-26.73 -25.67,-26.73 -363.88,0.53 -727.75,0.53 -1091.64,0 -19.05,0 -25.15,5.82 -25.15,25.15 0.53,456.24 0.53,912.21 0,1368.45 0,23.02 10.58,24.35 28.32,24.35 211.97,-0.26 424.22,0 636.19,0 9.79,0 19.58,0 29.38,0.79 18.26,1.59 29.11,12.17 28.32,30.17 -0.79,17.73 -12.17,27.79 -30.44,28.32 -8.2,0.26 -16.4,0 -24.35,0 -212.24,0 -424.22,0.53 -636.19,-0.53 -25.67,0 -32.82,7.67 -30.97,31.76 2.12,28.32 0,57.16 2.91,85.48 3.7,36.26 30.97,60.07 67.48,61.66 22.75,1.06 45.78,0.26 68.54,0.26 283.16,0 566.06,0 849.23,0 9.79,0 21.7,-2.12 28.59,2.65 10.05,6.88 21.43,18.26 23.02,29.38 2.65,16.14 -10.32,26.2 -27,28.59 -5.56,0.79 -11.38,0.26 -17.2,0.26 -303.54,0 -607.08,0 -910.36,0 -89.71,0 -144.23,-54.78 -144.49,-145.02 0,-286.34 0,-572.68 0,-859.28l0.54 -0.01zm57.69 -773.27l1141.92 0c0,-38.11 4.23,-75.16 -1.85,-110.62 -3.18,-18.52 -22.23,-36.79 -38.64,-49.22 -10.85,-8.2 -29.38,-7.67 -44.72,-7.67 -322.07,-0.26 -644.39,-0.26 -966.46,0 -8.2,0 -16.4,0 -24.35,1.06 -29.91,3.18 -53.46,19.58 -58.48,47.9 -6.61,38.64 -5.29,78.6 -7.14,119.08l-0.28 -0.53z"/>
   <path class="fil0" d="M498.32 1082.39c9.79,-7.94 21.17,-14.82 29.11,-24.35 25.67,-30.7 50.02,-62.19 74.63,-93.68 15.61,-20.11 31.76,-25.67 47.11,-13.49 17.99,14.29 15.08,31.23 2.65,47.11 -27.53,35.2 -53.46,72.25 -84.42,104.27 -17.99,18.52 -42.87,33.08 -67.48,41.81 -38.11,13.49 -75.16,-14.29 -71.98,-54.51 2.91,-37.05 12.96,-73.57 21.17,-109.82 17.46,-77.81 36.26,-155.08 53.46,-233.15 3.18,-14.82 3.18,-30.97 1.85,-46.31 -2.65,-28.85 -17.46,-35.2 -41.29,-19.31 -6.09,3.97 -11.91,8.73 -16.93,14.02 -77.54,77.54 -138.67,166.45 -180.22,268.08 -3.44,8.2 -5.82,16.93 -8.2,25.67 -16.14,57.95 -2.65,80.72 56.1,91.3 20.9,3.7 34.14,12.7 31.5,34.94 -2.12,16.4 -12.96,24.62 -30.7,25.41 -76.75,2.38 -134.7,-66.42 -120.42,-143.7 13.76,-75.43 49.75,-141.32 93.68,-202.45 35.2,-48.69 73.57,-95.8 114.85,-139.47 20.37,-21.7 48.69,-38.11 76.48,-50.81 32.29,-14.82 58.22,-2.12 74.9,29.64 16.4,31.23 17.73,64.83 10.85,97.92 -19.84,94.74 -41.81,188.95 -62.98,283.43 -4.5,20.9 -8.47,41.81 -12.96,62.72l9.26 4.76 -0.01 -0.01z"/>
  </g>
 </g>
</svg>
