<?xml version="1.0" encoding="utf-8"?>
<!-- Generator: Adobe Illustrator 26.3.1, SVG Export Plug-In . SVG Version: 6.00 Build 0)  -->
<svg version="1.1" id="Слой_1" xmlns:xodm="http://www.corel.com/coreldraw/odm/2003"
	 xmlns="http://www.w3.org/2000/svg" xmlns:xlink="http://www.w3.org/1999/xlink" x="0px" y="0px" viewBox="0 0 61.8 63.7"
	 style="enable-background:new 0 0 61.8 63.7;" xml:space="preserve">
<style type="text/css">
	.st0{fill:#FFFFFF;}
</style>
<path class="st0" d="M61.7,29.3V29c-0.5-0.6-1.1-0.8-1.8-0.7c-2.5,0.2-4.9,0.5-7.3,1.1c-0.9,0.3-1.8,0.6-2.5,1.3
	c-1.2,1.2-2.7,2-4.4,2.2c-0.5,0.1-1.1,0.4-1.4,0.2c-0.4-0.2-0.2-0.9-0.3-1.4c-0.9-3.6-1.7-7.1-2.6-10.7c-0.1-0.6-0.4-1.2-0.1-1.8
	c0.1-0.2,0-0.5-0.2-0.8c-0.4-0.5-1.1-0.7-1.7-0.5c-0.9,0.3-1.7,0.9-2.5,1.4c-0.3,0.2-0.7,0.4-1.1,0.4c-0.7,0-1-0.5-0.7-1.1
	c0.7-1.3,1.5-2.5,2.4-3.7c0.6-0.9,1.5-1.1,2.5-0.9c0.8,0.2,1.6,0.4,2.4,0.6c1.5,0.4,2.6,1.3,3.3,2.7c1.1,2,2.9,3,5.2,3.2
	c2.8,0.2,5.5-0.3,8.2-0.9c0.4-0.1,0.7-0.2,0.7-0.7c-0.1-0.5-0.3-0.9-0.8-0.9c-0.4,0-0.8,0-1.2,0.1c-2.2,0.3-4.3,0.6-6.5,0.7
	c-1.5,0-2.6-0.6-3.4-1.7c-0.5-0.7-1-1.4-1.5-2.1c-0.5-0.6-1-1.3-1.8-1.5c-1.2-0.3-1.4-1-1.6-2.1c-0.3-2.5-1.8-4-4-4.3
	c-0.9-0.2-1.7-0.2-2.6-0.1C32.5,7.5,28.7,8.2,25,9c-2.1,0.5-4.1,1.1-6,2.1c-1.1,0.6-1.7,1.6-1.5,2.7c0.4,1.9,1,3.7,2.3,5.3
	c0.4,0.4,0.8,0.9,1.2,1.2c1.5,1.3,3.1,1.7,5,0.9c1-0.4,2-0.7,3-0.6c-0.3,0.2-0.6,0.3-0.9,0.5c-2.2,1-2.5,3.5-0.6,5
	c0.2,0.2,0.3,0.3,0.2,0.6c-0.5,1.3-0.1,2.4,1,3.2c0.2,0.1,0.3,0.3,0.2,0.6c-0.5,1.1-0.2,2.2,0.6,3c0.6,0.5,0.6,1,0.6,1.7
	c-0.1,1.6,0.7,2.6,2.3,2.9c0.7,0.2,1.3-0.1,2-0.2c-0.2,0.3-0.3,0.5-0.5,0.7c-0.7,1-0.7,2.3,0,3.2c0.7,0.9,1.8,1.3,3.1,1
	c0.7-0.2,1.3-0.6,2-0.9c0.3,1.2,0.7,2.4,0.9,3.6c0.1,0.6,0.4,0.7,0.9,0.6c0.7-0.1,1.4-0.3,2.1-0.5c1.1-0.3,1.3-0.7,1-1.8
	c-0.3-1.1-0.6-2.3-0.9-3.4c-0.2-0.6-0.1-0.9,0.5-1.2c1.6-0.9,1.9-1.8,1.5-3.6c0-0.1-0.1-0.2-0.1-0.3c-0.1-0.3,0-0.4,0.3-0.5
	c2.3-0.3,4.4-1.2,6.1-2.8c0.5-0.5,1.2-0.8,1.9-1c2.3-0.6,4.6-0.9,6.9-1C60.8,30.1,61.4,30,61.7,29.3L61.7,29.3L61.7,29.3z M27.1,19
	c-0.9,0.2-1.8,0.4-2.7,0.7c-0.6,0.2-1.2,0.1-1.7-0.3c-1.7-1.4-2.9-3.2-3.4-5.3c-0.2-0.9,0-1.2,0.9-1.6c3.1-1.4,6.5-2.1,9.8-2.6
	c2.2-0.4,4.4-0.6,6.6-0.8C37.3,9,38,9,38.7,9.1c1.2,0.2,1.9,0.9,2.2,2.1c0.3,1.3,0.3,1.4-1,1.1c-1.5-0.2-2.6,0.2-3.6,1.3
	c-1.3,1.4-2.3,3.1-3.2,4.7c-0.3,0.5-0.3,1.1-0.1,1.8c0,0,0,0,0,0l0,0l0,0c0,0,0,0,0,0C32.5,20,32,20,31.5,20c-0.2,0-0.3,0-0.4-0.1
	C29.9,18.6,28.5,18.7,27.1,19z M28.2,24.3c-0.1-0.4-0.5-0.9,0.1-1.2c1.2-0.8,2.5-1.1,3.9-1.2c0.6,0,0.8,0.5,0.8,1c0,0,0,0,0,0l0,0v0
	c0,0,0,0,0,0l0,0c0,0,0,0,0,0c0,0.5-0.3,0.9-0.7,1c-1.1,0.3-2.2,0.6-3.3,0.9C28.6,25,28.3,24.7,28.2,24.3z M30.3,28.7L30.3,28.7
	C30.3,28.7,30.3,28.7,30.3,28.7c-0.5,0-0.9-0.2-1-0.8c-0.1-0.5,0-1,0.5-1.2c1-0.5,2.1-0.8,3.2-1c0.6-0.1,0.9,0.2,1.1,0.7
	c0.2,0.6,0,1.1-0.5,1.3C32.5,28.2,31.4,28.5,30.3,28.7C30.3,28.6,30.3,28.7,30.3,28.7L30.3,28.7z M30.4,31.7c-0.2-0.5,0-0.9,0.5-1.1
	c1-0.3,2-0.7,3-1c1-0.3,1.6,0.2,1.6,0.8l0,0h0c0,0.7-0.3,1-0.7,1.2c-1.1,0.5-2.2,0.8-3.4,1C30.8,32.7,30.6,32.2,30.4,31.7z
	 M32.9,36.4c-0.8,0-1.1-0.4-1.2-1c-0.1-0.6,0.1-0.9,0.6-1.1c1-0.3,1.9-0.7,2.9-0.9c0.6-0.2,1,0.1,1.2,0.6c0.2,0.5,0.2,1-0.3,1.3
	C35.1,35.8,34,36.2,32.9,36.4z M41.6,44.1c-0.2,0.1-0.4,0.2-0.5-0.1c-0.2-0.9-0.5-1.8-0.7-2.7c-0.1-0.4,0.3-0.5,0.5-0.5
	c0.4-0.1,0.3,0.2,0.3,0.4c0.3,0.9,0.5,1.8,0.7,2.6l0,0v0C42,44.1,41.8,44.1,41.6,44.1z M42.1,38c-1.6,0.9-3.2,1.9-4.8,2.8
	c-0.3,0.1-0.6,0.3-0.9,0.4c-0.4,0.2-0.7,0.1-1-0.2c-0.3-0.3-0.3-0.6-0.2-1c0.1-0.3,0.3-0.6,0.4-0.9c0.7-1,1.2-2.1,2.1-2.9
	c1.1-0.9,0.9-2.6-0.2-3.8c-0.4-0.4-0.5-0.7-0.3-1.2c0.4-1.2,0.1-2.2-1-3c-0.3-0.2-0.4-0.4-0.3-0.9c0.2-1.2,0.1-2.4-1.1-3.2
	c-0.2-0.2-0.2-0.3-0.1-0.5c0.2-0.7,0.2-1.4-0.1-2.3l0,0l0,0c1.7,0.6,2.8-0.1,4-1c0.6-0.4,0.6-0.4,0.8,0.3c1.2,4.9,2.4,9.7,3.6,14.6
	c0,0.1,0.1,0.3,0.1,0.4C43.3,37.2,43.3,37.3,42.1,38z"/>
<path class="st0" d="M20.3,26c0-2.1-0.8-3.7-2.4-5c-0.7-0.6-1.6-1.1-2.4-1.5c-0.6-0.3-0.9-0.8-0.9-1.5c-0.1-2.6-0.1-5.2,0-7.9h0l0,0
	c0-2.6,0-5.2,0-7.8c0-0.7-0.3-1.1-0.8-1.3c-0.8-0.4-1.6-0.5-2.4-0.6C10,0.2,8.6,0.2,7.2,0.8C6.6,1,6.1,1.4,6.1,2.2
	c0,4.7-0.2,9.3-0.1,14c0,1.7-0.3,3-2,3.6c-0.1,0-0.2,0.1-0.2,0.1c-2.4,1.6-3.5,3.9-3.6,6.7c-0.1,10.9,0,21.8,0,32.8
	c0,0.6,0.2,1,0.6,1.4c1.1,1.1,2.5,1.7,4,2.1c3.3,0.8,6.7,0.7,10.1,0.1c1.5-0.3,3-0.7,4.3-1.5c0.9-0.5,1.3-1.3,1.3-2.4
	C20.3,48.1,20.3,37.1,20.3,26z M9.2,2c1.1-0.1,2.1,0,3.2,0.2c0.4,0.1,0.5,0.3,0.5,0.7c0,1.3,0,1.3-1.3,1.3c-0.4,0-0.8,0-1.2,0l0,0
	l0,0c-0.7,0-1.4,0-2.1,0c-0.4,0-0.5-0.1-0.5-0.5C7.7,2.2,7.7,2.2,9.2,2z M17.9,60.3c-1.4,0.7-2.8,1-4.3,1.3c-3,0.4-6,0.5-8.9-0.3
	c-0.3-0.1-0.6-0.2-0.8-0.3c-1.7-0.7-1.9-1-1.9-2.8c0-10.4,0-20.7,0-31.1c0-2.5,1-4.5,3.3-5.8c3-1.8,2.4-1.9,2.5-4.4
	c0.1-3.4,0.1-6.8,0.1-10.2c0-0.5,0.1-0.7,0.6-0.7c1.3,0,2.6,0,3.9,0c0.5,0,0.6,0.2,0.6,0.7c0,3,0,6,0,9c0,1,0.1,2,0.1,3
	c0,0.9,0.4,1.6,1.2,2.1c0.6,0.4,1.3,0.8,1.9,1.2c1.7,1.1,2.5,2.6,2.5,4.6c0,5.4,0,10.7,0,16.1l0,0c0,5.5,0,11,0,16.5
	C18.7,59.6,18.4,60,17.9,60.3z"/>
<path class="st0" d="M29.1,14.3c-0.7,0.2-1.3,0.6-1.7,1.3c-0.1,0.2-0.3,0.4-0.4,0.6c-0.2,0.3-0.5,0.6-0.9,0.4
	c-0.5-0.2-0.6-0.6-0.5-1c0-0.3,0.2-0.7,0.4-0.9c1.6-2.2,4-2.5,6.2-1.4c0.2,0.1,0.3,0.2,0.5,0.4c0.2,0.3,0.4,0.6,0.2,0.9
	c-0.2,0.4-0.6,0.4-1,0.3c-0.5-0.1-0.9-0.3-1.4-0.5C30.1,14.3,29.6,14.5,29.1,14.3L29.1,14.3L29.1,14.3z"/>
<path class="st0" d="M16,41.8c0,1.9,0,3.8,0,5.7c0,0.8-0.3,1.2-1.2,1.2c-3,0-6.1,0-9.1,0c-0.8,0-1.2-0.4-1.2-1.2c0-1,0-2.1,0-3.1
	c0-0.8,0.4-1.2,1-1.2c0.6,0,1,0.5,1,1.2c0,0.6,0,1.2,0,1.8c0,0.4,0.1,0.5,0.5,0.5c2.2,0,4.4,0,6.6,0c0.4,0,0.5-0.1,0.5-0.5
	c0-2.9,0-5.9,0-8.8c0-0.4-0.1-0.5-0.5-0.5c-2.2,0-4.3,0-6.5,0c-0.5,0-0.5,0.2-0.5,0.6c0,1.4,0,2.8,0,4.2c0,0.9-0.8,1.4-1.5,1
	c-0.4-0.2-0.5-0.6-0.5-1c0-1.9,0-3.7,0-5.6c0-0.8,0.4-1.2,1.2-1.2c3,0,6,0,9,0c0.9,0,1.2,0.4,1.2,1.3C16,38,16,39.9,16,41.8L16,41.8
	L16,41.8z"/>
<path class="st0" d="M10.3,44.3c0.8,0,1.5,0,2.3,0c0.7,0,1.1,0.4,1.1,1c0,0.6-0.4,1-1,1.1c-1.6,0-3.2,0-4.7,0c-0.7,0-1-0.5-1-1.1
	c0-0.5,0.5-0.9,1.1-0.9C8.8,44.3,9.5,44.3,10.3,44.3C10.3,44.3,10.3,44.3,10.3,44.3z"/>
<path class="st0" d="M4.4,32.5c0.4,0,0.8,0,1.2,0c0.6,0,1,0.5,1,1c0,0.6-0.4,0.9-1,1c-0.5,0.1-1-0.2-1.3,0.1
	c-0.2,0.3-0.1,0.8-0.1,1.3c0,0.6-0.4,0.9-1,1c-0.6,0-0.9-0.3-1-0.9c-0.1-0.8-0.1-1.7,0-2.5c0.1-0.6,0.4-1,1.1-1
	C3.7,32.5,4,32.5,4.4,32.5L4.4,32.5L4.4,32.5z"/>
<path class="st0" d="M4.3,51.1c-1.8,0-2.2,0.2-2.2-2.3c0-0.4,0-0.8,0.1-1.2c0.1-0.5,0.4-0.9,1-0.9c0.6,0,0.9,0.3,1,0.9
	c0.1,0.5-0.2,1,0.1,1.3c0.3,0.2,0.8,0.1,1.3,0.1c0.6,0.1,1,0.5,1,1.1c0,0.6-0.4,0.9-1,1c0,0-0.1,0-0.1,0C5,51.1,4.7,51.1,4.3,51.1
	L4.3,51.1L4.3,51.1z"/>
<path class="st0" d="M18.4,34.7c0,0.4,0,0.9,0,1.3c0,0.6-0.4,0.9-1,0.9c-0.5,0-0.9-0.3-1-0.9c-0.1-0.5,0.2-1.1-0.1-1.4
	c-0.3-0.3-0.9-0.1-1.3-0.1c-0.6-0.1-0.9-0.4-0.9-1c0-0.6,0.3-1,0.8-1c0.8-0.1,1.7-0.1,2.6,0c0.6,0,1,0.4,0.9,1.1
	C18.4,34,18.4,34.3,18.4,34.7L18.4,34.7C18.4,34.7,18.4,34.7,18.4,34.7z"/>
<path class="st0" d="M18.4,48.9c0,1.4-0.7,2.2-2.2,2.2c-0.4,0-0.8,0-1.2,0c-0.5-0.1-0.9-0.4-0.9-0.9c0-0.6,0.3-1,0.9-1.1
	c0.5-0.1,1.1,0.2,1.4-0.1c0.3-0.3,0-0.9,0.1-1.4c0.1-0.6,0.5-0.8,1-0.8c0.5,0,0.9,0.3,0.9,0.8C18.4,48,18.4,48.5,18.4,48.9
	L18.4,48.9L18.4,48.9z"/>
<path class="st0" d="M10.3,39.2c-0.8,0-1.5,0-2.3,0c-0.7,0-1.1-0.4-1.1-1c0-0.6,0.4-1,1.1-1c1.5,0,3.1,0,4.6,0c0.6,0,1.1,0.5,1.1,1
	c0,0.6-0.4,1-1.1,1C11.8,39.2,11.1,39.2,10.3,39.2C10.3,39.2,10.3,39.2,10.3,39.2z"/>
<path class="st0" d="M9.1,42c0.4,0,0.8,0,1.2,0c0.6,0,0.9,0.4,1,1c0,0.5-0.3,0.9-0.8,1c-0.9,0.1-1.8,0.1-2.7,0
	c-0.6-0.1-0.9-0.5-0.9-1c0-0.6,0.4-0.9,1-0.9C8.3,42,8.7,42,9.1,42L9.1,42z"/>
<path class="st0" d="M9.1,41.6c-0.4,0-0.8,0-1.2,0c-0.6,0-0.9-0.4-0.9-0.9c0-0.6,0.3-1,0.8-1c0.9-0.1,1.8-0.1,2.7,0
	c0.6,0,0.8,0.5,0.8,1c0,0.5-0.3,0.9-0.9,0.9C10,41.6,9.5,41.6,9.1,41.6L9.1,41.6L9.1,41.6z"/>
<path class="st0" d="M12.7,41.6c-0.6,0-1-0.4-1-1c0-0.5,0.4-0.9,1-0.9c0.5,0,1,0.5,1,1C13.6,41.2,13.2,41.6,12.7,41.6
	C12.7,41.6,12.7,41.6,12.7,41.6z"/>
<path class="st0" d="M12.6,43.9c-0.6,0-0.9-0.4-0.9-1c0-0.6,0.5-1,1-0.9c0.5,0,1,0.5,0.9,1.1C13.7,43.6,13.2,44,12.6,43.9z"/>
<path class="st0" d="M33.7,11.9c-0.2-0.3-0.5-0.4-0.8-0.6c-1-0.5-2-0.7-3.1-0.7l0,0l0,0c-2.6,0-4.4,1.3-5.7,3.5
	c-0.1,0.2-0.2,0.4-0.2,0.6c-0.1,0.3,0,0.6,0.4,0.8c0.3,0.2,0.7,0.2,1-0.1c0.2-0.2,0.3-0.4,0.5-0.6c1.4-2.4,3.9-3.2,6.4-2.1
	c0.3,0.1,0.6,0.3,1,0.4c0.3,0.1,0.6-0.1,0.8-0.4C34,12.5,33.9,12.2,33.7,11.9z"/>
<path class="st0" d="M30.3,14.5L30.3,14.5L30.3,14.5c-0.3-0.1-0.7-0.2-1,0c-0.6,0.1-1,0.5-1.2,1c-0.4,0.9,0.1,2,1,2.3
	c0.9,0.4,2.1-0.2,2.5-1.1C31.8,15.8,31.3,14.9,30.3,14.5z M29.7,16.5c-0.2,0-0.3-0.1-0.3-0.3c0-0.2,0.1-0.3,0.3-0.3h0
	c0.2,0,0.4,0.1,0.4,0.3C30.1,16.4,29.9,16.5,29.7,16.5z"/>
</svg>
