<?xml version="1.0" encoding="UTF-8"?>
<!DOCTYPE svg PUBLIC "-//W3C//DTD SVG 1.1//EN" "http://www.w3.org/Graphics/SVG/1.1/DTD/svg11.dtd">
<!-- Creator: CorelDRAW 2021.5 -->
<svg xmlns="http://www.w3.org/2000/svg" xml:space="preserve" width="20.8393mm" height="20.8379mm" version="1.1" style="shape-rendering:geometricPrecision; text-rendering:geometricPrecision; image-rendering:optimizeQuality; fill-rule:evenodd; clip-rule:evenodd"
viewBox="0 0 2084 2083.86"
 xmlns:xlink="http://www.w3.org/1999/xlink"
 xmlns:xodm="http://www.corel.com/coreldraw/odm/2003">
 <defs>
  <style type="text/css">
   <![CDATA[
    .fil0 {fill:#FEFEFE;fill-rule:nonzero}
   ]]>
  </style>
 </defs>
 <g id="Слой_x0020_1">
  <metadata id="CorelCorpID_0Corel-Layer"/>
  <g id="_лой_1-2">
   <path class="fil0" d="M1906.52 1265.34c11.91,29.63 21.96,56.89 34.13,83.34 2.65,5.82 12.7,11.38 19.58,11.64 28.31,1.32 56.89,0 85.46,0.79 28.31,0.53 37.84,10.05 38.1,38.63 0.26,62.18 0.26,124.09 0,186.28 0,28.58 -10.05,38.1 -38.36,38.36 -27.78,0 -55.56,0.53 -83.34,0 -12.7,-0.26 -19.58,3.18 -23.81,16.14 -7.41,21.96 -16.67,43.66 -26.99,64.56 -5.29,10.58 -3.44,16.93 4.5,24.61 21.17,20.11 41.8,41.01 62.18,61.91 18.26,18.79 18.26,32.54 0.26,51.06 -44.71,45.24 -89.69,90.22 -134.94,134.94 -19.58,19.31 -33.07,19.31 -52.39,0 -20.9,-20.37 -41.8,-41.01 -61.91,-62.18 -7.94,-8.47 -14.29,-8.73 -24.61,-3.7 -20.9,10.05 -42.6,19.31 -64.56,26.72 -11.91,4.23 -15.88,10.05 -15.61,22.23 0.53,29.1 0.53,58.47 0,87.58 -0.26,24.08 -10.32,35.19 -34.66,35.19 -65.09,0.53 -130.18,0.53 -195.01,0 -23.02,0 -32.81,-10.85 -33.34,-34.4 -0.79,-29.1 -0.79,-58.47 0,-87.58 0.26,-12.96 -4.5,-19.05 -17.2,-23.28 -21.96,-7.41 -42.86,-18.52 -64.82,-26.19 -6.35,-2.12 -17.2,-0.53 -21.96,3.7 -22.23,20.11 -42.6,42.07 -64.03,62.97 -17.73,17.2 -32.01,17.46 -49.21,0.26 -46.3,-45.77 -92.34,-91.81 -137.85,-137.85 -17.2,-17.46 -16.67,-31.22 0.79,-49.21 20.37,-20.9 41.8,-40.75 61.38,-62.44 4.76,-5.29 6.88,-16.93 4.76,-23.55 -7.67,-22.75 -16.67,-45.24 -27.52,-66.68 -3.18,-6.61 -12.96,-13.49 -20.11,-13.76 -29.9,-1.59 -59.8,-0.26 -89.96,-0.79 -22.75,-0.26 -33.34,-10.85 -33.34,-33.87 -0.26,-65.09 -0.26,-130.18 0,-195.01 0,-23.55 9.26,-33.6 32.81,-34.13 29.9,-0.79 59.8,-0.79 89.96,0 12.17,0 17.99,-4.23 22.23,-15.88 7.67,-21.96 18.52,-42.86 25.93,-64.82 2.38,-6.88 0.53,-18.52 -4.23,-23.81 -19.58,-21.7 -41.01,-41.54 -61.38,-62.44 -18.52,-18.79 -18.79,-32.28 0,-50.8 45.24,-45.77 90.75,-91.28 136.53,-136.26 17.46,-17.2 31.75,-17.2 49.48,0 20.64,19.84 40.75,39.69 60.33,60.59 9.26,10.05 17.2,12.44 30.16,5.82 19.31,-10.05 39.69,-18.26 60.59,-25.14 12.44,-4.23 17.73,-10.05 17.2,-23.28 -0.79,-28.58 -0.53,-56.89 0,-85.46 0.53,-27.78 9.26,-36.51 37.31,-36.51 62.97,0 125.68,0 188.66,0 28.05,0 37.31,9.79 37.57,38.36 0,27.78 0.53,55.56 0,83.34 -0.26,11.91 3.18,18.26 15.08,22.49 21.96,7.67 43.66,16.67 64.56,26.72 11.38,5.56 18.26,3.44 26.46,-5.03 20.11,-21.17 41.01,-41.8 61.91,-61.91 17.73,-17.2 31.75,-17.2 49.21,0 45.77,45.24 91.28,90.75 136.53,136.26 18.26,18.26 17.99,32.54 0,50.8 -24.08,24.34 -48.42,48.42 -71.44,71.17l-1.07 -0.5zm-944.33 300.57c31.22,0 60.33,0 89.16,0 28.84,0 34.13,5.82 43.92,32.54 12.17,33.34 25.66,66.68 41.01,98.69 13.49,28.31 14.02,34.4 -9,57.15 -20.64,20.37 -41.54,40.48 -61.12,59.8l105.57 105.04c19.84,-20.37 41.54,-41.8 62.18,-64.29 15.35,-16.67 30.96,-17.99 50.8,-7.67 24.34,12.96 49.21,26.19 75.41,34.4 65.09,20.37 57.94,14.02 58.21,83.61 0,39.86 20.28,59.79 60.85,59.79l85.99 0c0,-33.07 0,-62.18 0,-91.28 0,-28.58 6.61,-34.93 32.54,-44.19 34.13,-12.44 68,-25.93 100.81,-41.8 20.64,-10.05 36.51,-10.32 52.65,7.41 20.37,22.49 42.07,43.92 59.8,61.91l105.83 -105.04c-18.52,-18.26 -38.89,-38.1 -59.27,-57.94 -22.49,-22.23 -22.23,-29.63 -8.73,-57.41 14.55,-30.16 28.05,-60.85 38.89,-92.6 11.64,-33.87 15.08,-38.1 50.54,-38.36 28.05,0 56.36,0 86.25,0 0,-46.57 0,-89.69 0,-132.56 0,-12.44 -6.61,-14.29 -16.67,-14.29 -26.19,0 -52.65,-0.79 -78.85,0.26 -22.23,1.06 -32.28,-9.79 -39.42,-29.63 -12.7,-34.93 -26.19,-69.32 -42.33,-102.66 -10.05,-20.9 -10.32,-36.51 7.41,-52.65 22.49,-20.64 43.92,-42.6 63.5,-61.65l-105.3 -105.04c-19.31,19.84 -39.95,41.28 -61.12,62.44 -20.64,20.64 -28.05,20.37 -53.71,7.94 -30.16,-14.55 -60.85,-28.31 -92.34,-39.16 -36.78,-12.7 -40.48,-15.35 -40.48,-55.83 0,-26.72 0,-53.45 0,-79.11l-146.84 -0.01c0,32.81 -0.53,63.24 0,93.93 0.53,20.9 -9.26,30.96 -28.58,37.84 -33.6,11.64 -66.94,24.87 -98.95,40.22 -32.01,15.35 -35.98,16.14 -60.85,-8.47 -20.37,-20.37 -41.01,-40.75 -57.94,-57.68l-105.04 104.25c19.84,19.05 40.75,40.48 62.71,60.59 17.2,15.88 18.52,31.22 7.94,52.39 -16.4,32.28 -29.9,66.41 -42.33,100.54 -10.05,27.78 -13.76,32.01 -43.66,32.28 -29.63,0 -59.27,0 -89.96,0l0 146.84 0.52 -0.54z"/>
   <path class="fil0" d="M177.68 819.51c-12.17,-30.69 -22.23,-57.94 -34.4,-84.4 -2.65,-5.82 -12.7,-11.11 -19.84,-11.38 -28.31,-1.32 -56.89,0 -85.46,-0.79 -27.52,-0.53 -37.31,-10.05 -37.57,-37.04 -0.53,-62.71 -0.53,-125.68 0,-188.39 0,-28.31 10.32,-37.84 38.89,-37.84 28.58,0 57.15,0.79 85.46,-0.79 6.88,-0.26 16.4,-7.67 19.58,-14.02 10.32,-20.9 17.46,-43.39 27.78,-64.29 5.56,-11.11 4.76,-17.99 -4.23,-26.46 -20.64,-19.58 -40.48,-39.95 -60.59,-60.33 -19.31,-19.84 -19.84,-33.34 -1.06,-52.39 44.71,-45.24 89.69,-90.22 134.94,-134.94 19.31,-19.05 32.81,-18.79 52.65,0.53 20.37,19.84 40.75,39.95 60.33,60.59 8.2,8.73 14.82,10.58 26.19,4.76 20.11,-10.05 41.01,-19.05 62.44,-25.93 14.29,-4.5 17.46,-12.17 16.93,-25.66 -0.79,-28.58 -0.53,-56.89 0,-85.46 0.26,-23.02 9.79,-34.4 33.07,-34.66 65.88,-0.79 131.5,-0.79 197.39,0 23.02,0 32.28,11.11 32.81,34.66 0.53,28.58 0.79,56.89 0,85.46 -0.26,13.49 3.18,20.9 17.46,25.4 20.9,6.35 41.28,14.82 60.33,25.14 13.23,6.88 20.64,4.5 29.9,-5.56 19.58,-20.64 39.95,-40.75 60.33,-60.59 17.73,-17.2 31.75,-17.2 49.21,0 46.3,45.77 92.34,91.81 137.85,138.11 16.67,16.67 16.67,30.69 0.26,47.63 -20.11,21.17 -41.01,41.8 -62.18,61.91 -9,8.73 -11.91,15.88 -5.56,28.31 10.32,20.11 18.79,41.28 25.93,62.44 4.5,12.96 11.38,16.4 24.08,16.14 27.78,-0.79 55.56,-0.26 83.34,0 27.25,0 37.31,9.79 37.57,36.51 0,63.5 0,127 0,190.77 0,26.19 -9.26,35.72 -35.45,36.25 -28.58,0.53 -56.89,0.79 -85.46,0 -14.02,-0.26 -20.37,4.76 -24.61,18.52 -6.09,19.31 -13.49,38.63 -23.55,56.36 -8.47,15.35 -5.29,24.61 6.88,35.45 20.11,18.26 38.89,37.57 57.68,57.15 17.99,18.79 18.26,32.28 -0.26,51.06 -44.71,45.24 -89.69,90.22 -134.94,134.94 -19.31,19.31 -32.81,18.79 -52.39,-0.53 -20.37,-19.84 -40.75,-39.95 -60.33,-60.59 -8.47,-9 -15.35,-10.05 -26.72,-4.76 -20.9,10.05 -43.39,17.2 -64.29,27.52 -6.61,3.44 -13.76,12.96 -14.29,20.11 -1.59,28.31 -0.53,56.89 -0.79,85.46 -0.53,29.37 -9,38.1 -37.84,38.1 -62.97,0 -125.68,0 -188.66,0 -26.99,0 -36.78,-9.79 -37.04,-36.78 0,-28.58 -0.53,-56.89 0,-85.46 0.26,-12.44 -3.97,-17.99 -15.61,-22.23 -21.96,-7.94 -42.86,-18.52 -64.82,-25.66 -6.88,-2.38 -18.52,-0.79 -23.81,3.7 -21.17,19.05 -40.75,39.95 -60.85,59.8 -20.9,20.37 -33.87,20.64 -53.98,0.53 -44.71,-44.19 -89.16,-88.64 -133.35,-133.35 -19.84,-20.11 -19.58,-33.6 0.79,-53.98 23.28,-23.28 46.83,-46.04 69.85,-68.79l0.01 -0.26zm840.08 -547.98l-106.1 -106.1c-20.37,20.9 -42.33,43.13 -64.03,65.88 -13.49,14.29 -27.78,15.35 -45.51,7.41 -36.51,-16.4 -73.29,-32.01 -110.86,-46.04 -18.52,-6.88 -26.99,-17.46 -26.46,-37.04 0.79,-26.19 0.79,-52.65 -0.26,-78.85 0,-6.09 -6.61,-16.67 -10.32,-16.67 -44.45,-1.06 -88.64,-0.79 -136,-0.79 0,32.81 -0.53,63.24 0,93.66 0.53,22.23 -9.53,34.13 -30.69,41.54 -34.93,12.44 -69.32,26.19 -102.92,42.33 -20.9,10.05 -36.78,9.79 -52.65,-7.94 -20.11,-22.49 -41.54,-44.19 -63.24,-67.47 -34.66,34.66 -65.09,65.09 -95.51,95.51 -2.91,2.91 -5.56,6.61 -10.05,12.44 22.23,21.43 43.92,43.13 66.15,64.03 16.93,15.61 16.93,31.22 7.14,51.06 -14.55,29.37 -28.31,59.27 -38.89,89.96 -14.55,42.07 -15.08,43.92 -59.53,43.92 -25.93,0 -51.86,0 -79.11,0 0,12.96 0,21.43 0,30.16 0,34.4 0.26,68.79 0,102.92 0,12.7 7.41,13.76 17.2,13.76 24.87,0 49.74,0 74.61,0 29.37,0 34.4,5.29 43.92,32.01 12.17,33.34 25.66,66.41 40.75,98.69 12.44,26.46 12.7,34.66 -8.47,55.83 -20.9,20.9 -42.07,41.8 -60.85,60.33l105.83 104.78c18.26,-19.05 38.1,-40.22 58.74,-61.12 21.96,-22.23 28.31,-21.7 55.3,-9 32.28,15.08 65.09,28.84 98.69,41.28 27.78,10.32 33.34,15.61 33.6,45.51 0,28.84 0,57.94 0,88.9 46.83,0 90.49,0.53 134.14,-0.79 4.5,0 11.91,-9.53 12.17,-14.82 1.32,-26.99 1.06,-53.98 0.53,-80.96 -0.53,-19.84 8.73,-29.63 27.25,-36.51 36.25,-13.23 72.23,-27.25 106.63,-44.19 20.64,-10.05 35.45,-8.73 50.54,7.94 20.64,22.49 42.07,44.19 60.06,62.71l106.36 -106.36c-20.37,-19.58 -42.86,-41.28 -65.62,-62.97 -12.44,-11.91 -15.61,-24.61 -8.2,-41.28 16.93,-38.63 32.81,-77.79 48.42,-116.68 6.09,-15.35 15.88,-23.55 32.81,-23.28 19.05,0.53 38.1,0 56.89,0 28.21,0 42.32,-14.37 42.32,-43.12 0,-34.13 0,-68 0,-103.72 -34.13,0 -64.82,0 -95.25,0 -20.11,0 -31.22,-9.26 -38.1,-28.84 -12.96,-36.25 -27.52,-71.97 -44.45,-106.63 -9.53,-19.84 -8.47,-34.13 7.41,-48.68 22.49,-20.9 44.45,-42.33 65.62,-62.71l-0.01 0z"/>
   <path class="fil0" d="M1700.93 606.24c-87.31,-130.18 -201.36,-226.23 -343.7,-288.41 -27.25,-11.91 -55.83,-21.17 -84.14,-31.22 -23.28,-8.2 -33.34,-21.7 -28.05,-39.42 5.03,-17.46 21.7,-23.81 45.24,-16.4 185.75,57.68 334.71,166.43 446.64,325.18 10.85,15.35 19.58,21.43 39.95,18.79 65.35,-7.94 123.56,33.07 141.55,95.51 17.46,60.33 -10.05,125.41 -65.62,154.79 -55.83,29.63 -126.74,15.08 -166.43,-34.4 -41.01,-50.8 -39.69,-120.39 2.91,-171.2 3.18,-3.97 6.61,-7.67 11.38,-13.49l0.27 0.27zm15.09 99.22c-0.26,42.6 31.49,74.88 73.82,74.88 41.28,0 73.29,-31.49 73.82,-72.76 0.53,-41.54 -30.96,-74.08 -71.7,-74.88 -42.6,-0.79 -75.67,30.96 -75.94,72.76z"/>
   <path class="fil0" d="M383.52 1478.34c73.03,109.54 165.9,196.6 282.06,257.45 46.3,24.34 96.57,40.75 144.46,61.91 10.85,5.03 22.23,14.02 27.78,24.34 3.18,6.09 -1.85,22.49 -8.2,26.19 -9,5.56 -23.55,7.94 -33.87,5.03 -84.67,-24.34 -163.26,-62.71 -235.75,-112.98 -86.25,-59.53 -159.02,-132.56 -217.76,-219.35 -7.41,-11.11 -14.29,-14.55 -28.31,-11.91 -61.65,10.58 -122.5,-25.93 -144.73,-84.93 -22.49,-60.06 0,-126.74 54.5,-160.61 52.92,-32.81 123.56,-23.81 166.7,21.17 43.66,45.77 49.48,115.36 14.02,167.23 -6.09,9 -13.23,17.2 -20.37,26.46l-0.53 0zm-87.57 -174.64c-42.6,-0.79 -75.41,30.69 -75.67,73.03 -0.53,41.28 30.96,74.08 71.97,74.61 41.54,0.79 74.61,-30.16 75.67,-70.91 1.06,-42.86 -29.9,-75.94 -71.97,-76.73z"/>
   <path class="fil0" d="M1493.76 1756.42c-146.84,0 -266.18,-118 -265.65,-263.8 0.26,-145.79 119.33,-264.33 265.65,-264.59 143.14,-0.26 262.48,118.8 262.74,262.48 0.26,147.9 -115.89,265.65 -262.74,265.92l0 -0.01zm204.53 -268.03c-3.44,-115.62 -97.37,-204.53 -213,-201.36 -112.18,2.91 -201.62,99.48 -198.18,214.32 3.18,109.27 100.54,201.36 208.77,197.12 116.42,-4.5 206.12,-97.1 202.68,-209.82l-0.27 -0.26z"/>
   <path class="fil0" d="M327.43 591.95c0,-147.37 116.42,-264.06 264.06,-264.33 144.99,0 264.86,118.8 264.33,263.01 -0.53,146.31 -120.39,266.18 -265.12,265.39 -145.79,-0.79 -263.27,-118.53 -263.27,-264.06l0 -0.01zm270.15 -206.12c-109.8,-6.35 -204.27,82.02 -211.94,197.92 -7.14,107.16 83.61,207.18 192.63,213 113.77,6.09 212.74,-81.49 218.56,-193.69 6.09,-115.89 -80.7,-210.35 -199.24,-217.23l-0.01 0z"/>
  </g>
 </g>
</svg>
