<?xml version="1.0" encoding="UTF-8"?><svg id="_лой_2" xmlns="http://www.w3.org/2000/svg" viewBox="0 0 78.77 78.76"><defs><style>.cls-1{fill:#bc2539;}</style></defs><g id="_лой_1-2"><path class="cls-1" d="M72.06,47.82c.45,1.12,.83,2.15,1.29,3.15,.1,.22,.48,.43,.74,.44,1.07,.05,2.15,0,3.23,.03,1.07,.02,1.43,.38,1.44,1.46,.01,2.35,.01,4.69,0,7.04,0,1.08-.38,1.44-1.45,1.45-1.05,0-2.1,.02-3.15,0-.48-.01-.74,.12-.9,.61-.28,.83-.63,1.65-1.02,2.44-.2,.4-.13,.64,.17,.93,.8,.76,1.58,1.55,2.35,2.34,.69,.71,.69,1.23,.01,1.93-1.69,1.71-3.39,3.41-5.1,5.1-.74,.73-1.25,.73-1.98,0-.79-.77-1.58-1.55-2.34-2.35-.3-.32-.54-.33-.93-.14-.79,.38-1.61,.73-2.44,1.01-.45,.16-.6,.38-.59,.84,.02,1.1,.02,2.21,0,3.31-.01,.91-.39,1.33-1.31,1.33-2.46,.02-4.92,.02-7.37,0-.87,0-1.24-.41-1.26-1.3-.03-1.1-.03-2.21,0-3.31,.01-.49-.17-.72-.65-.88-.83-.28-1.62-.7-2.45-.99-.24-.08-.65-.02-.83,.14-.84,.76-1.61,1.59-2.42,2.38-.67,.65-1.21,.66-1.86,.01-1.75-1.73-3.49-3.47-5.21-5.21-.65-.66-.63-1.18,.03-1.86,.77-.79,1.58-1.54,2.32-2.36,.18-.2,.26-.64,.18-.89-.29-.86-.63-1.71-1.04-2.52-.12-.25-.49-.51-.76-.52-1.13-.06-2.26-.01-3.4-.03-.86-.01-1.26-.41-1.26-1.28-.01-2.46-.01-4.92,0-7.37,0-.89,.35-1.27,1.24-1.29,1.13-.03,2.26-.03,3.4,0,.46,0,.68-.16,.84-.6,.29-.83,.7-1.62,.98-2.45,.09-.26,.02-.7-.16-.9-.74-.82-1.55-1.57-2.32-2.36-.7-.71-.71-1.22,0-1.92,1.71-1.73,3.43-3.45,5.16-5.15,.66-.65,1.2-.65,1.87,0,.78,.75,1.54,1.5,2.28,2.29,.35,.38,.65,.47,1.14,.22,.73-.38,1.5-.69,2.29-.95,.47-.16,.67-.38,.65-.88-.03-1.08-.02-2.15,0-3.23,.02-1.05,.35-1.38,1.41-1.38,2.38,0,4.75,0,7.13,0,1.06,0,1.41,.37,1.42,1.45,0,1.05,.02,2.1,0,3.15-.01,.45,.12,.69,.57,.85,.83,.29,1.65,.63,2.44,1.01,.43,.21,.69,.13,1-.19,.76-.8,1.55-1.58,2.34-2.34,.67-.65,1.2-.65,1.86,0,1.73,1.71,3.45,3.43,5.16,5.15,.69,.69,.68,1.23,0,1.92-.91,.92-1.83,1.83-2.7,2.69Zm-35.69,11.36c1.18,0,2.28,0,3.37,0,1.09,0,1.29,.22,1.66,1.23,.46,1.26,.97,2.52,1.55,3.73,.51,1.07,.53,1.3-.34,2.16-.78,.77-1.57,1.53-2.31,2.26l3.99,3.97c.75-.77,1.57-1.58,2.35-2.43,.58-.63,1.17-.68,1.92-.29,.92,.49,1.86,.99,2.85,1.3,2.46,.77,2.19,.53,2.2,3.16q0,2.26,2.3,2.26h3.25c0-1.25,0-2.35,0-3.45,0-1.08,.25-1.32,1.23-1.67,1.29-.47,2.57-.98,3.81-1.58,.78-.38,1.38-.39,1.99,.28,.77,.85,1.59,1.66,2.26,2.34l4-3.97c-.7-.69-1.47-1.44-2.24-2.19-.85-.84-.84-1.12-.33-2.17,.55-1.14,1.06-2.3,1.47-3.5,.44-1.28,.57-1.44,1.91-1.45,1.06,0,2.13,0,3.26,0,0-1.76,0-3.39,0-5.01,0-.47-.25-.54-.63-.54-.99,0-1.99-.03-2.98,.01-.84,.04-1.22-.37-1.49-1.12-.48-1.32-.99-2.62-1.6-3.88-.38-.79-.39-1.38,.28-1.99,.85-.78,1.66-1.61,2.4-2.33l-3.98-3.97c-.73,.75-1.51,1.56-2.31,2.36-.78,.78-1.06,.77-2.03,.3-1.14-.55-2.3-1.07-3.49-1.48-1.39-.48-1.53-.58-1.53-2.11,0-1.01,0-2.02,0-2.99h-5.55c0,1.24-.02,2.39,0,3.55,.02,.79-.35,1.17-1.08,1.43-1.27,.44-2.53,.94-3.74,1.52-1.21,.58-1.36,.61-2.3-.32-.77-.77-1.55-1.54-2.19-2.18l-3.97,3.94c.75,.72,1.54,1.53,2.37,2.29,.65,.6,.7,1.18,.3,1.98-.62,1.22-1.13,2.51-1.6,3.8-.38,1.05-.52,1.21-1.65,1.22-1.12,0-2.24,0-3.4,0v5.55Z"/><path class="cls-1" d="M6.72,30.97c-.46-1.16-.84-2.19-1.3-3.19-.1-.22-.48-.42-.75-.43-1.07-.05-2.15,0-3.23-.03-1.04-.02-1.41-.38-1.42-1.4-.02-2.37-.02-4.75,0-7.12,0-1.07,.39-1.43,1.47-1.43,1.08,0,2.16,.03,3.23-.03,.26-.01,.62-.29,.74-.53,.39-.79,.66-1.64,1.05-2.43,.21-.42,.18-.68-.16-1-.78-.74-1.53-1.51-2.29-2.28-.73-.75-.75-1.26-.04-1.98,1.69-1.71,3.39-3.41,5.1-5.1,.73-.72,1.24-.71,1.99,.02,.77,.75,1.54,1.51,2.28,2.29,.31,.33,.56,.4,.99,.18,.76-.38,1.55-.72,2.36-.98,.54-.17,.66-.46,.64-.97-.03-1.08-.02-2.15,0-3.23,.01-.87,.37-1.3,1.25-1.31,2.49-.03,4.97-.03,7.46,0,.87,0,1.22,.42,1.24,1.31,.02,1.08,.03,2.15,0,3.23-.01,.51,.12,.79,.66,.96,.79,.24,1.56,.56,2.28,.95,.5,.26,.78,.17,1.13-.21,.74-.78,1.51-1.54,2.28-2.29,.67-.65,1.2-.65,1.86,0,1.75,1.73,3.49,3.47,5.21,5.22,.63,.63,.63,1.16,.01,1.8-.76,.8-1.55,1.58-2.35,2.34-.34,.33-.45,.6-.21,1.07,.39,.76,.71,1.56,.98,2.36,.17,.49,.43,.62,.91,.61,1.05-.03,2.1-.01,3.15,0,1.03,0,1.41,.37,1.42,1.38,0,2.4,0,4.8,0,7.21,0,.99-.35,1.35-1.34,1.37-1.08,.02-2.15,.03-3.23,0-.53-.01-.77,.18-.93,.7-.23,.73-.51,1.46-.89,2.13-.32,.58-.2,.93,.26,1.34,.76,.69,1.47,1.42,2.18,2.16,.68,.71,.69,1.22-.01,1.93-1.69,1.71-3.39,3.41-5.1,5.1-.73,.73-1.24,.71-1.98-.02-.77-.75-1.54-1.51-2.28-2.29-.32-.34-.58-.38-1.01-.18-.79,.38-1.64,.65-2.43,1.04-.25,.13-.52,.49-.54,.76-.06,1.07-.02,2.15-.03,3.23-.02,1.11-.34,1.44-1.43,1.44-2.38,0-4.75,0-7.13,0-1.02,0-1.39-.37-1.4-1.39,0-1.08-.02-2.15,0-3.23,.01-.47-.15-.68-.59-.84-.83-.3-1.62-.7-2.45-.97-.26-.09-.7-.03-.9,.14-.8,.72-1.54,1.51-2.3,2.26-.79,.77-1.28,.78-2.04,.02-1.69-1.67-3.37-3.35-5.04-5.04-.75-.76-.74-1.27,.03-2.04,.88-.88,1.77-1.74,2.64-2.6ZM38.47,10.26l-4.01-4.01c-.77,.79-1.6,1.63-2.42,2.49-.51,.54-1.05,.58-1.72,.28-1.38-.62-2.77-1.21-4.19-1.74-.7-.26-1.02-.66-1-1.4,.03-.99,.03-1.99-.01-2.98,0-.23-.25-.63-.39-.63-1.68-.04-3.35-.03-5.14-.03,0,1.24-.02,2.39,0,3.54,.02,.84-.36,1.29-1.16,1.57-1.32,.47-2.62,.99-3.89,1.6-.79,.38-1.39,.37-1.99-.3-.76-.85-1.57-1.67-2.39-2.55-1.31,1.31-2.46,2.46-3.61,3.61-.11,.11-.21,.25-.38,.47,.84,.81,1.66,1.63,2.5,2.42,.64,.59,.64,1.18,.27,1.93-.55,1.11-1.07,2.24-1.47,3.4-.55,1.59-.57,1.66-2.25,1.66-.98,0-1.96,0-2.99,0,0,.49,0,.81,0,1.14,0,1.3,.01,2.6,0,3.89,0,.48,.28,.52,.65,.52,.94,0,1.88,0,2.82,0,1.11,0,1.3,.2,1.66,1.21,.46,1.26,.97,2.51,1.54,3.73,.47,1,.48,1.31-.32,2.11-.79,.79-1.59,1.58-2.3,2.28l4,3.96c.69-.72,1.44-1.52,2.22-2.31,.83-.84,1.07-.82,2.09-.34,1.22,.57,2.46,1.09,3.73,1.56,1.05,.39,1.26,.59,1.27,1.72,0,1.09,0,2.19,0,3.36,1.77,0,3.42,.02,5.07-.03,.17,0,.45-.36,.46-.56,.05-1.02,.04-2.04,.02-3.06-.02-.75,.33-1.12,1.03-1.38,1.37-.5,2.73-1.03,4.03-1.67,.78-.38,1.34-.33,1.91,.3,.78,.85,1.59,1.67,2.27,2.37l4.02-4.02c-.77-.74-1.62-1.56-2.48-2.38-.47-.45-.59-.93-.31-1.56,.64-1.46,1.24-2.94,1.83-4.41,.23-.58,.6-.89,1.24-.88,.72,.02,1.44,0,2.15,0q1.6,0,1.6-1.63c0-1.29,0-2.57,0-3.92-1.29,0-2.45,0-3.6,0-.76,0-1.18-.35-1.44-1.09-.49-1.37-1.04-2.72-1.68-4.03-.36-.75-.32-1.29,.28-1.84,.85-.79,1.68-1.6,2.48-2.37Z"/><path class="cls-1" d="M64.29,22.91c-3.3-4.92-7.61-8.55-12.99-10.9-1.03-.45-2.11-.8-3.18-1.18-.88-.31-1.26-.82-1.06-1.49,.19-.66,.82-.9,1.71-.62,7.02,2.18,12.65,6.29,16.88,12.29,.41,.58,.74,.81,1.51,.71,2.47-.3,4.67,1.25,5.35,3.61,.66,2.28-.38,4.74-2.48,5.85-2.11,1.12-4.79,.57-6.29-1.3-1.55-1.92-1.5-4.55,.11-6.47,.12-.15,.25-.29,.43-.51Zm.57,3.75c-.01,1.61,1.19,2.83,2.79,2.83,1.56,0,2.77-1.19,2.79-2.75,.02-1.57-1.17-2.8-2.71-2.83-1.61-.03-2.86,1.17-2.87,2.75Z"/><path class="cls-1" d="M14.5,55.87c2.76,4.14,6.27,7.43,10.66,9.73,1.75,.92,3.65,1.54,5.46,2.34,.41,.19,.84,.53,1.05,.92,.12,.23-.07,.85-.31,.99-.34,.21-.89,.3-1.28,.19-3.2-.92-6.17-2.37-8.91-4.27-3.26-2.25-6.01-5.01-8.23-8.29-.28-.42-.54-.55-1.07-.45-2.33,.4-4.63-.98-5.47-3.21-.85-2.27,0-4.79,2.06-6.07,2-1.24,4.67-.9,6.3,.8,1.65,1.73,1.87,4.36,.53,6.32-.23,.34-.5,.65-.77,1Zm-3.31-6.6c-1.61-.03-2.85,1.16-2.86,2.76-.02,1.56,1.17,2.8,2.72,2.82,1.57,.03,2.82-1.14,2.86-2.68,.04-1.62-1.13-2.87-2.72-2.9Z"/><path class="cls-1" d="M56.46,66.38c-5.55,0-10.06-4.46-10.04-9.97,.01-5.51,4.51-9.99,10.04-10,5.41-.01,9.92,4.49,9.93,9.92,.01,5.59-4.38,10.04-9.93,10.05Zm7.73-10.13c-.13-4.37-3.68-7.73-8.05-7.61-4.24,.11-7.62,3.76-7.49,8.1,.12,4.13,3.8,7.61,7.89,7.45,4.4-.17,7.79-3.67,7.66-7.93Z"/><path class="cls-1" d="M12.38,22.37c0-5.57,4.4-9.98,9.98-9.99,5.48,0,10.01,4.49,9.99,9.94-.02,5.53-4.55,10.06-10.02,10.03-5.51-.03-9.95-4.48-9.95-9.98Zm10.21-7.79c-4.15-.24-7.72,3.1-8.01,7.48-.27,4.05,3.16,7.83,7.28,8.05,4.3,.23,8.04-3.08,8.26-7.32,.23-4.38-3.05-7.95-7.53-8.21Z"/></g></svg>