<?xml version="1.0" encoding="UTF-8"?><svg id="_лой_2" xmlns="http://www.w3.org/2000/svg" viewBox="0 0 64 63.25"><defs><style>.cls-1{fill:#bc2539;}</style></defs><g id="_лой_1-2"><g><path class="cls-1" d="M40.04,54.82h.08v-.07h-.08v.07Z"/><path class="cls-1" d="M28.6,54.75h-.08v.07h.08v-.07Z"/><path class="cls-1" d="M48.68,37.47v.08h.08l-.08-.08Z"/><path class="cls-1" d="M31.48,57.62h-.07v.08h.08v-.08Z"/><path class="cls-1" d="M34.28,57.62v.08h.08v-.08h-.08Z"/><path class="cls-1" d="M62.81,45.97c1.26-2.81-.88-2.64-3.42-3.1,1.16-1.17,1.86-1.79,2.46-2.5,.58-.68,1.06-1.45,2.15-2.97-3.01,.4-4.4-.07-3.45-2.61l2.38-.32v-2.69h-5.53c-.05,.81-.1,1.63-.15,2.58-.85,.16-1.66,.31-2.64,.49-.08,1.69-.15,3.36-.24,5.28h-5.48c-.07-.83-.14-1.71-.21-2.59-.81-.05-1.62-.09-2.57-.15-.16-.84-.3-1.63-.49-2.62-.86-.06-1.74-.13-2.62-.19-.06-.89-.13-1.78-.21-2.88h-8.43v-2.57c.9-.17,1.7-.32,2.8-.53v-5.46h-2.81c-.04,.82-.09,1.64-.14,2.64h-5.48c-.07-.89-.14-1.76-.21-2.64-.94-.02-1.87-.05-2.81-.07v-2.81h2.67c.08,1.02,.14,1.91,.21,2.8h5.69v-2.6c-1.13-.2-1.92-.34-2.95-.52V11.62h-2.74c-.04,.82-.08,1.66-.12,2.68-.96,.07-1.86,.13-2.75,.19l-.08,5.69c-.93,0-1.87,0-2.8,0-.04-.81-.08-1.62-.13-2.56-.83-.16-1.63-.32-2.62-.52-.06-.84-.13-1.72-.2-2.6-.83-.04-1.66-.08-2.68-.12-.07-.96-.13-1.85-.2-2.75H8.7c-.24,1.03-.44,1.9-.88,3.85-1.34-1.45-2.16-2.34-2.97-3.22l.43-.51c-.81-.11-1.62-.22-2.66-.37V.25H0V63.25H63.14c-.09-.98-.16-1.77-.26-2.81h-8.25c-.07-1.08-.13-1.91-.19-2.73h-2.54c-.23,1-.43,1.87-.61,2.62h-11.26v-5.51h-2.54c-.19,.89-.35,1.67-.56,2.68-.83,.06-1.71,.13-2.58,.2-.04,.81-.09,1.63-.14,2.65-.84,.06-1.62,.12-2.61,.19-.07-1.06-.14-1.95-.2-2.84-.82-.05-1.64-.09-2.68-.15-.07-.95-.14-1.84-.2-2.72-.94-.02-1.87-.05-2.81-.07-.06-.89-.13-1.78-.2-2.74-1.04-.06-1.86-.1-2.68-.14v-2.8h5.68c.03,1.89,.06,3.79,.08,5.68,.82,.04,1.65,.08,2.68,.13,.07,.95,.13,1.85,.19,2.74h2.81v-5.5h5.62c.07,.86,.14,1.74,.22,2.62,.82,.05,1.65,.1,2.53,.16,.25,.95,.47,1.82,.66,2.55h5.45v-8.26h2.65c.15,.95,.27,1.75,.4,2.58h11.15v-2.54c-.96-.17-1.77-.31-2.45-.43-1.03-2.7,.94-2.64,2.3-2.83Zm-25.31-11.31h5.43v1.78c-1.44,1.23-2.46,2.1-3.49,2.98l.46,.92h-5.53v-2.8c.88-.07,1.76-.13,2.59-.19,.21-1.02,.37-1.8,.55-2.68ZM14.07,14.4v2.77c-.71,.04-1.59,.36-1.91,.06-.56-.53-.77-1.43-1.3-2.51,1.29-.13,2.09-.21,3.2-.32Zm.06,5.87v2.8c-.88,.06-1.76,.13-2.6,.19-.19,1-.35,1.79-.52,2.69h-2.55c0-1.89,0-3.78,0-5.67,1.77,0,3.55,0,5.67,0ZM5.73,28.82c-.06-.89-.11-1.67-.19-2.8h2.83v2.8h-2.64Zm5.52,23.04h-2.64c-.06-.91-.12-1.69-.2-2.8h2.84c0,.93,0,1.87,0,2.8Zm0-5.76H5.87c-.63-1.85-.55-3,1.78-2.85,1.19,.08,2.39,.04,3.59,.05,0,.93,0,1.87,0,2.8ZM2.86,17.49h5.51v2.7H2.86v-2.7Zm0,17.16c.86,0,1.75,0,2.63,0v2.47c-2.32,.84-3.18,.2-2.63-2.47Zm-.05,25.67c-.05-.76-.09-1.48-.16-2.68h5.64c0,.82,0,1.65,0,2.68H2.81Zm5.57-2.75c.05-.81,.1-1.62,.16-2.76,.96,0,1.83,0,2.71,0v2.76c-1.02,0-1.94,0-2.87,0Zm8.92,.12c.82,0,1.71,0,2.59,0v2.49c-2.27,.78-3.24,.27-2.59-2.49Zm8.34-2.88v5.2c-2.89,1.67-2.72-.69-3.09-2.23-.94-.06-1.76-.12-2.58-.17,0-1.89,0-3.78,0-5.67h2.81c.07,.89,.13,1.77,.2,2.72,1.04,.06,1.86,.11,2.67,.16Zm-3.05-11.62c-.21-.2-.43-.4-.64-.61-.91,1.01-1.82,2.02-3.15,3.5-.04,0-.85,.17-1.51,.3-1.07,2.77,.97,2.63,2.59,2.85v2.62c-.81,.04-1.63,.08-2.58,.13-.16,.84-.31,1.64-.52,2.74h-5.46c0-.93,0-1.86,0-2.79,.89-.06,1.78-.12,2.83-.2-.06-1-.11-1.8-.17-2.76h-2.66c0-.94,0-1.87,0-2.81,.89-.06,1.78-.12,2.83-.19-.07-.99-.12-1.79-.18-2.63-1.02-.05-1.84-.09-2.66-.12,0-.82,0-1.64,0-2.07,1.51-2.18,5.79,1.52,5.68-3.54H8.82c-.27-1.08-.48-1.95-.71-2.89-.9-.05-1.72-.1-2.54-.15,0-.81,0-1.63,0-2.57,.89-.16,1.69-.3,2.68-.48,.06-.86,.13-1.74,.19-2.62h2.87v5.56h2.9v-5.39c1.11-.2,1.92-.34,2.71-.48q.01-2.35-2.72-3.03v-2.42c1.75,0,3.5,0,5.38,0,.21-.96,.38-1.75,.63-2.88h2.55c.07,.88,.13,1.77,.2,2.71,1.04,.06,1.86,.11,2.67,.16v5.43c-.9,.18-1.69,.34-2.79,.56v5.45c.82,.05,1.65,.1,2.62,.16,.23,1.58,.22,3.52,2.89,2.5,.12-.71,.26-1.52,.41-2.42,.79-.11,1.53-.21,2.43-.33,.13-.76,.27-1.58,.46-2.69h2.63c0,1.89,0,3.79,0,5.68-.89,.06-1.79,.12-2.74,.19-.05,1.03-.09,1.86-.13,2.69-.89,.07-1.78,.14-2.88,.23v5.52h-2.91v-5.33c-2.83-1.3-2.78,.74-3.03,2.43Zm6.01,5.79c0-.93,0-1.87,0-2.8,.93,0,1.87,0,2.8,0v2.8c-1.07,0-1.94,0-2.8,0Zm2.88-2.89v-5.68c.93,0,1.87,0,2.8,0v5.69h-2.8Zm14.19,5.33q-2.44,.63-3.04-2.37h-8.26v-2.87c2.74,0,5.48,0,8.4,0,.17-1.83,.27-3.68,2.9-2.65v7.89Zm11.51-2.71c-2.54,1.1-2.79-.5-2.8-2.42-1.73-.1-3.5-.21-2.51-2.84h5.3v5.26Z"/><path class="cls-1" d="M48.76,25.94s-.05,0-.08,0v.08h.08v-.07Z"/><path class="cls-1" d="M57.35,31.76l-.03,.03h.07v-.08h-.07v.08l.02-.03Z"/><path class="cls-1" d="M57.35,11.41c-1.07,.08-1.95,.14-2.82,.21v11.53h-5.76v2.8c1.2,.02,2.41,.12,3.6,.02,2.09-.17,2.4,.86,1.85,2.94h-5.44v2.8h8.57c.07-.89,.15-1.78,.24-2.89h5.5c-.05-1.05-.09-1.84-.14-2.89h-5.51c-.12-5.02,4.13-1.45,5.76-3.84-.28-.39-.76-1.16-1.35-1.85-.6-.71-1.3-1.33-2.51-2.54,1.91-.28,2.73-.4,3.6-.53v-2.67c-2.13,.15-3.37-.38-2.34-2.82,1.78,.02,3.32-.32,2.16-2.88-1.65-.03-3.31-.27-2.2-2.69q2.56-.53,2.39-1.92c-1.55-1.63-2.55-2.67-3.99-4.18-.26,.2-1.44,.67-1.5,1.26-.23,2.28-1.49,1.67-2.9,1.41,.1-2.13-.47-3.35-2.83-2.22V5.61c.92,.16,1.73,.3,2.61,.45,.06,.95,.12,1.78,.17,2.6,.8,.05,1.61,.09,2.64,.15,.06,.83,.12,1.6,.19,2.59Z"/><path class="cls-1" d="M48.76,23.14v-.08h-.08v.08h.08Z"/><path class="cls-1" d="M54.52,8.67h-.08v.07h.08v-.07Z"/><path class="cls-1" d="M48.68,28.82v.08h.08v-.08h-.08Z"/><path class="cls-1" d="M48.68,28.82c0-.93,0-1.87,0-2.8-.81-.04-1.62-.09-2.65-.14-.06-.83-.11-1.61-.18-2.59,1.07-.08,1.95-.15,2.83-.21,.04-.82,.08-1.65,.13-2.63,1.65-.23,3.69-.25,2.37-3.08h-5.15c-.09-1.09-.16-1.97-.23-2.86h-2.81v14.32h5.68Z"/><path class="cls-1" d="M43,14.5v-.08h-.08v.08h.08Z"/><path class="cls-1" d="M19.96,14.42h-.08v.08h.08v-.08Z"/><path class="cls-1" d="M19.96,11.62v-.08h-.08v.08h.08Z"/><path class="cls-1" d="M25.65,14.42v.08h.07v-.08h-.07Z"/><path class="cls-1" d="M25.65,14.42c.05-.82,.09-1.64,.15-2.67,.95-.07,1.84-.14,2.72-.2v-2.54c-1-.24-1.87-.45-2.95-.71V.36c-2.72-1.06-2.79,.82-2.99,2.44-.97,.07-1.79,.12-2.61,.18v2.51c1,.26,1.87,.48,2.64,.68v5.29c-1,.06-1.83,.11-2.65,.16v2.8c1.9,0,3.79,0,5.69,0Z"/><path class="cls-1" d="M19.89,2.99h.08v-.08l-.08,.08Z"/><path class="cls-1" d="M28.6,23.06h-.07v.08h.08v-.08Z"/><path class="cls-1" d="M28.6,11.62v-.08h-.08v.08h.08Z"/><path class="cls-1" d="M34.32,23.1l-.04,.04h.07v-.08h-.07v.08l.04-.04Z"/><path class="cls-1" d="M16.93,2.92h.08l-.08-.08v.08Z"/><path class="cls-1" d="M8.37,2.99h.08v-.08l-.08,.08Z"/><path class="cls-1" d="M8.45,5.85v-.07h-.08l.08,.07Z"/><path class="cls-1" d="M13.9,.26c-2.72-.98-2.6,1.04-2.85,2.57-.96,.06-1.78,.11-2.59,.15v2.8c.88,.07,1.75,.14,2.13,.17,.75,1.19,1.14,2.05,1.77,2.68,.26,.26,1.03-.01,1.61-.04,.15-.99,.28-1.8,.39-2.54,.97-.2,1.77-.36,2.69-.55-.04-.95-.08-1.77-.12-2.59-.81,0-1.62,0-2.49,0-.21-1.04-.39-1.92-.54-2.65Z"/><path class="cls-1" d="M62.97,54.97h-8.46v2.66c2.81,0,5.63,0,8.46,0v-2.66Z"/><path class="cls-1" d="M54.52,57.63h-.08l.04,.04-.04-.04v.08h.08v-.08Z"/><path class="cls-1" d="M40.27,.3V5.77h2.64V0c-1.15,.13-1.94,.22-2.64,.3Z"/><path class="cls-1" d="M42.92,5.77v.08l.08-.08h-.08Z"/><path class="cls-1" d="M34.28,8.49V2.99c-.93,0-1.86,0-2.78,0v5.73c1.09-.09,1.88-.15,2.78-.23Z"/><path class="cls-1" d="M34.28,2.91v.08h.08l-.08-.08Z"/><path class="cls-1" d="M31.49,2.99v-.08l-.08,.08h.08Z"/><path class="cls-1" d="M43,5.85v2.72h5.75c-.07-.87-.14-1.75-.21-2.72h-5.54Z"/><path class="cls-1" d="M42.92,5.85h.08v-.08l-.08,.08Z"/><path class="cls-1" d="M34.51,11.62v5.67h2.65v-5.67h-2.65Z"/><path class="cls-1" d="M37.16,17.3v.08h.08v-.08h-.08Z"/><path class="cls-1" d="M37.24,23.06h-.08v.08h.08v-.08Z"/><path class="cls-1" d="M39.88,17.38h-2.64v5.68h2.64v-5.68Z"/><path class="cls-1" d="M48.8,8.61l.03-.04h-.08v.09h.08v-.08l-.03,.03Z"/><path class="cls-1" d="M54.45,11.54v.08h.08v-.08h-.08Z"/><path class="cls-1" d="M54.45,8.74c-1.87-.03-3.74-.05-5.61-.08-.02,.96-.04,1.92-.06,2.88h5.68c0-.93,0-1.87,0-2.8Z"/><path class="cls-1" d="M48.77,11.54h-.08v.08h.08v-.08Z"/><path class="cls-1" d="M5.88,2.91h2.49c0-.89,0-1.78,0-2.6-2.73-.63-3.29,.31-2.49,2.6Z"/><path class="cls-1" d="M8.37,2.99l.08-.08h-.08v.08Z"/><path class="cls-1" d="M19.89,2.99l.08-.08h-.08v.08Z"/><path class="cls-1" d="M17.14,.22c-.05,1.01-.09,1.82-.13,2.62,.96,.02,1.92,.04,2.88,.06,0-.87,0-1.75,0-2.82-1.11,.05-1.89,.09-2.75,.13Z"/><path class="cls-1" d="M17.01,2.92v-.07h-.08l.08,.07Z"/><path class="cls-1" d="M31.49,2.91h-.08v.08l.08-.08Z"/><path class="cls-1" d="M31.41,2.91c0-.88,0-1.76,0-2.63-2.7-.61-3.31,.31-2.51,2.63h2.51Z"/><path class="cls-1" d="M45.88,14.42h-.08v.08h.08v-.08Z"/><path class="cls-1" d="M48.68,11.62h-2.8v2.8h2.8v-2.8Z"/><path class="cls-1" d="M40.12,11.62v-.08h-.08v.08h.08Z"/><path class="cls-1" d="M42.93,14.42v-2.8h-2.8v2.8h2.8Z"/><path class="cls-1" d="M48.52,.22c-2.28-.49-3.17,.17-2.43,2.5,2.11,.62,3.06,.04,2.43-2.5Z"/><path class="cls-1" d="M40.05,8.71c-1.13,.08-1.91,.13-2.8,.19v2.64c.93,0,1.87,0,2.8,0v-2.83Z"/><path class="cls-1" d="M37.24,11.54h-.08v.08h.08v-.08Z"/><path class="cls-1" d="M19.88,8.71c-1.14,.08-1.92,.13-2.8,.19v2.65c.93,0,1.87,0,2.8,0v-2.83Z"/><path class="cls-1" d="M17.08,11.54h-.08v.08h.08v-.08Z"/><path class="cls-1" d="M8.45,5.85l-.08-.08v.08h.08Z"/><path class="cls-1" d="M8.37,8.34v-2.49c-.88,0-1.77,0-2.6,0-.63,2.76,.34,3.28,2.6,2.49Z"/><path class="cls-1" d="M34.36,.4V2.91c.89,0,1.78,0,2.62,0,.62-2.8-.4-3.26-2.62-2.51Z"/><path class="cls-1" d="M34.28,2.91l.08,.08v-.08h-.08Z"/><path class="cls-1" d="M22.77,37.14v-2.48c-.89,0-1.78,0-2.61,0-.63,2.72,.31,3.28,2.61,2.48Z"/><path class="cls-1" d="M22.77,34.65h.08l-.04-.04,.04,.04v-.08h-.08v.08Z"/><path class="cls-1" d="M48.68,37.47l.08,.08v-.08h-.08Z"/><path class="cls-1" d="M48.76,34.93v2.54c.88,0,1.75,0,2.6,0,.67-2.83-.42-3.24-2.6-2.54Z"/></g></g></svg>