<?xml version="1.0" encoding="UTF-8"?><svg id="_лой_2" xmlns="http://www.w3.org/2000/svg" viewBox="0 0 76.75 82.01"><defs><style>.cls-1{fill:#bc2539;}</style></defs><g id="_лой_1-2"><g><path class="cls-1" d="M75.86,29.11c-1.22-.83-2.51-1.57-3.66-2.48-1.85-1.47-3.82-2.35-6.22-1.95-.61,.1-.75-.2-.74-.78,.03-2,.06-4.01-.02-6-.02-.58-.27-1.29-.66-1.7-4.96-5.21-9.95-10.39-14.96-15.55-.34-.35-.95-.56-1.45-.61-1.01-.09-2.04-.03-3.06-.03C34.78,.02,24.46,.04,14.14,.01c-3.87,0-6.88,2.21-7.77,5.61-.07,.26-.48,.47-.77,.62-1.05,.57-2.23,.97-3.15,1.7C.57,9.45,0,11.59,0,13.98c.02,20.02,.01,40.04,.01,60.06,0,.35,0,.69,.03,1.04,.19,2.67,1.47,4.65,3.77,5.87,.97,.52,2.1,.72,3.16,1.06H52.23c.09-.04,.18-.12,.28-.13,3.28-.46,5.44-2.26,6.41-5.52,.07-.24,.38-.52,.63-.57,3.24-.69,5.79-3.68,5.74-7.73-.11-10.3-.04-20.61-.04-30.91v-1.16c1.11,0,2.11,.06,3.09-.02,.57-.05,1.2-.19,1.68-.49,1.96-1.23,3.88-2.53,5.8-3.82,1.22-.81,1.23-1.74,.03-2.55ZM50.02,5.13c0-.07,.04-.14,.12-.38,3.58,3.75,7.1,7.43,10.73,11.24-.37,.04-.54,.07-.71,.07-2.72,0-5.44,.01-8.16,0-1.23,0-1.96-.66-1.97-1.88-.04-3.01-.01-6.03,0-9.04Zm2.67,74.18c-.52,.08-1.04,.12-1.56,.12-14.35,0-28.7,0-43.04,0-2.02,0-3.8-.56-4.89-2.43-.36-.62-.46-1.39-.65-2.1-.06-.23-.02-.48-.02-.72,0-20.15,0-40.31,0-60.46,0-2.39,1.16-4.15,3.2-4.88,.09-.03,.2-.04,.47-.1v1.19c0,19.41,.04,38.81-.03,58.22-.01,3.85,2.42,6.88,5.77,7.61,.81,.18,1.66,.25,2.49,.25,13.61,.01,27.23,.01,40.84,.01h1.02c-.2,1.55-1.82,3.01-3.59,3.28Zm10.09-10.92c0,2.86-1.8,4.81-4.62,5.03-.39,.03-.78,.05-1.18,.05-14.17,0-28.34,0-42.51,0-1.24,0-2.47-.08-3.55-.79-1.5-.98-2.27-2.37-2.27-4.21,.01-7.72,0-15.43,0-23.15,0-12.47,0-24.94,0-37.41,0-2.7,1.33-4.55,3.71-5.15,.6-.15,1.24-.19,1.87-.19,10.76-.01,21.53,0,32.29-.02,.77,0,1.03,.17,1.02,1.01-.05,3.42-.02,6.84-.02,10.25,0,3.04,1.66,4.77,4.65,4.8,3.17,.02,6.34,0,9.51,0,.33,0,.67,.03,1.04,.05v6.02h-1.09c-13.38,0-26.77,0-40.15,0-.97,0-1.78,.12-2.05,1.27-.03,.14-.4,.29-.62,.29-.94,0-1.88-.06-2.83-.08-1.21-.02-1.69,.45-1.7,1.66,0,1.74,.02,3.47,.05,5.21,.02,.99,.45,1.44,1.46,1.48,.97,.04,1.94,.02,2.91,0,.43,0,.73,.04,.85,.58,.17,.71,.77,.89,1.41,.9,.83,.02,1.66,0,2.56,0,0,.59,0,1.09,0,1.6,0,2.16,1,3.21,3.1,3.21,4.79,0,9.59,0,14.38,0,.29,0,.58,0,.86-.05,.73-.16,1.12-.67,1.04-1.36-.09-.72-.52-1.09-1.22-1.11-.81-.02-1.62-.02-2.44-.02-4.06,0-8.12,0-12.18,0-1.03,0-1.02,0-1.02-1.05,0-.37,0-.74,0-1.16H62.74c.01,.29,.04,.57,.04,.85,0,10.49,0,20.99,0,31.48ZM19.39,28.82v3.04h-2.52v-3.04h2.52Zm48.26,3.54q0,1.1-1.05,1.1c-6.99,0-13.98,0-20.97,0h-.79c-7.28,0-14.56,0-21.84,0q-1.02,0-1.03-1.05c0-1.52,.01-3.04,0-4.56,0-.47,.14-.71,.63-.65,.16,.02,.31,0,.47,0,14.51,0,29.01,0,43.52,0q1.06,0,1.06,1.08c0,1.36,0,2.72,0,4.08Zm2.53,0v-3.95c1.01,.67,1.93,1.28,2.99,1.97l-2.99,1.98Z"/><path class="cls-1" d="M15.4,50.85c-.66,.18-1.07,.59-1.01,1.32,.06,.71,.47,1.1,1.18,1.15,.29,.02,.58,.01,.86,.01,5.91,0,11.83,0,17.74,0s11.88,0,17.82,0c.31,0,.63,.02,.94-.03,.61-.11,.97-.5,1-1.14,.05-.88-.52-1.35-1.64-1.35-12.09,0-24.18,0-36.27,0-.21,0-.43-.01-.62,.04Z"/><path class="cls-1" d="M52.95,63.77c-.33-.05-.68-.05-1.02-.05-5.91,0-11.83,0-17.74,0s-11.88,0-17.82,0c-.34,0-.75-.09-1,.07-.38,.24-.79,.61-.94,1.01-.2,.55,.13,1.06,.67,1.28,.33,.13,.71,.17,1.07,.17,12.01,0,24.03,0,36.04,0,.33,0,.69-.04,1-.15,.56-.21,.79-.67,.73-1.27-.06-.6-.39-.98-.98-1.07Z"/><path class="cls-1" d="M52.16,57.24c-11.99,0-23.97,0-35.96,0-.31,0-.63,.03-.93,.11-.61,.16-.92,.6-.89,1.24,.03,.63,.37,1.04,1,1.14,.36,.06,.73,.06,1.09,.06,5.89,0,11.78,0,17.66,0s11.83,0,17.74,0c.36,0,.74,0,1.09-.07,.66-.13,.97-.57,.95-1.25-.02-.83-.59-1.23-1.77-1.23Z"/><path class="cls-1" d="M15.41,46.86c.25,.06,.52,.04,.78,.04,6.72,0,13.44,0,20.17,0,.31,0,.64,0,.93-.08,.6-.18,.92-.65,.87-1.26-.05-.64-.43-1.08-1.1-1.15-.26-.03-.52-.02-.78-.02-3.32,0-6.64,0-9.97,0s-6.7,0-10.04,0c-.24,0-.47,0-.71,.01-.7,.06-1.12,.45-1.17,1.16-.05,.73,.36,1.15,1.02,1.31Z"/></g></g></svg>