<?xml version="1.0" encoding="UTF-8"?>
<!DOCTYPE svg PUBLIC "-//W3C//DTD SVG 1.1//EN" "http://www.w3.org/Graphics/SVG/1.1/DTD/svg11.dtd">
<!-- Creator: CorelDRAW 2021.5 -->
<svg xmlns="http://www.w3.org/2000/svg" xml:space="preserve" width="20.3049mm" height="21.7012mm" version="1.1" style="shape-rendering:geometricPrecision; text-rendering:geometricPrecision; image-rendering:optimizeQuality; fill-rule:evenodd; clip-rule:evenodd"
viewBox="0 0 2030.3 2169.92"
 xmlns:xlink="http://www.w3.org/1999/xlink"
 xmlns:xodm="http://www.corel.com/coreldraw/odm/2003">
 <defs>
  <style type="text/css">
   <![CDATA[
    .fil0 {fill:#FEFEFE;fill-rule:nonzero}
   ]]>
  </style>
 </defs>
 <g id="Слой_x0020_1">
  <metadata id="CorelCorpID_0Corel-Layer"/>
  <g id="_лой_1-2">
   <g>
    <path class="fil0" d="M2006.94 770.4c-32.28,-21.96 -66.4,-41.54 -96.83,-65.61 -48.95,-38.89 -101.06,-62.17 -164.55,-51.59 -16.14,2.65 -19.84,-5.29 -19.58,-20.64 0.79,-52.92 1.59,-106.09 -0.53,-158.74 -0.53,-15.35 -7.14,-34.13 -17.46,-44.98 -131.22,-137.84 -263.24,-274.87 -395.78,-411.39 -9,-9.26 -25.14,-14.82 -38.36,-16.14 -26.72,-2.38 -53.97,-0.79 -80.95,-0.79 -272.76,0.27 -545.79,0.79 -818.81,0 -102.38,0 -182.01,58.46 -205.56,148.42 -1.85,6.88 -12.7,12.44 -20.37,16.4 -27.78,15.08 -58.99,25.66 -83.33,44.98 -49.75,39.96 -64.82,96.57 -64.82,159.8 0.53,529.65 0.26,1059.29 0.26,1588.94 0,9.26 0,18.26 0.79,27.52 5.03,70.63 38.89,123.02 99.74,155.3 25.66,13.76 55.55,19.05 83.6,28.05l1197.4 -0.01c2.38,-1.06 4.76,-3.18 7.41,-3.44 86.77,-12.17 143.92,-59.79 169.58,-146.04 1.85,-6.35 10.05,-13.76 16.67,-15.08 85.72,-18.26 153.18,-97.36 151.86,-204.5 -2.91,-272.49 -1.06,-545.26 -1.06,-817.75l0 -30.69c29.37,0 55.82,1.59 81.75,-0.53 15.08,-1.32 31.75,-5.03 44.45,-12.96 51.86,-32.54 102.65,-66.93 153.45,-101.06 32.28,-21.43 32.54,-46.04 0.79,-67.46l0.26 0zm-683.62 -634.41c0,-1.85 1.06,-3.7 3.18,-10.05 94.71,99.21 187.83,196.57 283.87,297.36 -9.79,1.06 -14.29,1.85 -18.79,1.85 -71.96,0 -143.92,0.26 -215.88,0 -32.54,0 -51.86,-17.46 -52.12,-49.74 -1.06,-79.63 -0.26,-159.53 0,-239.16l-0.27 -0.27zm70.63 1962.5c-13.76,2.12 -27.52,3.18 -41.28,3.18 -379.64,0 -759.28,0 -1138.66,0 -53.44,0 -100.53,-14.82 -129.37,-64.28 -9.53,-16.4 -12.17,-36.78 -17.2,-55.55 -1.59,-6.09 -0.53,-12.7 -0.53,-19.05 0,-533.09 0,-1066.44 0,-1599.52 0,-63.23 30.69,-109.79 84.66,-129.11 2.38,-0.79 5.29,-1.06 12.44,-2.65l0 31.49c0,513.51 1.06,1026.75 -0.79,1540.26 -0.26,101.85 64.02,182.01 152.65,201.33 21.43,4.76 43.92,6.61 65.87,6.61 360.07,0.26 720.39,0.26 1080.46,0.26l26.99 0c-5.29,41.01 -48.15,79.63 -94.98,86.77l-0.26 0.27zm266.95 -288.9c0,75.66 -47.63,127.25 -122.23,133.08 -10.32,0.79 -20.64,1.32 -31.22,1.32 -374.87,0 -749.76,0 -1124.63,0 -32.81,0 -65.34,-2.12 -93.92,-20.9 -39.69,-25.93 -60.05,-62.7 -60.05,-111.38 0.26,-204.24 0,-408.21 0,-612.45 0,-329.91 0,-659.81 0,-989.72 0,-71.43 35.19,-120.38 98.15,-136.25 15.88,-3.97 32.81,-5.03 49.48,-5.03 284.66,-0.26 569.6,0 854.26,-0.53 20.37,0 27.25,4.5 26.99,26.72 -1.32,90.48 -0.53,180.96 -0.53,271.17 0,80.42 43.92,126.2 123.02,126.99 83.86,0.53 167.73,0 251.6,0 8.73,0 17.73,0.79 27.52,1.32l0 159.27 -28.85 0.01c-353.98,0 -708.22,0 -1062.2,0 -25.66,0 -47.1,3.18 -54.23,33.6 -0.79,3.7 -10.58,7.67 -16.4,7.67 -24.87,0 -49.74,-1.59 -74.87,-2.12 -32.01,-0.53 -44.71,11.91 -44.98,43.92 0,46.04 0.53,91.8 1.32,137.84 0.53,26.19 11.91,38.1 38.63,39.16 25.66,1.06 51.33,0.53 76.98,0 11.38,0 19.31,1.06 22.49,15.35 4.5,18.79 20.37,23.55 37.31,23.81 21.96,0.53 43.92,0 67.72,0 0,15.61 0,28.84 0,42.33 0,57.14 26.46,84.92 82.01,84.92 126.73,0 253.72,0 380.43,0 7.67,0 15.35,0 22.75,-1.32 19.31,-4.23 29.63,-17.73 27.52,-35.98 -2.38,-19.05 -13.76,-28.84 -32.28,-29.37 -21.43,-0.53 -42.86,-0.53 -64.55,-0.53 -107.41,0 -214.82,0 -322.23,0 -27.25,0 -26.99,0 -26.99,-27.78 0,-9.79 0,-19.58 0,-30.69l970.94 0c0.26,7.67 1.06,15.08 1.06,22.49 0,277.52 0,555.31 0,832.83l0 0.26zm-1147.92 -1046.85l0 80.42 -66.67 0 0 -80.42 66.67 0zm1276.76 93.65c0,19.4 -9.26,29.1 -27.78,29.1 -184.92,0 -369.86,0 -554.78,0l-20.91 0c-192.6,0 -385.19,0 -577.8,0 -17.99,0 -27.07,-9.26 -27.25,-27.78 0,-40.22 0.26,-80.42 0,-120.64 0,-12.44 3.7,-18.79 16.67,-17.2 4.23,0.53 8.2,0 12.44,0 383.87,0 767.49,0 1151.36,0 18.69,0 28.04,9.53 28.04,28.58 0,35.98 0,71.96 0,107.94zm66.93 0l0 -104.5c26.72,17.73 51.06,33.87 79.1,52.12l-79.1 52.39z"/>
    <path class="fil0" d="M407.42 1345.54c-17.46,4.76 -28.31,15.61 -26.72,34.93 1.59,18.79 12.44,29.1 31.22,30.43 7.67,0.53 15.35,0.26 22.75,0.26 156.36,0 312.97,0 469.33,0 156.36,0 314.3,0 471.45,0 8.2,0 16.67,0.53 24.87,-0.79 16.14,-2.91 25.66,-13.23 26.46,-30.16 1.32,-23.28 -13.76,-35.72 -43.39,-35.72 -319.85,0 -639.7,0 -959.55,0 -5.56,0 -11.38,-0.26 -16.4,1.06l-0.01 -0.01z"/>
    <path class="fil0" d="M1400.84 1687.35c-8.73,-1.32 -17.99,-1.32 -26.99,-1.32 -156.36,0 -312.97,0 -469.33,0 -156.36,0 -314.3,0 -471.45,0 -9,0 -19.84,-2.38 -26.46,1.85 -10.05,6.35 -20.9,16.14 -24.87,26.72 -5.29,14.55 3.44,28.05 17.73,33.87 8.73,3.44 18.79,4.5 28.31,4.5 317.73,0 635.73,0 953.47,0 8.73,0 18.26,-1.06 26.46,-3.97 14.82,-5.56 20.9,-17.73 19.31,-33.6 -1.59,-15.88 -10.32,-25.93 -25.93,-28.31l-0.26 0.26z"/>
    <path class="fil0" d="M1379.94 1514.6c-317.21,0 -634.15,0 -951.35,0 -8.2,0 -16.67,0.79 -24.61,2.91 -16.14,4.23 -24.34,15.88 -23.55,32.81 0.79,16.67 9.79,27.52 26.46,30.16 9.53,1.59 19.31,1.59 28.84,1.59 155.83,0 311.65,0 467.21,0 155.56,0 312.97,0 469.33,0 9.53,0 19.58,0 28.84,-1.85 17.46,-3.44 25.66,-15.08 25.14,-33.07 -0.53,-21.96 -15.61,-32.54 -46.83,-32.54l0.53 -0.01z"/>
    <path class="fil0" d="M407.68 1239.98c6.61,1.59 13.76,1.06 20.64,1.06 177.78,0 355.57,0 533.61,0 8.2,0 16.93,0 24.61,-2.12 15.88,-4.76 24.34,-17.2 23.02,-33.34 -1.32,-16.93 -11.38,-28.58 -29.1,-30.43 -6.88,-0.79 -13.76,-0.53 -20.64,-0.53 -87.83,0 -175.66,0 -263.77,0 -88.1,0 -177.25,0 -265.62,0 -6.35,0 -12.44,0 -18.79,0.26 -18.52,1.59 -29.63,11.91 -30.96,30.69 -1.32,19.31 9.53,30.43 26.99,34.66l0 -0.25z"/>
   </g>
  </g>
 </g>
</svg>
