<?xml version="1.0" encoding="UTF-8"?>
<!DOCTYPE svg PUBLIC "-//W3C//DTD SVG 1.1//EN" "http://www.w3.org/Graphics/SVG/1.1/DTD/svg11.dtd">
<!-- Creator: CorelDRAW 2021.5 -->
<svg xmlns="http://www.w3.org/2000/svg" xml:space="preserve" width="21.3808mm" height="17.6895mm" version="1.1" style="shape-rendering:geometricPrecision; text-rendering:geometricPrecision; image-rendering:optimizeQuality; fill-rule:evenodd; clip-rule:evenodd"
viewBox="0 0 2138.68 1769.45"
 xmlns:xlink="http://www.w3.org/1999/xlink"
 xmlns:xodm="http://www.corel.com/coreldraw/odm/2003">
 <defs>
  <style type="text/css">
   <![CDATA[
    .fil0 {fill:#FEFEFE;fill-rule:nonzero}
   ]]>
  </style>
 </defs>
 <g id="Слой_x0020_1">
  <metadata id="CorelCorpID_0Corel-Layer"/>
  <g id="_лой_1-2">
   <path class="fil0" d="M2138.39 1644.88c-1.59,3.97 -3.44,7.67 -4.5,11.64 -15.35,65.9 -65.64,111.42 -132.86,111.95 -157.47,1.59 -314.68,0.79 -472.15,0.53 -22.24,0 -34.41,-11.91 -34.14,-30.97 0.26,-19.32 12.96,-29.64 37.32,-29.64 151.12,0 302.23,0 453.36,0 60.87,0 90.78,-30.17 91.05,-91.05 0,-67.22 4.76,-61.67 -62.46,-61.67 -220.72,0 -441.45,0 -662.18,-0.26 -18.53,0 -27.79,4.23 -34.14,23.29 -25.67,77.54 -34.41,82.83 -116.98,82.83 -96.07,0 -192.14,0 -288.21,0 -49.75,0 -69.08,-13.76 -85.48,-59.82 -10.76,-30.52 -32.64,-45.77 -65.64,-45.77 -214.37,0 -429.01,0 -643.38,0 -60.87,0 -57.7,-3.18 -57.17,58.23 0,6.35 0,12.44 0,18.8 1.59,40.49 34.41,73.57 74.9,75.43 8.47,0.26 16.67,0 25.15,0 401.22,0 802.18,0 1203.4,0 33.61,0 47.11,8.73 47.11,30.44 0,21.71 -13.76,30.17 -47.37,30.17 -402.54,0 -805.09,0 -1207.63,0 -99.51,0 -156.14,-57.17 -156.14,-157.2 0,-12.44 -0.53,-25.15 0,-37.58 2.38,-44.2 34.94,-76.48 79.13,-79.13 5.56,-0.26 10.85,-0.79 19.32,-1.32 0,-10.32 0,-19.85 0,-29.38 0,-230.51 0,-461.03 0,-691.55 0,-7.67 0,-15.35 0,-23.03 1.06,-19.06 12.96,-31.5 29.11,-31.5 16.14,0 28.59,12.7 29.38,31.5 0.26,6.88 0,14.02 0,20.91 0,231.85 0,463.68 0,695.79l0 27.53 1822.68 -0.02 0 -25.67c0,-349.61 0,-699.23 0,-1048.83 0,-33.88 -4.23,-37.85 -38.9,-37.85 -96.87,0 -193.73,0 -290.33,0l-24.09 0c-23.29,104.01 -95.54,173.88 -168.33,246.93 10.85,9.79 20.91,18.27 30.17,27.53 42.61,42.34 83.36,86.54 110.1,141.06 12.44,25.67 22.24,54.52 25.41,82.83 5.82,51.6 -21.18,89.72 -69.87,108.51 -44.99,17.2 -91.84,16.67 -138.15,10.05 -45.25,-6.61 -89.99,-17.73 -134.45,-28.59 -14.82,-3.7 -18.27,0 -22.76,13.49 -18.27,55.32 -36.26,110.89 -59.02,164.36 -10.85,25.41 -29.64,49.22 -49.22,69.34 -50.28,51.6 -113.01,50.55 -164.09,0 -36.52,-35.99 -58.76,-80.98 -75.69,-128.36 -12.44,-34.67 -22.76,-70.13 -32.02,-105.6 -3.7,-14.55 -8.47,-17.2 -22.76,-12.96 -68.28,20.38 -137.36,35.73 -209.35,30.97 -18,-1.32 -35.99,-3.97 -53.19,-9.26 -63.26,-19.06 -92.63,-72.52 -77.28,-136.83 10.32,-43.67 32.55,-81.51 60.35,-115.65 25.94,-31.76 54.26,-61.4 82.31,-91.58 6.09,-6.61 14.29,-11.11 22.5,-17.2 -73.84,-74.37 -146.09,-143.71 -169.91,-248.51l-20.14 0c-99.51,0 -199.29,0 -298.79,0 -28.59,0 -34.41,5.56 -34.41,33.88 0,62.73 0.79,125.45 -0.79,187.9 -0.26,10.05 -9,23.56 -18,28.85 -6.88,3.97 -21.44,0.26 -29.64,-4.76 -6.09,-3.7 -9.79,-15.35 -9.79,-23.56 -0.79,-68.81 -1.32,-137.89 0,-206.7 1.06,-45.52 36.52,-76.22 84.95,-76.22 104.54,-0.26 208.82,-0.26 313.36,0 14.82,0 24.62,-2.91 34.41,-16.4 25.94,-36.26 65.64,-47.64 107.72,-50.81 73.31,-5.82 144.24,8.73 213.58,29.91 17.73,5.29 22.76,1.06 26.47,-15.61 14.55,-64.05 34.41,-126.25 69.34,-182.35 11.64,-18.8 25.67,-36.79 41.55,-51.87 48.43,-46.05 107.72,-45.78 156.67,0 39.17,36.52 61.93,83.63 79.66,132.86 12.17,33.88 22.5,68.81 31.5,103.48 3.97,15.08 8.2,18.8 23.82,14.02 64.05,-19.32 129.16,-33.88 196.91,-31.23 53.19,1.85 102.42,12.17 134.18,61.67 3.18,4.76 14.55,6.09 22.24,6.09 102.95,0.26 206.17,0 309.12,0.26 62.99,0 93.96,30.7 93.96,93.43 0,348.82 0,697.91 0,1046.72l0 32.55c11.64,1.06 21.18,1.32 30.44,2.91 37.05,6.61 56.38,32.29 69.08,64.84l0 83.63 -0.29 -0.79zm-902.22 -1017.88c0,-25.67 1.32,-51.6 -0.79,-77.28 -0.79,-9.26 -6.88,-21.71 -14.55,-26.47 -45.52,-28.06 -92.11,-54.52 -138.95,-80.45 -6.88,-3.7 -19.32,-3.97 -26.2,0 -46.84,25.67 -93.16,52.4 -138.95,80.45 -7.67,4.76 -14.82,16.93 -15.08,25.94 -1.32,52.13 -1.32,104.28 0,156.41 0,8.47 6.61,20.38 13.76,24.88 46.31,28.32 93.16,55.32 140.8,81.25 6.88,3.7 19.32,3.18 26.2,-0.53 46.84,-25.94 93.16,-52.4 138.95,-80.45 7.14,-4.5 13.49,-15.88 14.02,-24.62 1.85,-26.2 0.53,-52.93 0.79,-79.13zm-512.37 -40.76c39.43,-28.85 77.81,-56.64 115.39,-85.22 4.5,-3.44 6.35,-12.17 7.14,-18.53 5.03,-39.17 9.26,-78.6 14.29,-117.77 1.59,-11.91 -1.85,-18 -14.02,-20.38 -41.29,-9 -82.04,-22.24 -123.86,-27 -36.79,-3.97 -74.9,-1.85 -111.42,4.23 -32.55,5.29 -43.67,29.11 -36.79,61.14 1.85,8.73 4.23,17.73 7.67,25.94 31.76,71.46 85.48,125.45 141.86,177.85l-0.26 -0.26zm-34.4 359.41c51.07,-11.64 103.48,-23.56 156.41,-35.2 11.38,-2.38 16.67,-7.14 15.08,-19.85 -5.29,-39.96 -9.26,-79.92 -14.82,-119.89 -1.06,-7.41 -5.29,-16.14 -11.11,-20.65 -32.29,-25.15 -65.64,-48.96 -98.19,-74.1 -9,-6.88 -15.35,-7.41 -22.76,1.32 -33.88,38.64 -70.4,75.16 -101.37,116.18 -17.46,23.03 -28.85,52.13 -37.85,80.19 -9.26,28.85 2.65,49.75 31.76,58.23 25.67,7.41 52.93,9.26 82.83,14.02l0.01 -0.26zm760.62 0.26c29.91,-5.29 58.23,-7.67 85.22,-15.88 25.67,-7.67 35.73,-28.59 28.85,-54.79 -5.82,-21.18 -11.91,-44.2 -24.88,-61.14 -36.79,-47.64 -77.54,-92.37 -116.45,-138.42 -8.73,-10.32 -15.08,-4.23 -22.76,1.59 -30.44,23.03 -61.67,45.25 -91.31,69.34 -8.2,6.61 -15.08,18 -16.67,28.06 -6.09,37.58 -9.26,75.96 -14.29,113.8 -1.85,12.7 1.85,19.06 14.82,21.97 52.66,11.64 105.33,23.56 158,35.46l-0.54 0.01zm-32.29 -357.29c35.99,-42.08 74.37,-82.31 106.92,-126.78 18.27,-25.15 29.38,-56.38 39.7,-86.01 6.88,-20.12 -2.65,-38.9 -22.5,-48.69 -12.17,-5.82 -25.94,-10.32 -39.43,-11.91 -74.37,-9 -144.77,9.53 -214.9,30.7 -4.76,1.32 -10.05,12.44 -9.53,18.53 3.44,38.64 8.47,77.28 13.49,115.92 1.06,7.14 2.65,16.67 7.41,20.38 37.32,28.85 75.69,56.38 118.56,87.86l0.27 0.01zm-211.73 -280.8c-17.73,-75.69 -37.58,-150.06 -84.69,-213.58 -5.82,-7.67 -12.96,-14.82 -20.38,-20.91 -22.24,-18 -42.61,-18.8 -63.78,0 -13.23,11.91 -25.41,25.94 -34.67,41.29 -34.67,55.58 -52.66,117.51 -68.02,180.5 -2.65,11.38 1.85,15.88 11.64,19.85 37.32,15.35 74.1,31.76 111.42,47.11 6.35,2.65 15.08,3.18 21.18,0.79 41.55,-17.46 82.83,-35.73 127.3,-55.32l0 0.26zm-138.15 890.31c13.49,-7.14 25.15,-10.85 33.61,-18.27 11.38,-10.05 21.97,-21.71 30.17,-34.41 37.32,-57.43 56.11,-122 72.25,-187.64 3.18,-12.7 -3.97,-15.61 -12.7,-19.32 -35.73,-15.08 -71.19,-31.23 -107.45,-45.25 -8.47,-3.44 -20.38,-3.44 -28.85,0 -35.46,14.02 -69.87,30.7 -105.6,44.46 -14.29,5.56 -18.27,12.44 -13.76,26.2 13.76,42.08 24.62,85.75 42.08,126.25 12.96,30.17 33.08,57.7 52.93,83.89 8.47,11.11 24.62,16.14 37.58,24.09l-0.26 0zm193.99 358.87l-387.99 0c12.44,17.2 4.23,45.25 34.67,45.25 106.92,0 214.11,0.53 321.03,-0.53 7.67,0 17.46,-8.73 22.5,-15.88 5.29,-7.41 6.35,-17.73 9.79,-28.59l0 -0.25zm-342.47 -1188.04l-10.85 87.33 92.11 -53.73 -81.25 -33.61zm298.53 0.26l-81.25 33.35 93.16 53.19 -11.64 -86.54 -0.26 0zm-309.92 429.28l11.64 87.07 80.98 -33.88 -92.63 -53.19zm310.18 87.07l11.11 -87.07 -92.37 53.73 80.98 33.35 0.27 0zm148.74 -258.31l-67.22 -51.34 0 103.22 67.22 -51.87zm-528.79 51.61l0 -102.95 -66.7 51.34c8.2,6.88 14.55,12.17 20.91,17.2 14.02,10.85 28.32,21.44 45.78,34.67l0.01 -0.27z"/>
   <path class="fil0" d="M291.87 1255.3c0,25.15 -0.26,47.9 0,70.66 0,15.08 12.17,10.58 20.12,10.58 76.48,0.26 153.23,0 229.72,0 74.37,0 149,0 224.96,0l0 -81.51c-23.82,0 -47.37,0 -70.66,0 -24.88,0 -39.7,-11.64 -40.23,-30.17 -0.26,-18.53 14.55,-30.44 39.43,-30.44 25.67,0 51.6,0 77.28,0 34.94,0.26 55.85,20.65 56.64,55.58 0.53,29.11 0.26,58.49 0,87.6 -0.53,38.9 -20.65,59.29 -59.55,59.29 -100.31,0.26 -200.61,0 -300.91,0 -57.7,0 -115.65,0 -173.35,0 -43.93,0 -62.46,-18.27 -62.73,-61.67 0,-29.91 -0.53,-59.82 0,-89.72 0.79,-30.7 20.91,-51.07 51.34,-51.34 84.95,-0.53 169.91,-0.26 254.86,0 21.18,0 35.46,12.96 35.2,30.44 -0.26,17.2 -14.55,29.91 -35.99,29.91 -73.05,0.26 -146.35,0 -219.4,0 -8.2,0 -16.4,0 -27.26,0l0.52 0.79z"/>
   <path class="fil0" d="M1494.74 1302.94c8.73,-15.08 15.08,-25.67 21.18,-36.52 35.46,-63.78 70.93,-127.57 106.13,-191.61 7.41,-13.49 16.14,-24.35 33.61,-23.03 16.67,1.32 23.29,12.96 29.11,26.2 18.53,41.81 37.58,83.63 55.58,125.72 5.03,12.17 11.91,16.93 24.88,16.14 17.2,-1.06 34.67,-0.79 52.13,0 19.32,0.53 31.5,11.91 32.29,28.59 0.79,17.73 -11.11,30.97 -31.23,31.76 -29.11,1.06 -58.49,0.53 -87.6,0 -16.67,0 -26.47,-9.79 -32.82,-24.62 -14.82,-34.14 -30.17,-68.02 -47.37,-106.66 -6.09,10.05 -10.05,16.14 -13.49,22.5 -36.79,66.17 -72.78,132.86 -110.89,198.5 -6.61,11.11 -19.59,22.76 -31.76,25.41 -16.93,3.7 -25.67,-12.44 -32.82,-26.47 -13.76,-27 -28.32,-53.47 -44.72,-83.89 -19.59,30.97 -37.58,57.96 -53.73,86.01 -11.11,19.06 -25.41,27.26 -47.64,26.47 -34.67,-1.06 -69.61,0 -104.28,-0.53 -23.82,0 -37.05,-11.38 -37.05,-30.17 0,-19.06 12.96,-30.17 36.79,-30.44 29.11,0 58.49,0.79 87.6,-0.53 7.94,-0.53 18.27,-6.09 22.76,-12.7 23.56,-35.2 45.52,-71.72 68.28,-107.45 19.06,-29.64 43.4,-28.85 60.35,2.12 14.55,26.73 28.59,53.73 45.25,84.95l-0.52 0.26z"/>
   <path class="fil0" d="M366.77 1077.71c33.35,0 66.7,0 100.04,0 23.29,0 37.05,11.91 37.05,30.17 0,18.27 -14.02,30.17 -37.32,30.44 -65.37,0.26 -130.48,0 -195.84,0 -25.15,0 -38.11,-11.38 -37.58,-31.5 0.53,-19.32 12.96,-28.85 37.85,-29.11 32.02,0 63.78,0 95.81,0z"/>
   <path class="fil0" d="M318.6 1661.55c-28.59,0 -57.17,0.26 -85.75,0 -21.18,-0.26 -32.82,-11.38 -32.82,-29.64 0,-18.27 11.38,-28.85 33.08,-29.11 56.38,-0.26 112.74,-0.26 169.12,0 20.38,0 31.23,10.58 31.5,28.32 0.53,18.27 -11.11,29.64 -32.02,30.17 -27.79,0.53 -55.58,0 -83.63,0l0.53 0.26z"/>
   <path class="fil0" d="M1820.8 1603.06c27.79,0 55.85,-0.26 83.63,0 21.44,0.26 32.82,11.11 32.82,29.38 0,18 -11.91,29.11 -33.08,29.11 -56.38,0.26 -112.74,0.26 -169.12,0 -20.12,0 -31.23,-10.85 -31.5,-28.32 -0.53,-18.53 10.85,-29.64 32.02,-29.91 28.59,-0.53 57.17,0 85.75,0l-0.53 -0.26z"/>
   <path class="fil0" d="M1835.36 981.91c-2.38,20.12 -8.73,35.99 -31.23,35.46 -22.24,-0.26 -28.59,-16.14 -30.44,-35.73 -19.32,-3.44 -37.58,-8.73 -36.79,-33.35 0.79,-22.5 17.73,-27.53 35.2,-30.7 2.91,-8.2 3.18,-18.27 8.47,-23.03 7.67,-6.61 19.85,-14.02 28.06,-12.17 9.26,2.12 16.4,13.76 24.35,21.71 4.5,4.76 7.67,12.96 12.96,14.55 16.67,5.03 27.79,14.29 26.73,32.02 -1.06,17.46 -12.44,27 -30.17,28.85 -2.12,0 -3.97,1.06 -7.14,2.12l0 0.27z"/>
   <path class="fil0" d="M1773.69 498.91c1.85,-20.91 8.2,-36.26 30.7,-36.26 22.5,0 28.85,15.35 30.7,35.46 5.03,1.06 10.85,0.53 13.76,3.18 8.73,8.47 20.38,17.2 23.29,28.06 3.44,13.23 -5.82,25.67 -20.65,28.85 -11.64,2.38 -15.35,8.47 -19.85,19.32 -3.97,9.26 -18,20.65 -26.73,19.85 -10.05,-0.79 -19.59,-13.23 -28.59,-21.44 -4.23,-3.97 -5.82,-13.49 -10.32,-14.55 -18.27,-4.76 -30.7,-13.49 -28.85,-34.14 1.85,-21.18 17.73,-25.94 36.52,-28.06l0.01 -0.26z"/>
   <path class="fil0" d="M1773.69 708.52c1.85,-20.12 8.2,-35.99 30.17,-36.26 22.5,-0.53 29.11,15.08 31.23,35.46 4.5,1.06 9,1.85 13.23,3.18 15.08,4.23 26.47,15.08 23.56,29.64 -2.12,10.58 -14.02,19.59 -22.5,28.59 -4.23,4.5 -14.02,6.09 -14.82,10.32 -3.44,18.27 -12.7,29.11 -31.76,29.11 -16.14,0 -24.62,-10.58 -29.64,-35.46 -18.8,-3.97 -38.37,-9.26 -36.26,-35.2 1.59,-21.18 17.2,-26.47 36.79,-28.85l0 -0.53z"/>
   <path class="fil0" d="M315.16 808.56c-17.46,0 -34.67,0.53 -52.13,0 -17.46,-0.79 -28.85,-9.53 -29.91,-28.06 -1.06,-18.53 9.53,-30.17 26.73,-30.97 36.79,-1.59 73.57,-1.59 110.36,0 17.46,0.79 28.32,13.23 27.26,30.97 -1.06,17.46 -11.91,27.79 -30.17,28.32 -17.46,0.53 -34.67,0 -52.13,0l0 -0.26z"/>
   <path class="fil0" d="M313.84 567.72c-17.46,0 -34.67,0.79 -52.13,0 -19.59,-1.32 -29.91,-12.96 -28.85,-30.97 1.32,-18.27 12.17,-27.53 29.91,-27.53 34.67,-0.26 69.34,0 104.01,0 18.27,0 28.32,10.58 30.44,27.79 1.85,16.14 -10.85,29.64 -29.64,30.7 -18,1.06 -35.99,0 -54.26,0l0.52 0.01z"/>
   <path class="fil0" d="M313.58 687.61c-17.46,0 -34.67,0.53 -52.13,0 -18,-0.79 -28.06,-10.85 -28.32,-29.11 0,-17.2 9.26,-28.32 26.2,-28.85 36.79,-1.06 73.57,-1.06 110.36,0 17.2,0.53 29.64,14.29 27.79,29.91 -1.85,17.2 -11.38,28.06 -30.17,28.06 -18,0 -35.99,0 -54.26,0l0.53 -0.01z"/>
   <path class="fil0" d="M1069.97 521.41c58.49,0.26 106.39,48.69 105.86,106.66 -0.53,59.29 -49.22,106.13 -109.3,105.6 -57.17,-0.53 -104.54,-48.43 -104.81,-105.86 -0.26,-59.02 48.16,-106.66 108.24,-106.39l0.01 -0.01zm-1.59 151.91c25.94,0 46.84,-20.12 46.84,-45.52 0,-25.41 -20.65,-46.31 -46.05,-46.58 -25.41,0 -46.84,20.38 -47.11,45.78 0,25.41 20.38,46.05 46.05,46.31l0.27 0.01z"/>
  </g>
 </g>
</svg>
