<?xml version="1.0" encoding="UTF-8"?><svg id="_лой_2" xmlns="http://www.w3.org/2000/svg" viewBox="0 0 80.81 66.87"><defs><style>.cls-1{fill:#bc2539;}</style></defs><g id="_лой_1-2"><path class="cls-1" d="M80.81,62.16c-.06,.15-.13,.29-.17,.44-.58,2.49-2.48,4.21-5.02,4.23-5.95,.06-11.89,.03-17.84,.02-.84,0-1.3-.45-1.29-1.17,.01-.73,.49-1.12,1.41-1.12,5.71,0,11.42,0,17.13,0,2.3,0,3.43-1.14,3.44-3.44,0-2.54,.18-2.33-2.36-2.33-8.34,0-16.68,0-25.02-.01-.7,0-1.05,.16-1.29,.88-.97,2.93-1.3,3.13-4.42,3.13-3.63,0-7.26,0-10.89,0-1.88,0-2.61-.52-3.23-2.26q-.61-1.73-2.48-1.73c-8.1,0-16.21,0-24.31,0-2.3,0-2.18-.12-2.16,2.2,0,.24,0,.47,0,.71,.06,1.53,1.3,2.78,2.83,2.85,.32,.01,.63,0,.95,0,15.16,0,30.31,0,45.47,0,1.27,0,1.78,.33,1.78,1.15,0,.82-.52,1.14-1.79,1.14-15.21,0-30.42,0-45.63,0-3.76,0-5.9-2.16-5.9-5.94,0-.47-.02-.95,0-1.42,.09-1.67,1.32-2.89,2.99-2.99,.21-.01,.41-.03,.73-.05,0-.39,0-.75,0-1.11,0-8.71,0-17.42,0-26.13,0-.29,0-.58,0-.87,.04-.72,.49-1.19,1.1-1.19,.61,0,1.08,.48,1.11,1.19,.01,.26,0,.53,0,.79,0,8.76,0,17.52,0,26.29v1.04H74.82v-.97c0-13.21,0-26.42,0-39.63,0-1.28-.16-1.43-1.47-1.43-3.66,0-7.32,0-10.97,0h-.91c-.88,3.93-3.61,6.57-6.36,9.33,.41,.37,.79,.69,1.14,1.04,1.61,1.6,3.15,3.27,4.16,5.33,.47,.97,.84,2.06,.96,3.13,.22,1.95-.8,3.39-2.64,4.1-1.7,.65-3.47,.63-5.22,.38-1.71-.25-3.4-.67-5.08-1.08-.56-.14-.69,0-.86,.51-.69,2.09-1.37,4.19-2.23,6.21-.41,.96-1.12,1.86-1.86,2.62-1.9,1.95-4.27,1.91-6.2,0-1.38-1.36-2.22-3.06-2.86-4.85-.47-1.31-.86-2.65-1.21-3.99-.14-.55-.32-.65-.86-.49-2.58,.77-5.19,1.35-7.91,1.17-.68-.05-1.36-.15-2.01-.35-2.39-.72-3.5-2.74-2.92-5.17,.39-1.65,1.23-3.08,2.28-4.37,.98-1.2,2.05-2.32,3.11-3.46,.23-.25,.54-.42,.85-.65-2.79-2.81-5.52-5.43-6.42-9.39h-.76c-3.76,0-7.53,0-11.29,0-1.08,0-1.3,.21-1.3,1.28,0,2.37,.03,4.74-.03,7.1-.01,.38-.34,.89-.68,1.09-.26,.15-.81,.01-1.12-.18-.23-.14-.37-.58-.37-.89-.03-2.6-.05-5.21,0-7.81,.04-1.72,1.38-2.88,3.21-2.88,3.95-.01,7.89-.01,11.84,0,.56,0,.93-.11,1.3-.62,.98-1.37,2.48-1.8,4.07-1.92,2.77-.22,5.45,.33,8.07,1.13,.67,.2,.86,.04,1-.59,.55-2.42,1.3-4.77,2.62-6.89,.44-.71,.97-1.39,1.57-1.96,1.83-1.74,4.07-1.73,5.92,0,1.48,1.38,2.34,3.16,3.01,5.02,.46,1.28,.85,2.6,1.19,3.91,.15,.57,.31,.71,.9,.53,2.42-.73,4.88-1.28,7.44-1.18,2.01,.07,3.87,.46,5.07,2.33,.12,.18,.55,.23,.84,.23,3.89,.01,7.79,0,11.68,.01,2.38,0,3.55,1.16,3.55,3.53,0,13.18,0,26.37,0,39.55v1.23c.44,.04,.8,.05,1.15,.11,1.4,.25,2.13,1.22,2.61,2.45v3.16ZM46.72,23.7c0-.97,.05-1.95-.03-2.92-.03-.35-.26-.82-.55-1-1.72-1.06-3.48-2.06-5.25-3.04-.26-.14-.73-.15-.99,0-1.77,.97-3.52,1.98-5.25,3.04-.29,.18-.56,.64-.57,.98-.05,1.97-.05,3.94,0,5.91,0,.32,.25,.77,.52,.94,1.75,1.07,3.52,2.09,5.32,3.07,.26,.14,.73,.12,.99-.02,1.77-.98,3.52-1.98,5.25-3.04,.27-.17,.51-.6,.53-.93,.07-.99,.02-2,.03-2.99Zm-19.36-1.54c1.49-1.09,2.94-2.14,4.36-3.22,.17-.13,.24-.46,.27-.7,.19-1.48,.35-2.97,.54-4.45,.06-.45-.07-.68-.53-.77-1.56-.34-3.1-.84-4.68-1.02-1.39-.15-2.83-.07-4.21,.16-1.23,.2-1.65,1.1-1.39,2.31,.07,.33,.16,.67,.29,.98,1.2,2.7,3.23,4.74,5.36,6.72Zm-1.3,13.58c1.93-.44,3.91-.89,5.91-1.33,.43-.09,.63-.27,.57-.75-.2-1.51-.35-3.02-.56-4.53-.04-.28-.2-.61-.42-.78-1.22-.95-2.48-1.85-3.71-2.8-.34-.26-.58-.28-.86,.05-1.28,1.46-2.66,2.84-3.83,4.39-.66,.87-1.09,1.97-1.43,3.03-.35,1.09,.1,1.88,1.2,2.2,.97,.28,2,.35,3.13,.53Zm28.74,.01c1.13-.2,2.2-.29,3.22-.6,.97-.29,1.35-1.08,1.09-2.07-.22-.8-.45-1.67-.94-2.31-1.39-1.8-2.93-3.49-4.4-5.23-.33-.39-.57-.16-.86,.06-1.15,.87-2.33,1.71-3.45,2.62-.31,.25-.57,.68-.63,1.06-.23,1.42-.35,2.87-.54,4.3-.07,.48,.07,.72,.56,.83,1.99,.44,3.98,.89,5.97,1.34Zm-1.22-13.5c1.36-1.59,2.81-3.11,4.04-4.79,.69-.95,1.11-2.13,1.5-3.25,.26-.76-.1-1.47-.85-1.84-.46-.22-.98-.39-1.49-.45-2.81-.34-5.47,.36-8.12,1.16-.18,.05-.38,.47-.36,.7,.13,1.46,.32,2.92,.51,4.38,.04,.27,.1,.63,.28,.77,1.41,1.09,2.86,2.13,4.48,3.32Zm-8-10.61c-.67-2.86-1.42-5.67-3.2-8.07-.22-.29-.49-.56-.77-.79-.84-.68-1.61-.71-2.41,0-.5,.45-.96,.98-1.31,1.56-1.31,2.1-1.99,4.44-2.57,6.82-.1,.43,.07,.6,.44,.75,1.41,.58,2.8,1.2,4.21,1.78,.24,.1,.57,.12,.8,.03,1.57-.66,3.13-1.35,4.81-2.09Zm-5.22,33.64c.51-.27,.95-.41,1.27-.69,.43-.38,.83-.82,1.14-1.3,1.41-2.17,2.12-4.61,2.73-7.09,.12-.48-.15-.59-.48-.73-1.35-.57-2.69-1.18-4.06-1.71-.32-.13-.77-.13-1.09,0-1.34,.53-2.64,1.16-3.99,1.68-.54,.21-.69,.47-.52,.99,.52,1.59,.93,3.24,1.59,4.77,.49,1.14,1.25,2.18,2,3.17,.32,.42,.93,.61,1.42,.91Zm7.33,13.56h-14.66c.47,.65,.16,1.71,1.31,1.71,4.04,0,8.09,.02,12.13-.02,.29,0,.66-.33,.85-.6,.2-.28,.24-.67,.37-1.08ZM34.75,13.95l-.41,3.3,3.48-2.03-3.07-1.27Zm11.28,.01l-3.07,1.26,3.52,2.01-.44-3.27Zm-11.71,16.22l.44,3.29,3.06-1.28-3.5-2.01Zm11.72,3.29l.42-3.29-3.49,2.03,3.06,1.26Zm5.62-9.76l-2.54-1.94v3.9l2.54-1.96Zm-19.98,1.95v-3.89l-2.52,1.94c.31,.26,.55,.46,.79,.65,.53,.41,1.07,.81,1.73,1.31Z"/><path class="cls-1" d="M11.04,47.44c0,.95-.01,1.81,0,2.67,0,.57,.46,.4,.76,.4,2.89,.01,5.79,0,8.68,0,2.81,0,5.63,0,8.5,0v-3.08c-.9,0-1.79,0-2.67,0-.94,0-1.5-.44-1.52-1.14-.01-.7,.55-1.15,1.49-1.15,.97,0,1.95,0,2.92,0,1.32,.01,2.11,.78,2.14,2.1,.02,1.1,.01,2.21,0,3.31-.02,1.47-.78,2.24-2.25,2.24-3.79,.01-7.58,0-11.37,0-2.18,0-4.37,0-6.55,0-1.66,0-2.36-.69-2.37-2.33,0-1.13-.02-2.26,0-3.39,.03-1.16,.79-1.93,1.94-1.94,3.21-.02,6.42-.01,9.63,0,.8,0,1.34,.49,1.33,1.15-.01,.65-.55,1.13-1.36,1.13-2.76,.01-5.53,0-8.29,0-.31,0-.62,0-1.03,0Z"/><path class="cls-1" d="M56.49,49.24c.33-.57,.57-.97,.8-1.38,1.34-2.41,2.68-4.82,4.01-7.24,.28-.51,.61-.92,1.27-.87,.63,.05,.88,.49,1.1,.99,.7,1.58,1.42,3.16,2.1,4.75,.19,.46,.45,.64,.94,.61,.65-.04,1.31-.03,1.97,0,.73,.02,1.19,.45,1.22,1.08,.03,.67-.42,1.17-1.18,1.2-1.1,.04-2.21,.02-3.31,0-.63,0-1-.37-1.24-.93-.56-1.29-1.14-2.57-1.79-4.03-.23,.38-.38,.61-.51,.85-1.39,2.5-2.75,5.02-4.19,7.5-.25,.42-.74,.86-1.2,.96-.64,.14-.97-.47-1.24-1-.52-1.02-1.07-2.02-1.69-3.17-.74,1.17-1.42,2.19-2.03,3.25-.42,.72-.96,1.03-1.8,1-1.31-.04-2.63,0-3.94-.02-.9,0-1.4-.43-1.4-1.14,0-.72,.49-1.14,1.39-1.15,1.1,0,2.21,.03,3.31-.02,.3-.02,.69-.23,.86-.48,.89-1.33,1.72-2.71,2.58-4.06,.72-1.12,1.64-1.09,2.28,.08,.55,1.01,1.08,2.03,1.71,3.21Z"/><path class="cls-1" d="M13.87,40.73c1.26,0,2.52,0,3.78,0,.88,0,1.4,.45,1.4,1.14,0,.69-.53,1.14-1.41,1.15-2.47,.01-4.93,0-7.4,0-.95,0-1.44-.43-1.42-1.19,.02-.73,.49-1.09,1.43-1.1,1.21,0,2.41,0,3.62,0Z"/><path class="cls-1" d="M12.05,62.79c-1.08,0-2.16,.01-3.24,0-.8-.01-1.24-.43-1.24-1.12,0-.69,.43-1.09,1.25-1.1,2.13-.01,4.26-.01,6.39,0,.77,0,1.18,.4,1.19,1.07,.02,.69-.42,1.12-1.21,1.14-1.05,.02-2.1,0-3.16,0Z"/><path class="cls-1" d="M68.81,60.58c1.05,0,2.11-.01,3.16,0,.81,.01,1.24,.42,1.24,1.11,0,.68-.45,1.1-1.25,1.1-2.13,.01-4.26,.01-6.39,0-.76,0-1.18-.41-1.19-1.07-.02-.7,.41-1.12,1.21-1.13,1.08-.02,2.16,0,3.24,0Z"/><path class="cls-1" d="M69.36,37.11c-.09,.76-.33,1.36-1.18,1.34-.84-.01-1.08-.61-1.15-1.35-.73-.13-1.42-.33-1.39-1.26,.03-.85,.67-1.04,1.33-1.16,.11-.31,.12-.69,.32-.87,.29-.25,.75-.53,1.06-.46,.35,.08,.62,.52,.92,.82,.17,.18,.29,.49,.49,.55,.63,.19,1.05,.54,1.01,1.21-.04,.66-.47,1.02-1.14,1.09-.08,0-.15,.04-.27,.08Z"/><path class="cls-1" d="M67.03,18.86c.07-.79,.31-1.37,1.16-1.37,.85,0,1.09,.58,1.16,1.34,.19,.04,.41,.02,.52,.12,.33,.32,.77,.65,.88,1.06,.13,.5-.22,.97-.78,1.09-.44,.09-.58,.32-.75,.73-.15,.35-.68,.78-1.01,.75-.38-.03-.74-.5-1.08-.81-.16-.15-.22-.51-.39-.55-.69-.18-1.16-.51-1.09-1.29,.07-.8,.67-.98,1.38-1.06Z"/><path class="cls-1" d="M67.03,26.78c.07-.76,.31-1.36,1.14-1.37,.85-.02,1.1,.57,1.18,1.34,.17,.04,.34,.07,.5,.12,.57,.16,1,.57,.89,1.12-.08,.4-.53,.74-.85,1.08-.16,.17-.53,.23-.56,.39-.13,.69-.48,1.1-1.2,1.1-.61,0-.93-.4-1.12-1.34-.71-.15-1.45-.35-1.37-1.33,.06-.8,.65-1,1.39-1.09Z"/><path class="cls-1" d="M11.92,30.56c-.66,0-1.31,.02-1.97,0-.66-.03-1.09-.36-1.13-1.06-.04-.7,.36-1.14,1.01-1.17,1.39-.06,2.78-.06,4.17,0,.66,.03,1.07,.5,1.03,1.17-.04,.66-.45,1.05-1.14,1.07-.66,.02-1.31,0-1.97,0Z"/><path class="cls-1" d="M11.87,21.46c-.66,0-1.31,.03-1.97,0-.74-.05-1.13-.49-1.09-1.17,.05-.69,.46-1.04,1.13-1.04,1.31-.01,2.62,0,3.93,0,.69,0,1.07,.4,1.15,1.05,.07,.61-.41,1.12-1.12,1.16-.68,.04-1.36,0-2.05,0Z"/><path class="cls-1" d="M11.86,25.99c-.66,0-1.31,.02-1.97,0-.68-.03-1.06-.41-1.07-1.1,0-.65,.35-1.07,.99-1.09,1.39-.04,2.78-.04,4.17,0,.65,.02,1.12,.54,1.05,1.13-.07,.65-.43,1.06-1.14,1.06-.68,0-1.36,0-2.05,0Z"/><path class="cls-1" d="M40.44,19.71c2.21,.01,4.02,1.84,4,4.03-.02,2.24-1.86,4.01-4.13,3.99-2.16-.02-3.95-1.83-3.96-4-.01-2.23,1.82-4.03,4.09-4.02Zm-.06,5.74c.98,0,1.77-.76,1.77-1.72,0-.96-.78-1.75-1.74-1.76-.96,0-1.77,.77-1.78,1.73,0,.96,.77,1.74,1.74,1.75Z"/></g></svg>