<svg xmlns="http://www.w3.org/2000/svg" width="25" height="23.406" viewBox="0 0 25 23.406">
    <path id="Контур_110" data-name="Контур 110" d="M2327,612.322a.418.418,0,0,0-.6-.436q-2.442.807-4.882,1.625c-.309.1-.392.284-.3.609.057.205.116.41.177.624h-2.812a5.011,5.011,0,0,0,.882-3.522,4.907,4.907,0,0,0-1.726-3.2,4.978,4.978,0,0,0-5.933-.389,4.873,4.873,0,0,0-2.2,3.246,5,5,0,0,0,.82,3.86h-2.809l.153-.515c.139-.461.065-.607-.389-.759l-4.637-1.542c-.526-.175-.736-.028-.736.521v8.645c0,.1,0,.191,0,.287a.4.4,0,0,0,.278.4q1.25.442,2.5.87a.4.4,0,0,0,.524-.256c.037-.088.061-.18.1-.308.095.086.166.147.233.212q3.918,3.739,7.836,7.478a1.31,1.31,0,0,0,2.237-.394c.007-.013.026-.021.039-.031l.015.074a3.451,3.451,0,0,0,.964-.187,4.011,4.011,0,0,0,.779-.712c1.091.151,1.657-.42,1.58-1.693a1.346,1.346,0,0,0,.879-1.233.35.35,0,0,1,.123-.186q1.655-1.586,3.313-3.165c.055-.052.115-.1.183-.154.03.089.051.155.074.22a.422.422,0,0,0,.62.313c.787-.269,1.572-.546,2.358-.816a.463.463,0,0,0,.357-.479Q2327,616.827,2327,612.322Zm-16.663-.489a4.166,4.166,0,1,1,4.119,4.174A4.17,4.17,0,0,1,2310.334,611.833Zm-5.691,9.889-1.8-.629v-8.254l4.059,1.353C2306.148,616.705,2305.4,619.2,2304.643,621.722Zm14.353,4.2c-.2.208-.476.187-.729-.066q-1.668-1.665-3.334-3.332a1.312,1.312,0,0,0-.212-.19.41.41,0,0,0-.569.564,1.262,1.262,0,0,0,.19.213l3.681,3.684a1.669,1.669,0,0,1,.178.189.462.462,0,0,1-.643.651,1.752,1.752,0,0,1-.19-.177l-3.683-3.683a1.518,1.518,0,0,0-.19-.176.412.412,0,0,0-.58.57,1.361,1.361,0,0,0,.175.191l3.277,3.278a1.669,1.669,0,0,1,.176.191.462.462,0,0,1-.642.646,1.844,1.844,0,0,1-.21-.194l-3.664-3.664a1.474,1.474,0,0,0-.211-.192.411.411,0,0,0-.574.567,1.226,1.226,0,0,0,.174.193q1.637,1.639,3.275,3.278a1.515,1.515,0,0,1,.176.191.457.457,0,0,1-.033.6.474.474,0,0,1-.595.083,1.152,1.152,0,0,1-.179-.149q-4.068-3.884-8.141-7.762a.485.485,0,0,1-.149-.581q.766-2.483,1.493-4.979a.319.319,0,0,1,.376-.273c1.1.011,2.205,0,3.307.012a.866.866,0,0,1,.419.141c.383.233.754.486,1.141.739-.538.673-1.1,1.36-1.641,2.056a1.339,1.339,0,0,0,.459,2.07,1.284,1.284,0,0,0,1.155,0c.359-.172.717-.349,1.069-.535a.223.223,0,0,1,.312.05q2.526,2.537,5.06,5.066C2319.176,625.443,2319.2,625.71,2319,625.918Zm4.2-4.631c-1.179,1.139-2.366,2.27-3.554,3.406l-5.1-5.1c.075-.042.151-.088.231-.128.635-.318,1.271-.634,1.905-.954.3-.15.4-.368.277-.6s-.348-.291-.646-.143q-2,1-4,2c-.07.035-.139.071-.211.1a.477.477,0,0,1-.586-.146.461.461,0,0,1-.023-.622q.9-1.147,1.821-2.276a.306.306,0,0,1,.248-.067,4.984,4.984,0,0,0,4.124-1.054.524.524,0,0,1,.3-.1c1.145-.007,2.291,0,3.436-.008.161,0,.241.035.291.205.512,1.737,1.037,3.469,1.549,5.206A.342.342,0,0,1,2323.2,621.287Zm2.728-.1c-.519.162-1.029.352-1.567.539l-2.259-7.529,4.053-1.35c.006.1.014.185.014.266,0,2.577,0,5.154.006,7.731A.3.3,0,0,1,2325.924,621.182Z" transform="translate(-2302 -606.837)" fill="#bd2539"/>
</svg>
