<svg xmlns="http://www.w3.org/2000/svg" width="25" height="24.996" viewBox="0 0 25 24.996">
    <g id="Сгруппировать_60" data-name="Сгруппировать 60" transform="translate(-2302 -345.331)">
        <g id="Сгруппировать_59" data-name="Сгруппировать 59">
            <path id="Контур_112" data-name="Контур 112" d="M2311.969,366.172a1.836,1.836,0,0,0-.315-.014c-2.278,0-4.556-.031-6.834.013a1.688,1.688,0,0,1-1.789-1.785c.027-2.889.006-5.779.006-8.668,0-1.519,0-3.038.006-4.556a1.449,1.449,0,0,1,1.081-1.564,13.811,13.811,0,0,1,2.046-.127c0,.232,0,.379,0,.525a1.567,1.567,0,0,0,1.551,1.591q3.147.021,6.3,0a1.567,1.567,0,0,0,1.531-1.581c0-.155,0-.31,0-.505h1.384a1.56,1.56,0,0,1,1.725,1.692c.009.97,0,1.94.008,2.91,0,.376.209.594.517.6.33,0,.528-.219.53-.612q0-1.5,0-3.006a2.546,2.546,0,0,0-.85-1.939,2.607,2.607,0,0,0-1.848-.691c-.48,0-.961,0-1.451,0-.006-.133-.012-.216-.013-.3-.006-.588-.157-.736-.756-.738-.452,0-.905,0-1.36,0-.024-.072-.04-.12-.057-.169a2.623,2.623,0,0,0-2.508-1.913,2.649,2.649,0,0,0-2.53,1.892.349.349,0,0,1-.256.181c-.442.019-.886,0-1.329.011a.524.524,0,0,0-.58.59c0,.135,0,.269,0,.445h-1.352a2.63,2.63,0,0,0-2.818,2.8q0,6.581,0,13.162a2.631,2.631,0,0,0,2.815,2.8q3.417,0,6.835,0a1.654,1.654,0,0,0,.315-.013.52.52,0,0,0,0-1.028Zm-4.478-17.727c.379.018.759.01,1.139.005.481-.006.612-.127.666-.6a1.538,1.538,0,0,1,1.137-1.4,1.453,1.453,0,0,1,1.612.507,2.046,2.046,0,0,1,.345.826c.1.569.185.669.774.675.411,0,.822,0,1.233.009.019,0,.037.016.1.043,0,.51.013,1.015,0,1.519-.012.352-.219.516-.62.518-1.022.006-2.044,0-3.067,0-.98,0-1.96,0-2.941,0-.475,0-.64-.18-.643-.656,0-.38.006-.759-.007-1.138C2307.2,348.532,2307.258,348.435,2307.491,348.445Z" fill="#bd2539"/>
            <path id="Контур_113" data-name="Контур 113" d="M2320.247,356.786a6.771,6.771,0,1,0,6.753,6.773A6.788,6.788,0,0,0,2320.247,356.786Zm-.034,12.5a5.729,5.729,0,1,1,5.749-5.731A5.738,5.738,0,0,1,2320.213,369.291Z" fill="#bd2539"/>
            <path id="Контур_114" data-name="Контур 114" d="M2307.986,353.667c-.738,0-1.475,0-2.213,0-.405,0-.654.208-.648.527s.246.5.636.506h10.175c.368,0,.569-.128.63-.4.083-.366-.173-.632-.617-.632Q2311.968,353.665,2307.986,353.667Z" fill="#bd2539"/>
            <path id="Контур_115" data-name="Контур 115" d="M2312.819,356.783h-5.474c-.538,0-1.075,0-1.613,0a.542.542,0,0,0-.6.507c0,.313.236.526.609.538.085,0,.169,0,.254,0h3.321v0c1.181,0,2.363,0,3.544,0,.4,0,.632-.233.6-.567C2313.421,356.958,2313.193,356.783,2312.819,356.783Z" fill="#bd2539"/>
            <path id="Контур_116" data-name="Контур 116" d="M2305.864,360.961h2.4c.844,0,1.688.016,2.53-.014a.714.714,0,0,0,.5-.3.55.55,0,0,0-.045-.515.753.753,0,0,0-.52-.21c-1.139-.019-2.277-.011-3.416-.011-.548,0-1.1-.005-1.644.007a.515.515,0,0,0-.545.5.54.54,0,0,0,.546.54C2305.737,360.964,2305.8,360.961,2305.864,360.961Z" fill="#bd2539"/>
            <path id="Контур_117" data-name="Контур 117" d="M2320.22,362a.52.52,0,0,0-.509.567q-.006,2.006,0,4.009c0,.381.21.628.512.632s.515-.23.518-.619c.005-.663,0-1.326,0-1.989s0-1.347,0-2.02A.514.514,0,0,0,2320.22,362Z" fill="#bd2539"/>
            <path id="Контур_118" data-name="Контур 118" d="M2320.227,360.957a.514.514,0,0,0,.511-.495.486.486,0,0,0-.49-.536.5.5,0,0,0-.534.5A.53.53,0,0,0,2320.227,360.957Z" fill="#bd2539"/>
        </g>
    </g>
</svg>
