<svg xmlns="http://www.w3.org/2000/svg" width="25" height="27.327" viewBox="0 0 25 27.327">
    <g id="Слой_1" transform="translate(-2302 -520.488)">
        <path id="Контур_109" data-name="Контур 109" d="M2304.845,546.35c0-.244.689-.583,1.109-.874,2.712-1.771,5.406-3.557,8.107-5.344.6-.478.8.033,2.332.963,1.1.664,7.574,4.616,7.763,5.427a6,6,0,0,1-.908.025c-3.586.169-13.059-.049-16.258.026-.5-.043-2.144.156-2.144-.223Zm16.564-7.234h2.648a.628.628,0,0,1,.626.626h0a.627.627,0,0,1-.626.626h-2.648a.627.627,0,0,1-.626-.626h0A.628.628,0,0,1,2321.409,539.116Zm0-2.189h2.649a.628.628,0,0,1,.626.626h0a.628.628,0,0,1-.626.626h-2.649a.628.628,0,0,1-.626-.626h0A.628.628,0,0,1,2321.41,536.927Zm-7.685-7.215a.786.786,0,0,1,1.552.172A.786.786,0,1,1,2313.725,529.712Zm.689,3.276c.369,0,.6-.1.679-.615.168-1.1.157-.293,1-1.245a1.953,1.953,0,0,0,.379-1.743,2,2,0,0,0-3.9.871,1.388,1.388,0,0,0,.323.8c.709.919.945.405,1.065,1.176.056.36.034.754.453.754Zm-2.672-5.69h2.5l3.275,0c.323.015.863.029.863.347v5.517c0,.2-.06.259-.259.259-1.32,0-6.618.119-7.5-.086a42.9,42.9,0,0,1-.086-5.087c0-.9.314-.948,1.207-.948Zm.517-1.465c0-1.626,1.632-2.2,3.28-1.729a1.1,1.1,0,0,1,.663.458,2,2,0,0,1,.453,1.529,24.989,24.989,0,0,1-4.31.087C2312.288,525.933,2312.259,526.03,2312.259,525.833Zm-1.207.258c-.745.174-1.724.212-1.724,1.724v5.259a1.641,1.641,0,0,0,.715,1.44,11.122,11.122,0,0,0,3.251.284c1.129,0,4.489.154,5.359-.158a1.629,1.629,0,0,0,1.02-1.738c0-1.31.183-5.171-.223-5.984a1.243,1.243,0,0,0-1.1-.711c-.572-.1-.206.165-.573-1.238-.145-.558-.108-.519-.363-.843a3.281,3.281,0,0,0-1.273-1.14,4.893,4.893,0,0,0-3.463.076,2.943,2.943,0,0,0-1.422,1.682,6.86,6.86,0,0,0-.2,1.347Zm4.644,12.991c.878-.448,7.957-5.251,8.714-5.753a6.316,6.316,0,0,0,.593-.442c.58-.417.877-.41.877.359,0,1.794.136,11.461-.086,12.414-.479-.01-.711-.3-1.363-.706-2.5-1.66-5.069-3.268-7.53-4.97-.8-.573-.429-.3-1.2-.9Zm-12.489,6.233V532.988c0-.826.965.148,1.483.413a11.409,11.409,0,0,1,1.247.823l.251.18.05.036,5,3.273c.446.264,1.875,1.162,2.257,1.363-3.011,2.077-6.194,4.043-9.25,6.074-.088.054-.086.045-.165.094-.175.106-.876.772-.876.072Zm2.242-22.931c0-.508.57-.775,1.034-.775h16.207a.823.823,0,0,1,.776.862v9.482c0,.584-.291.816-.862,1.121-2.376,1.272-5.7,3.736-8.018,5.259-1.14-.267-6.758-4.344-7.648-4.938-.48-.247-1.489-.821-1.489-1.355v-9.656ZM2302,546.264c0,.849.462,1.551,1.293,1.551h22.328a1.376,1.376,0,0,0,1.379-1.379V532.73c0-.795-.448-1.466-1.121-1.466-1.041,0-1.137.549-1.125-.6l-.014-8.607a1.91,1.91,0,0,0-1.878-1.57h-16.9a1.7,1.7,0,0,0-1.142.5,4.715,4.715,0,0,0-.338.438c-.5.812.181,8.276-.244,10.1-.427-.036-.369-.259-.949-.259a1.238,1.238,0,0,0-1.293,1.379v13.621Z" fill="#bd2539" fill-rule="evenodd"/>
    </g>
</svg>
