<svg id="Слой_1" data-name="Слой 1" xmlns="http://www.w3.org/2000/svg" viewBox="0 0 24.01 15.14"><defs><style>.cls-1{fill:none;stroke:#000;stroke-miterlimit:10;fill-rule:evenodd;}</style></defs><path class="cls-1" d="M11.31,13.64H13a.86.86,0,0,0,.64-.18,1,1,0,0,0,.19-.61s0-1.87.84-2.15,2,1.81,3.11,2.61a10.06,10.06,0,0,1,1.55,1.33h3.11s1.63-1,.86-2.28A10.21,10.21,0,0,0,21,9.68C19,7.87,19.3,8.16,21.65,5c1.43-1.91,2-3.07,1.82-3.57S22.25.64,22.25.64h-3.5a2,2,0,0,1-.46.57,1,1,0,0,0-.31.38,20.24,20.24,0,0,1-1.29,2.73C15.13,7,14.51,7.11,14.25,6.94c-.59-.38-.44-1.54-.44-2.36,0-2.57.39-3.64-.76-3.91A5.59,5.59,0,0,0,11.41.5a7.63,7.63,0,0,0-2.9.3c-.4.2-.71.63-.52.66A1.59,1.59,0,0,1,9,2a3.41,3.41,0,0,1,.35,1.59s.2,3-.48,3.4c-.48.26-1.12-.27-2.51-2.67a20.69,20.69,0,0,1-1.25-2.6,1.16,1.16,0,0,0-.29-.39c-.23-.16-.54.34-.54.34l-3.08,0a1.07,1.07,0,0,0-.65.22c-.15.18,0,.56,0,.56S3,8.22,5.83,11.14A7.61,7.61,0,0,0,11.31,13.64Z"/></svg>