<svg xmlns="http://www.w3.org/2000/svg" width="30" height="25.447" viewBox="0 0 30 25.447">
    <g id="Сгруппировать_57" data-name="Сгруппировать 57" transform="translate(-2302 -436.864)">
        <path id="Контур_103" data-name="Контур 103" d="M2324.642,454.1a.4.4,0,0,0-.6.022,2.764,2.764,0,0,0-.269.358l-.191-.21a3.574,3.574,0,0,0-3.432-1.185,3.631,3.631,0,1,0,4.2,2.735c-.115-.483-.13-.81.283-1.125A.378.378,0,0,0,2324.642,454.1Zm-2.461,4.992a2.786,2.786,0,1,1,.925-4.03c-.707.705-1.405,1.4-2.1,2.1-.048.048-.1.09-.176.155l-1.012-1.019a2.107,2.107,0,0,0-.211-.2.4.4,0,0,0-.578.028.373.373,0,0,0-.009.554c.508.527,1.024,1.048,1.552,1.555.2.192.4.152.64-.085.679-.675,1.354-1.354,2.031-2.03.075-.075.154-.145.234-.22A2.7,2.7,0,0,1,2322.181,459.094Z" fill="#bc2539"/>
        <path id="Контур_104" data-name="Контур 104" d="M2331.965,455.038a.758.758,0,0,0-.784-.655c-.254-.01-.508,0-.762,0H2329.3v-.423q0-5.84,0-11.68a1.5,1.5,0,0,0-.008-.293.391.391,0,0,0-.373-.351.377.377,0,0,0-.437.3,1.537,1.537,0,0,0-.029.378q0,5.84,0,11.681v.361h-1.138c0-.563.009-1.1,0-1.636a1.525,1.525,0,0,0-.891-1.44.627.627,0,0,1-.4-.714c.021-.86.007-1.721.006-2.582a5.18,5.18,0,0,0-10.357-.219c-.012,1.007-.009,2.015,0,3.022a.374.374,0,0,1-.26.416,1.619,1.619,0,0,0-1.034,1.562c-.007.43,0,.86,0,1.291,0,.1-.011.205-.017.3h-8.793c0-.4,0-.769,0-1.141,0-.333-.158-.528-.415-.536s-.431.195-.433.543c0,.378,0,.756,0,1.159-.556,0-1.073.023-1.587-.006a1.014,1.014,0,0,0-1.121.639v1.174a1.755,1.755,0,0,1,.065.222A3.086,3.086,0,0,0,2305,459c.595.018,1.191.009,1.787.009,2.412,0,4.825,0,7.237-.005.266,0,.36.071.348.346-.021.449-.017.9,0,1.349a1.622,1.622,0,0,0,1.488,1.58c1.318.04,2.637.023,3.955.02a.412.412,0,0,0,.308-.124.644.644,0,0,0,.1-.422c-.038-.2-.215-.279-.425-.279q-1.758,0-3.516,0c-.728,0-1.08-.315-1.083-1.039q-.016-3.785,0-7.571a.887.887,0,0,1,.993-.972q4.645,0,9.288,0a.89.89,0,0,1,1,.969q.011,3.786,0,7.572a.925.925,0,0,1-1.054,1.041c-1.172,0-2.343,0-3.515,0-.306,0-.5.167-.5.414a.426.426,0,0,0,.473.413c1.27,0,2.54.022,3.808-.013a1.641,1.641,0,0,0,1.614-1.675c.012-.45.011-.9,0-1.35,0-.191.063-.261.253-.258.479.006.958.006,1.436-.006a2.974,2.974,0,0,0,2.189-1.028A3.553,3.553,0,0,0,2331.965,455.038Zm-17.606,2.948c0,.066-.113.138-.185.191-.033.023-.095.005-.144.005q-4.395,0-8.789,0a2.268,2.268,0,0,1-2.337-1.89,6.038,6.038,0,0,1-.009-1.036h11.473C2314.368,456.188,2314.371,457.087,2314.359,457.986Zm8.874-6.959h-4.771a1.376,1.376,0,0,1-.02-.154c0-1.027-.019-2.054.01-3.08a2.39,2.39,0,0,1,4.775-.028C2323.258,448.839,2323.233,449.915,2323.233,451.027Zm1.94,0H2324.1c-.005-.111-.014-.215-.014-.318,0-.94.005-1.879,0-2.818a3.241,3.241,0,0,0-6.4-.725,3.546,3.546,0,0,0-.084.784c-.01.91,0,1.819-.005,2.729v.34h-1.074a1.333,1.333,0,0,1-.028-.207c.007-1.1-.018-2.192.032-3.286a4.335,4.335,0,0,1,8.6-.291,5.219,5.219,0,0,1,.057.877c.007.851,0,1.7,0,2.553C2325.189,450.782,2325.179,450.9,2325.173,451.029Zm3.734,7.147c-.458.02-.918.013-1.376,0a.287.287,0,0,1-.208-.19c-.014-.9-.009-1.8-.009-2.732h3.78A2.333,2.333,0,0,1,2328.907,458.176Z" fill="#bc2539"/>
        <path id="Контур_105" data-name="Контур 105" d="M2305.114,451.52a.408.408,0,0,0,.436-.389,2.061,2.061,0,0,0,.007-.323q0-5.78,0-11.56a1.441,1.441,0,0,1,1.552-1.556q9.9,0,19.8,0a1.44,1.44,0,0,1,1.535,1.544c0,.273-.012.548.01.821a.388.388,0,0,0,.392.395c.244.013.43-.119.431-.343a6.868,6.868,0,0,0-.094-1.6,2.186,2.186,0,0,0-2.277-1.644q-4.95,0-9.9,0-4.906,0-9.813,0a3.2,3.2,0,0,0-.726.057,2.256,2.256,0,0,0-1.761,2.263q0,5.868,0,11.736c0,.059,0,.118,0,.176A.408.408,0,0,0,2305.114,451.52Z" fill="#bc2539"/>
        <path id="Контур_106" data-name="Контур 106" d="M2310.882,439.4c0-.6-.172-.745-.762-.682a3.794,3.794,0,0,0-2.806,1.642,3.846,3.846,0,0,0-.717,2.827,3.906,3.906,0,0,0,4.169,3.373,3.951,3.951,0,0,0,3.584-3.7c.021-.457-.132-.619-.6-.62-.839,0-1.679,0-2.518,0h-.35Zm2.23,3.689h.313c.081,1.271-1.4,2.588-2.924,2.641a3.085,3.085,0,0,1-3.1-3.077,3.119,3.119,0,0,1,2.639-3.026v.759c0,.723,0,1.446,0,2.17,0,.389.141.531.526.532C2311.413,443.091,2312.263,443.089,2313.112,443.089Z" fill="#bc2539"/>
        <path id="Контур_107" data-name="Контур 107" d="M2313.9,448.27a.427.427,0,0,0,.45-.4.421.421,0,0,0-.46-.421c-1.152,0-2.3,0-3.453,0h0c-1.122,0-2.244,0-3.366,0-.226,0-.41.058-.484.29a.407.407,0,0,0,.436.536c.673.009,1.346,0,2.019,0h4.594C2313.724,448.272,2313.812,448.275,2313.9,448.27Z" fill="#bc2539"/>
        <path id="Контур_108" data-name="Контур 108" d="M2309.531,449.15c-.829,0-1.657,0-2.486,0-.3,0-.464.146-.471.4s.141.407.442.438a.852.852,0,0,0,.088,0c1.6,0,3.2,0,4.8,0,.365,0,.538-.156.53-.44s-.175-.4-.53-.4C2311.11,449.149,2310.321,449.15,2309.531,449.15Z" fill="#bc2539"/>
    </g>
</svg>
