<svg xmlns="http://www.w3.org/2000/svg" width="18.34" height="18.81" viewBox="0 0 18.34 18.81">
						<g id="Сгруппировать_6" data-name="Сгруппировать 6" transform="translate(-47.819 -90.274)">
							<g id="Сгруппировать_5" data-name="Сгруппировать 5">
								<path id="Контур_9" data-name="Контур 9" d="M56.989,90.274a6.607,6.607,0,0,0-6.6,6.6c0,4.181,2.571,12.177,6.6,12.177s6.6-8,6.6-12.177A6.606,6.606,0,0,0,56.989,90.274Zm0,17.166c-2.362,0-4.99-6.3-4.99-10.567a4.99,4.99,0,0,1,9.98,0C61.979,101.142,59.35,107.44,56.989,107.44Z" fill="#bc2539"/>
								<path id="Контур_10" data-name="Контур 10" d="M65.354,107h-3.82c-.445.637-.805,1-.805,1.442s.36.805.805.558h3.82c.445.247.805-.113.805-.558S65.8,107.641,65.354,107Z" fill="#bc2539"/>
								<path id="Контур_11" data-name="Контур 11" d="M52.444,107H48.623c-.444.637-.8,1-.8,1.442s.36.805.8.558h3.821c.444.247.805-.113.805-.558S52.888,107.641,52.444,107Z" fill="#bc2539"/>
								<path id="Контур_12" data-name="Контур 12" d="M56.989,94.369A2.635,2.635,0,1,0,59.623,97,2.638,2.638,0,0,0,56.989,94.369Zm0,3.66A1.025,1.025,0,1,1,58.014,97,1.026,1.026,0,0,1,56.989,98.029Z" fill="#bc2539"/>
							</g>
						</g>
					</svg>