<svg xmlns="http://www.w3.org/2000/svg" width="24" height="19" viewBox="0 0 24 19">
						<path id="Контур_8" data-name="Контур 8" d="M131.449,90H114.982a3.767,3.767,0,0,0-3.766,3.767v11.467A3.766,3.766,0,0,0,114.982,109h16.467a3.767,3.767,0,0,0,3.767-3.766V93.771A3.768,3.768,0,0,0,131.449,90Zm-.543,2-7.954,6.176L115,92Zm.579,15H114.947a1.731,1.731,0,0,1-1.731-1.731V93.806a1.688,1.688,0,0,1,.1-.542l9.268,7.08a1.046,1.046,0,0,0,1.268,0l9.269-7.081a1.668,1.668,0,0,1,.1.543v11.467A1.731,1.731,0,0,1,131.485,107Z" transform="translate(-111.216 -90.004)" fill="#bc2539"/>
					</svg>