<?xml version="1.0" encoding="UTF-8"?>
<!DOCTYPE svg PUBLIC "-//W3C//DTD SVG 1.1//EN" "http://www.w3.org/Graphics/SVG/1.1/DTD/svg11.dtd">
<!-- Creator: CorelDRAW 2021.5 -->
<svg xmlns="http://www.w3.org/2000/svg" xml:space="preserve" width="17.9233mm" height="21.8805mm" version="1.1" style="shape-rendering:geometricPrecision; text-rendering:geometricPrecision; image-rendering:optimizeQuality; fill-rule:evenodd; clip-rule:evenodd"
viewBox="0 0 1792.6 2188.38"
 xmlns:xlink="http://www.w3.org/1999/xlink"
 xmlns:xodm="http://www.corel.com/coreldraw/odm/2003">
 <defs>
  <style type="text/css">
   <![CDATA[
    .fil0 {fill:#FEFEFE;fill-rule:nonzero}
   ]]>
  </style>
 </defs>
 <g id="Слой_x0020_1">
  <metadata id="CorelCorpID_0Corel-Layer"/>
  <g id="_лой_1-2">
   <path class="fil0" d="M839.14 1976.95c2.91,0 5.82,0 8.73,0 97.11,0 194.23,0 291.35,0 83.09,0 150.57,52.66 170.69,133.37 1.32,5.29 3.44,6.88 9,6.61 5.56,-0.26 11.38,0.26 16.67,1.59 19.05,4.76 28.31,19.05 26.19,38.9 -2.12,17.46 -16.93,30.69 -35.2,30.96 -2.38,0 -4.76,0 -7.14,0 -344.8,0 -689.34,0 -1034.15,0 -5.56,0 -11.38,0 -16.67,-1.59 -15.08,-3.7 -25.4,-16.93 -26.46,-32.54 -0.79,-14.55 6.88,-26.99 21.43,-32.81 7.14,-2.91 14.82,-4.5 22.49,-5.03 5.29,-0.53 7.14,-2.38 8.47,-6.88 8.47,-29.37 22.75,-55.84 43.67,-78.33 33.88,-36.52 76.21,-53.99 125.7,-53.99 97.38,0 194.76,0 292.14,0l9.51 0.01 0 -70.92c-3.97,0 -7.41,0 -11.11,0 -40.23,1.32 -79.65,-5.03 -119.08,-12.7 -64.04,-12.7 -127.02,-28.58 -188.15,-52.13 -9.53,-3.7 -19.05,-7.94 -28.05,-12.96 -16.67,-9.53 -21.17,-19.84 -15.35,-38.11 6.35,-19.84 14.29,-38.9 21.96,-58.22 10.58,-25.93 21.17,-51.87 32.28,-77.53 2.91,-6.61 1.85,-9.79 -4.76,-13.49 -34.67,-19.05 -70.12,-36.79 -102.94,-58.75 -78.86,-52.66 -145.01,-118.55 -200.32,-195.56 -60.34,-84.41 -105.32,-175.71 -128.61,-277.32 -17.73,-79.39 -24.61,-159.57 -20.11,-240.55 5.56,-105.06 29.1,-205.88 76.47,-300.09 112.74,-224.66 290.29,-370.47 534.28,-433.72 75.42,-19.58 152.68,-25.14 230.22,-21.43 75.95,3.44 149.25,21.17 221.49,43.93 13.23,4.23 12.96,3.97 18.26,-8.73 15.88,-38.9 31.49,-77.8 47.64,-116.7 1.59,-3.97 3.7,-8.2 5.82,-11.91 10.05,-18.26 21.17,-24.08 41.02,-17.99 16.14,5.03 32.01,11.64 47.37,18.79 81.24,37.85 154.8,87.85 223.6,145.01 2.12,1.85 3.97,3.97 6.09,5.82 46.05,49.22 91.82,98.44 137.87,147.92 2.65,2.65 4.76,5.82 6.88,9 24.61,38.64 49.75,77 73.56,116.17 10.58,17.2 19.58,35.73 27.78,54.25 24.87,57.16 46.58,115.64 62.72,175.98 11.64,43.4 18.79,87.59 23.28,132.31 3.44,34.14 6.61,68.54 6.88,102.68 0.53,163.27 -37.05,317.55 -111.15,463.09 -31.75,62.19 -71.71,118.82 -115.11,173.33 -48.43,60.86 -106.12,111.94 -166.98,159.56 -103.47,80.71 -220.16,133.9 -346.39,167.78 -50.02,13.23 -100.3,23.81 -151.89,29.1 -18.26,1.85 -36.52,2.38 -54.51,3.18 -5.56,0 -7.14,1.85 -7.14,7.14 0.26,20.9 0,41.55 0,63.51l-0.29 0zm305.38 -1789.38c27.25,15.35 53.99,29.63 79.91,45.25 91.29,55.31 167.78,127.02 229.42,213.81 97.91,138.4 150.83,292.4 153.21,462.56 1.06,73.3 -9.53,145.28 -28.31,216.19 -13.76,52.13 -32.81,102.41 -57.42,150.04 -13.49,25.93 -28.05,51.34 -42.87,76.47 -21.96,36.79 -47.11,71.45 -78.06,101.62 -24.08,23.55 -49.22,46.05 -74.09,68.8 -16.14,14.82 -31.22,30.69 -48.43,43.67 -73.3,54.78 -154.8,93.67 -242.13,120.93 -52.66,16.4 -106.12,27.78 -161.15,31.22 -11.38,0.79 -22.75,1.32 -35.2,1.85l0 113.26c2.38,0 5.03,0 7.41,0 30.16,-2.91 60.6,-4.5 90.76,-8.73 91.82,-13.76 179.42,-41.55 263.3,-81.5 69.07,-32.81 132.31,-74.62 190.27,-124.37 14.82,-12.7 30.96,-23.81 44.72,-37.32 19.58,-19.31 37.85,-40.23 56.1,-60.86 148.98,-167.25 220.96,-364.38 228.37,-586.41 2.65,-78.06 -7.14,-155.07 -26.46,-230.48 -38.37,-148.98 -102.94,-284.47 -209.32,-397.73 -29.9,-32.01 -57.95,-66.42 -93.41,-92.88 -24.61,-18.26 -48.43,-38.11 -74.09,-54.25 -40.49,-25.4 -82.56,-48.43 -124.11,-72.24 -0.53,-0.26 -1.32,0 -2.65,-0.53l-44.99 101.62 -0.79 0.02zm-676.9 631.66c-1.06,2.12 -1.59,3.7 -2.12,5.03 -12.96,36.79 -25.93,73.56 -38.9,110.35 -5.03,14.29 -20.9,23.81 -35.99,21.7 -21.43,-2.91 -33.35,-17.46 -30.16,-39.43 2.38,-15.88 6.35,-31.49 11.38,-46.84 7.14,-21.96 16.4,-43.14 23.81,-65.1 5.03,-14.29 4.5,-14.82 -9.26,-20.9 -25.4,-10.85 -51.07,-20.9 -76.47,-31.22 -62.72,-25.93 -125.17,-51.6 -187.62,-77.8 -5.56,-2.38 -8.73,-1.85 -10.85,3.97 -3.97,10.85 -9,21.7 -11.91,32.81 -15.35,58.75 -24.87,118.29 -27.25,179.15 -2.12,52.93 1.32,105.59 11.38,157.71 10.05,52.4 25.93,103.21 46.05,152.68 3.7,9.53 3.7,9.26 13.23,6.61 38.37,-11.11 77.27,-20.11 116.97,-24.61 15.88,-1.85 31.49,-3.18 47.64,-4.76 0.53,-2.38 1.06,-4.76 1.32,-7.41 3.18,-29.1 5.82,-58.22 10.05,-87.06 2.38,-15.61 7.67,-30.69 12.96,-45.52 3.18,-8.73 10.32,-14.82 19.58,-17.99 26.19,-8.47 51.07,16.14 46.31,44.46 -6.09,35.99 -10.85,71.98 -15.88,107.97 0,0.79 0.26,1.85 0.53,2.65 3.97,0.53 7.41,1.32 11.11,1.85 45.52,5.56 91.03,10.85 136.28,17.2 29.63,4.23 58.75,11.11 86.53,22.49 5.29,2.12 10.58,4.76 17.2,7.67 44.46,-94.2 82.56,-190.53 120.93,-287.64l-287.11 -118.29 0.26 0.27zm500.67 632.98c1.85,2.12 3.44,4.23 5.03,6.09 27.25,32.01 52.66,65.63 72.77,102.94 6.09,11.11 14.02,21.43 21.17,32.28 1.85,3.18 3.97,3.97 7.41,2.38 45.52,-17.73 88.65,-39.7 128.61,-67.74 25.4,-17.99 49.49,-37.58 74.09,-56.63 9,-6.88 19.31,-12.96 26.99,-21.17 27.52,-29.9 55.04,-60.07 80.71,-91.56 29.1,-35.99 49.75,-77.53 71.98,-117.5 1.59,-2.91 3.18,-6.09 5.56,-10.85 -95.79,-40.49 -191.59,-79.12 -287.11,-119.08 -0.79,1.59 -1.59,2.65 -1.85,3.7 -25.66,70.12 -64.3,133.37 -104.8,195.29 -30.43,46.31 -64.04,90.5 -96.32,135.49 -1.59,2.12 -2.91,4.23 -4.5,6.61l0.25 -0.25zm-540.36 -730.36c1.32,-1.59 2.91,-2.91 3.97,-4.76 3.44,-7.94 6.35,-16.14 10.05,-23.81 25.66,-56.37 57.42,-109.03 88.91,-162.21 28.84,-48.69 62.72,-93.67 99.23,-136.55 7.67,-9 8.47,-9 1.59,-18.52 -6.88,-9.53 -15.08,-17.99 -21.7,-27.52 -22.49,-32.54 -47.37,-63.77 -66.16,-98.96 -8.2,-15.61 -7.14,-12.7 -20.9,-7.41 -56.37,21.7 -107.44,53.72 -156.65,88.12 -35.46,24.87 -65.63,55.84 -95.79,86.26 -9.79,9.79 -19.31,20.37 -27.52,31.75 -25.14,34.41 -49.75,68.8 -73.83,104 -9,13.23 -15.08,28.31 -23.02,42.61 -3.44,6.35 -1.85,10.32 4.76,12.7 5.56,2.12 10.58,5.03 15.88,7.14 80.71,33.61 161.68,67.21 242.66,100.83 5.56,2.38 11.38,3.97 18.52,6.61l0.01 -0.26zm1063.78 440.07c3.97,-14.02 7.67,-27.25 11.38,-40.23 17.99,-63.51 29.9,-127.81 30.16,-193.97 0,-43.67 -2.91,-86.79 -9.79,-129.93 -9.53,-58.22 -25.14,-114.32 -48.69,-168.31 -2.12,-4.5 -3.97,-5.56 -9,-4.5 -29.1,7.14 -58.48,14.55 -87.85,20.64 -23.81,4.76 -47.9,7.41 -71.98,10.85 -6.09,0.79 -10.05,1.59 -10.58,10.05 -2.65,41.55 -8.2,82.82 -17.2,123.32 -18.26,83.35 -39.96,165.65 -70.39,245.31 -2.65,6.61 -1.06,9 5.29,11.64 90.23,37.05 180.48,74.62 270.44,111.94 2.65,1.06 5.03,1.85 8.2,3.18l0.01 0zm-523.16 -550.67c0,0 -0.79,1.59 -1.32,2.91 -34.41,82.82 -68.8,165.65 -103.47,248.22 -3.7,8.73 -6.88,17.99 -10.58,26.72 -2.38,5.82 -0.79,9.26 4.76,11.38 17.46,7.41 34.67,14.82 52.13,22.23 66.42,27.52 132.84,55.31 199.26,82.82 9.26,3.7 18.79,6.61 28.31,10.32 2.65,-8.2 4.5,-15.35 7.14,-22.49 33.88,-97.11 62.72,-195.56 74.36,-298.49 1.32,-12.17 2.12,-24.34 2.91,-35.73 -43.67,-5.29 -86.53,-7.94 -128.61,-15.88 -42.08,-7.94 -83.09,-21.17 -125.43,-32.01l0.53 0zm139.99 471.82l-287.91 -117.23 -117.76 286.85c40.23,17.73 77,39.43 111.94,64.04 34.94,24.87 68.54,51.87 103.47,78.59 4.76,-5.56 10.85,-11.91 16.14,-18.52 62.72,-79.65 114.85,-165.91 159.3,-256.95 5.82,-11.64 9.79,-24.08 15.08,-36.79l-0.26 0zm-206.67 -501.2c-6.88,-2.91 -12.96,-5.03 -18.79,-7.67 -41.29,-18.26 -78.06,-43.93 -113.79,-71.45 -25.66,-19.58 -50.28,-40.49 -75.42,-60.86 -3.97,-3.18 -6.61,-3.44 -9.79,0.53 -5.82,6.88 -12.17,13.49 -17.73,20.9 -41.81,54.25 -78.59,112.2 -113,171.48 -19.84,34.14 -39.43,68.54 -53.46,105.59 -3.7,9.53 -3.44,9.79 5.82,13.76 88.65,37.05 177.04,73.83 265.68,110.62 3.7,1.59 7.67,2.65 11.64,3.97 39.7,-95.79 79.12,-190.79 118.82,-286.58l0.02 -0.28zm333.69 1534.28c-2.91,-6.61 -5.03,-12.7 -8.2,-17.73 -12.96,-20.11 -31.22,-33.88 -53.19,-42.87 -2.65,-1.06 -5.29,-1.85 -8.2,-1.85 -29.9,-1.59 -59.81,-3.97 -89.7,-3.97 -139.19,-0.53 -278.38,-0.79 -417.57,-0.53 -68.54,0 -137.07,1.32 -205.61,3.44 -37.85,1.06 -64.04,22.23 -80.71,55.31 -1.32,2.38 -1.59,5.03 -2.91,8.47l866.36 0 -0.26 -0.27zm-369.95 -663.14c-2.65,-2.91 -3.97,-5.56 -6.09,-7.14 -38.11,-29.63 -73.3,-62.72 -114.85,-87.59 -20.9,-12.44 -42.61,-23.28 -64.04,-34.67 -5.29,-2.91 -8.2,-1.85 -10.05,4.5 -2.12,7.67 -5.03,15.08 -8.2,22.23 -33.88,81.5 -67.74,163 -101.62,244.52 -1.06,2.38 -1.85,5.03 -2.91,7.67 1.59,0.53 2.12,0.79 2.91,0.79 38.64,4.5 75.95,0 112.2,-14.55 60.86,-24.08 113.53,-60.86 161.42,-104.8 10.58,-9.79 20.64,-20.37 31.22,-30.69l0 -0.27zm64.57 -938.62l116.17 -282.09c-2.38,-0.53 -3.44,-0.79 -4.76,-0.79 -50.55,-4.5 -98.17,4.76 -142.9,28.58 -59.54,31.49 -110.35,74.09 -157.71,121.46 -0.26,0.26 -0.26,0.79 -0.53,1.32 13.23,24.08 123.05,100.3 189.74,131.78l0 -0.26zm-551.21 734.59c0,5.03 -0.53,7.14 -0.53,9.53 -2.12,65.36 7.94,128.87 29.1,190.79 13.49,39.43 32.28,76.21 62.19,106.12 6.09,6.09 12.7,11.64 20.37,18.52 39.7,-95 78.59,-188.41 117.5,-281.56 -13.76,-7.14 -121.99,-33.61 -162.47,-38.9 -21.7,-2.91 -43.67,-3.18 -66.16,-4.76l0 0.26zm736.71 -987.31c-39.96,94.47 -79.12,187.36 -118.29,279.97 1.06,0.79 1.59,1.32 1.85,1.32 6.09,1.85 12.17,3.44 18.26,5.29 65.1,20.9 131.25,34.67 200.06,36.26 7.14,0 8.47,-1.85 8.73,-8.47 0.53,-38.64 -2.12,-77 -8.47,-115.38 -7.67,-46.31 -21.17,-91.03 -43.93,-132.31 -11.64,-20.9 -24.61,-40.76 -43.4,-56.37 -4.23,-3.44 -9,-6.35 -14.55,-10.32l-0.27 0.01zm-350.36 1572.13c0.53,-2.12 0.79,-3.18 0.79,-4.23 0,-34.94 0,-69.6 0,-104.53 0,-4.5 -2.12,-5.29 -6.09,-5.56 -13.23,-0.53 -26.72,-0.79 -39.96,-2.12 -47.64,-4.76 -93.94,-15.35 -139.72,-28.84 -17.2,-5.03 -34.41,-10.32 -51.87,-15.61l-43.14 104.8c91.56,32.81 183.65,53.19 279.7,55.84l0.28 0.26zm674.26 -1275.48c-44.72,-80.18 -101.36,-147.92 -172.8,-203.49 23.55,73.56 32.81,148.72 33.07,225.98 47.64,3.7 92.09,-13.49 139.72,-22.49zm-708.66 1084.42l0.79 1.85c1.32,0 2.65,0.53 3.97,0.53 53.46,2.38 107.18,4.5 160.36,-2.91 28.05,-3.97 56.1,-9.79 83.88,-15.35 5.56,-1.06 10.85,-3.97 15.88,-5.82 -7.41,-24.34 -64.57,-104.53 -80.71,-113.53 -54.51,54.25 -115.11,100.56 -184.44,135.22l0.26 0.01zm-391.91 -163c-24.61,-73.3 -32.54,-149.25 -33.61,-225.72 -23.55,-3.97 -122.79,14.02 -137.6,24.87 43.4,78.06 100.03,145.28 171.22,201.11l-0.01 -0.26zm536.92 -1288.71c-16.14,-1.85 -30.96,-4.76 -45.78,-4.76 -29.1,0 -57.95,1.06 -87.06,2.38 -41.55,2.12 -82.03,9.79 -122.26,19.84 -4.5,1.06 -8.47,3.18 -13.76,5.03 26.46,39.43 48.16,80.18 79.65,114.85 12.7,-11.38 24.61,-21.7 36.26,-32.54 44.99,-42.61 94.47,-78.33 152.68,-105.06l0.27 0.26z"/>
  </g>
 </g>
</svg>
