<?xml version="1.0" encoding="UTF-8"?><svg id="_лой_2" xmlns="http://www.w3.org/2000/svg" viewBox="0 0 67.67 79.79"><defs><style>.cls-1{fill:#bc2539;}</style></defs><g id="_лой_1-2"><path class="cls-1" d="M63.77,0c.09,.05,.17,.12,.27,.14,2.4,.64,3.62,2.19,3.62,4.68,0,10.94,0,21.88,0,32.83,0,2.18,0,4.37,0,6.55-.01,2.84-1.9,4.73-4.75,4.73-7.38,0-14.76,0-22.14,0h-1.03c1.12,2.13,2.48,3.87,4.26,5.27,.19,.15,.49,.16,.73,.24,1.69,.49,2.78,1.91,2.8,3.69,.01,.78,0,1.56,0,2.34,0,1.06-.39,1.46-1.45,1.47-3.04,.01-6.08,0-9.12,0-5.02,0-10.03,0-15.05,0-1.48,0-1.77-.3-1.77-1.78,0-.7,0-1.4,0-2.11,.03-1.71,1.16-3.12,2.8-3.62,.45-.14,.91-.38,1.28-.68,1.49-1.24,3.17-3.5,3.61-4.82-.33,0-.63,0-.93,0-7.38,0-14.76,0-22.14,0-2.35,0-4.13-1.34-4.64-3.5-.11-.45-.11-.93-.11-1.39C0,31.02,0,18,0,4.97,0,2.31,1.11,.86,3.7,.12,3.77,.1,3.83,.04,3.89,0H63.77Zm-3.12,7.11H7.04v31.06H60.65V7.11Zm4.58,33.61H2.36c0,1.04,0,2.02,0,3.01,0,2.08,.7,2.78,2.74,2.78,19.15,0,38.31,0,57.46,0,.26,0,.52,.01,.78,0,.96-.07,1.8-.73,1.86-1.68,.09-1.34,.02-2.69,.02-4.09Zm.03-2.53c.02-.32,.04-.6,.04-.88,0-10.73,0-21.47,0-32.2,0-1.94-.74-2.66-2.7-2.66-19.18,0-38.36,0-57.54,0-1.99,0-2.71,.71-2.71,2.73,0,10.68,0,21.36,0,32.04,0,.31,.03,.61,.04,.95h2.18v-1.06c0-10.16,0-20.32,0-30.48,0-1.68,.27-1.96,1.92-1.96,18.22,0,36.44,0,54.65,0,.26,0,.52,0,.78,.01,.6,.03,.97,.36,1.08,.94,.07,.33,.07,.67,.07,1.01,0,10.19,0,20.37,0,30.56v1h2.17Zm-31.43,21.38c3.51,0,7.01,0,10.52-.02,.26,0,.7-.21,.74-.39,.36-1.68-.29-2.47-1.99-2.47-6.18,0-12.36,0-18.54,0-1.63,0-1.99,.4-2.03,2.02-.02,.69,.18,.88,.87,.88,3.48-.03,6.96-.02,10.44-.02Zm6.41-5.33c-1.04-1.68-2.05-3.34-3.09-4.97-.11-.17-.41-.32-.62-.32-1.79-.03-3.58-.03-5.37,0-.26,0-.59,.26-.75,.5-.44,.67-.78,1.41-1.22,2.08-.59,.9-1.25,1.76-1.93,2.71h12.97Z"/><path class="cls-1" d="M57.94,77.17c-.67-3.83-1.34-7.66-2.02-11.49-.21-1.2-.91-1.96-2.11-2.21-.43-.09-.87-.13-1.31-.13-12.45,0-24.9,0-37.35,0-.18,0-.36,0-.55,0-1.66,.06-2.62,.94-2.9,2.57-.64,3.71-1.3,7.41-1.95,11.11-.19,1.06,.14,1.89,1.12,2.3,.65,.27,1.4,.44,2.1,.44,6.94,.03,13.88,.02,20.82,.02s13.93,.02,20.9-.02c.77,0,1.59-.24,2.3-.56,.81-.36,1.1-1.14,.95-2.03Zm-45.8,.15c.28-1.64,.55-3.22,.82-4.79,.34-1.97,.71-3.93,1.03-5.9,.1-.61,.29-.89,.98-.89,12.57,.02,25.15,.02,37.72,0,.54,0,.86,.11,.96,.72,.58,3.45,1.19,6.9,1.79,10.35,.03,.15,.02,.3,.04,.51H12.14Z"/><path class="cls-1" d="M23.67,29.42c.44,.43,1.01,.47,1.46,0,.45-.47,.39-.99-.03-1.46-.17-.19-.36-.37-.55-.56-1.54-1.54-3.08-3.08-4.82-4.81,.32-.23,.58-.37,.79-.57,1.52-1.5,3.02-3,4.53-4.51,.46-.46,.58-.99,.16-1.53-.35-.45-1.05-.47-1.52,0-2.02,1.98-4.02,3.98-6.01,6-.45,.46-.45,1.01,0,1.47,1.99,2.01,4,4.01,6.02,5.99Z"/><path class="cls-1" d="M42.66,27.88c-.53,.53-.58,1.16-.17,1.58,.41,.42,1.07,.39,1.59-.11,1.93-1.89,3.85-3.79,5.76-5.7,.71-.71,.69-1.21-.03-1.93-1.74-1.75-3.49-3.48-5.24-5.23-.17-.16-.32-.34-.5-.49-.53-.46-1.12-.48-1.52-.03-.44,.49-.38,.99,.04,1.47,.19,.21,.4,.41,.6,.61,1.52,1.53,3.03,3.06,4.62,4.66-.23,.24-.42,.45-.62,.65-1.51,1.5-3.02,3-4.52,4.51Z"/><path class="cls-1" d="M31.28,29.34c.17-.18,.58-.47,.78-.85,1.83-3.5,3.62-7.02,5.42-10.53,.39-.75,.27-1.31-.29-1.62-.56-.3-1.11-.07-1.5,.66-.58,1.1-1.15,2.21-1.72,3.32-1.26,2.45-2.53,4.89-3.78,7.34-.47,.92-.09,1.69,1.1,1.68Z"/><path class="cls-1" d="M32.63,43.58c0,.64,.54,1.17,1.2,1.17,.66,0,1.21-.52,1.21-1.16,0-.64-.54-1.16-1.2-1.17-.66,0-1.21,.52-1.21,1.16Z"/><path class="cls-1" d="M34.07,76.86c-3.9,0-7.79,0-11.69,0-.23,0-.47,.02-.7-.02-.61-.12-.98-.52-1-1.13-.02-.57,.26-1.01,.84-1.16,.27-.07,.56-.09,.85-.09,7.85,0,15.69,0,23.54,0,.13,0,.26,0,.39,0,.83,.08,1.29,.55,1.25,1.28-.04,.7-.5,1.11-1.32,1.11-3.3,0-6.6,0-9.9,0-.75,0-1.51,0-2.26,0Z"/><path class="cls-1" d="M16.62,76.7c-.41,0-.83,.05-1.24,0-.65-.09-1.01-.52-1-1.17,0-.61,.34-1.07,.97-1.11,.88-.06,1.76-.06,2.64,0,.64,.04,.97,.53,.97,1.12,0,.63-.35,1.09-1.01,1.17-.43,.05-.88,0-1.32,0Z"/><path class="cls-1" d="M51.18,76.71c-.36,0-.73,.02-1.09,0-.69-.04-1.12-.48-1.14-1.13-.02-.67,.38-1.15,1.06-1.19,.8-.04,1.61-.04,2.41,0,.69,.04,1.09,.52,1.06,1.19-.03,.67-.4,1.06-1.06,1.12-.41,.04-.83,0-1.25,0h0Z"/><path class="cls-1" d="M15.77,72.8c-.88-.02-1.41-.48-1.4-1.22,0-.75,.58-1.2,1.51-1.2,.93,0,1.46,.48,1.43,1.26-.03,.77-.56,1.16-1.54,1.15Z"/><path class="cls-1" d="M30.32,72.8c-.94,0-1.47-.44-1.46-1.23,.01-.74,.54-1.17,1.43-1.18,.94,0,1.49,.43,1.5,1.2,0,.78-.52,1.22-1.47,1.22Z"/><path class="cls-1" d="M48.4,72.8c-.94,0-1.47-.45-1.45-1.24,.02-.74,.54-1.17,1.44-1.18,.94,0,1.49,.44,1.49,1.2,0,.78-.53,1.21-1.48,1.21Z"/><path class="cls-1" d="M33.94,72.8c-.93,0-1.49-.46-1.48-1.22,0-.75,.58-1.2,1.51-1.19,.9,0,1.41,.44,1.42,1.19,.01,.79-.51,1.22-1.46,1.22Z"/><path class="cls-1" d="M52.02,72.8c-.93,0-1.49-.47-1.47-1.23,.01-.75,.59-1.2,1.52-1.18,.9,.01,1.41,.44,1.42,1.2,0,.79-.51,1.22-1.47,1.22Z"/><path class="cls-1" d="M26.78,70.39c.87,.02,1.42,.5,1.41,1.22,0,.78-.6,1.22-1.59,1.19-.87-.02-1.38-.49-1.35-1.25,.03-.76,.58-1.18,1.53-1.16Z"/><path class="cls-1" d="M44.81,72.8c-.95,0-1.47-.43-1.47-1.21,0-.75,.51-1.19,1.41-1.2,.93-.01,1.51,.43,1.53,1.18,.02,.76-.55,1.23-1.47,1.23Z"/><path class="cls-1" d="M19.47,72.8c-.91,0-1.51-.49-1.49-1.22,.01-.73,.62-1.2,1.54-1.19,.87,.01,1.44,.48,1.45,1.19,0,.75-.57,1.22-1.49,1.22Z"/><path class="cls-1" d="M23.05,72.8c-.88,0-1.44-.46-1.45-1.18-.02-.74,.58-1.23,1.49-1.23,.9,0,1.51,.5,1.5,1.23-.02,.73-.61,1.19-1.53,1.18Z"/><path class="cls-1" d="M37.54,72.8c-.9,0-1.5-.51-1.47-1.24,.03-.73,.64-1.18,1.55-1.17,.87,.02,1.43,.49,1.43,1.21,0,.74-.58,1.21-1.51,1.2Z"/><path class="cls-1" d="M41.18,72.8c-.92,0-1.5-.48-1.49-1.22,.01-.71,.58-1.18,1.45-1.19,.91-.01,1.52,.46,1.53,1.19,.01,.73-.58,1.22-1.5,1.22Z"/><path class="cls-1" d="M23.11,69.07c-.95,0-1.51-.43-1.52-1.18,0-.74,.56-1.19,1.51-1.19,.89,0,1.45,.44,1.48,1.14,.03,.73-.56,1.22-1.47,1.23Z"/><path class="cls-1" d="M41.18,69.07c-.93,0-1.5-.46-1.49-1.2,0-.72,.55-1.16,1.45-1.17,.94,0,1.52,.43,1.54,1.16,.01,.73-.57,1.2-1.49,1.21Z"/><path class="cls-1" d="M19.47,69.07c-.93,0-1.51-.46-1.5-1.2,.01-.73,.6-1.18,1.53-1.17,.9,0,1.44,.44,1.45,1.16,.01,.75-.55,1.2-1.48,1.2Z"/><path class="cls-1" d="M37.53,69.07c-.91,0-1.5-.5-1.47-1.23,.03-.7,.59-1.13,1.48-1.14,.94,0,1.51,.44,1.5,1.19,0,.74-.57,1.18-1.52,1.17Z"/><path class="cls-1" d="M48.43,69.07c-.97,0-1.48-.41-1.48-1.19,0-.78,.51-1.19,1.49-1.18,.93,0,1.42,.4,1.44,1.15,.02,.79-.49,1.21-1.45,1.22Z"/><path class="cls-1" d="M30.31,69.07c-.96,0-1.47-.43-1.45-1.22,.02-.75,.51-1.14,1.44-1.15,.98,0,1.49,.39,1.49,1.18,0,.78-.51,1.19-1.48,1.19Z"/><path class="cls-1" d="M15.84,69.07c-.94,0-1.48-.45-1.47-1.21,.02-.75,.56-1.17,1.52-1.16,.92,.01,1.41,.42,1.42,1.17,0,.78-.51,1.2-1.47,1.19Z"/><path class="cls-1" d="M44.8,69.07c-.96,0-1.47-.42-1.46-1.2,0-.76,.5-1.15,1.42-1.16,.96,0,1.51,.41,1.52,1.16,0,.76-.53,1.2-1.48,1.2Z"/><path class="cls-1" d="M52.03,69.07c-.95,0-1.49-.44-1.48-1.2,0-.76,.55-1.18,1.51-1.17,.93,0,1.42,.41,1.43,1.16,0,.78-.5,1.2-1.46,1.2Z"/><path class="cls-1" d="M26.71,69.07c-.96,0-1.47-.42-1.46-1.2,0-.76,.5-1.15,1.42-1.16,.96,0,1.51,.41,1.52,1.16,0,.76-.53,1.2-1.48,1.2Z"/><path class="cls-1" d="M33.94,69.07c-.94,0-1.49-.45-1.47-1.21,.01-.75,.56-1.17,1.52-1.16,.93,.01,1.41,.41,1.42,1.17,0,.78-.5,1.2-1.47,1.2Z"/></g></svg>