<?xml version="1.0" encoding="UTF-8"?><svg id="_лой_2" xmlns="http://www.w3.org/2000/svg" viewBox="0 0 72.55 83.61"><defs><style>.cls-1{fill:#bd2539;}</style></defs><g id="_лой_1-2"><path class="cls-1" d="M35.38,40c.75-.69,1.3-1.28,1.92-1.75,2.49-1.86,5.01-3.69,7.53-5.52,.45-.33,.91-.64,1.39-.9,2.25-1.2,4.46-.73,5.95,1.35,.71,1,1.23,2.13,1.94,3.14,.37,.53,.87,1.02,1.43,1.33,2.36,1.33,4.74,2.62,7.15,3.87,3.36,1.73,4.75,4.57,5.04,8.23,.37,4.6,.88,9.19,1.49,13.76,.16,1.2,.88,2.33,1.39,3.48,.56,1.26,1.27,2.46,1.72,3.76,.57,1.66,.07,3.18-1.15,4.41-.6,.61-1.29,1.16-2.02,1.59-3.35,1.96-6.71,3.9-10.1,5.78-.87,.48-1.87,.83-2.85,1-1.94,.33-3.41-.6-4.51-2.12-.81-1.12-1.54-2.3-2.25-3.5-.91-1.54-2.07-2.81-3.49-3.9-4.57-3.51-9.1-7.07-13.68-10.56-1.61-1.22-2.36-2.82-2.41-4.76-.04-1.44,.13-2.9,.08-4.34-.07-2.3-.31-4.6-.33-6.91,0-1.57-.68-2.69-1.84-3.6-.73-.57-1.02-1.32-1.1-2.23-.1-1.16-.35-2.31-.5-3.47-.19-1.44,.24-1.87,1.68-1.69,1.4,.18,2.81,.35,4.2,.6,.39,.07,.79,.34,1.09,.62,.8,.76,1.54,1.58,2.25,2.31Zm21.75,.94l-.21,.25c.14,.26,.27,.53,.42,.79,.71,1.23,1.41,2.46,2.12,3.68,.39,.67,.32,1.25-.37,1.66-.72,.43-1.23,.09-1.61-.54-.14-.24-.28-.48-.42-.72-2.09-3.63-4.17-7.26-6.29-10.88-1.13-1.93-2.38-2.19-4.2-.92-1.34,.94-2.64,1.92-3.96,2.88-1.39,1.02-2.8,2.02-4.16,3.08-.67,.52-.95,1.21-.48,2.04,.44,.79,1.13,1.02,1.97,.79,.53-.14,1.05-.35,1.56-.57,1.53-.66,3.04-1.34,4.56-2.01,1.15-.5,1.5-.4,2.11,.65,.95,1.62,1.88,3.25,2.82,4.88,1.27,2.2,1,4.31-.46,6.31-.37,.51-.85,.95-1.43,1.59,.31,.24,.64,.43,.9,.69,2.62,2.61,5.26,5.21,7.83,7.87,2.22,2.29,1.47,5.6-1.49,6.76-1.74,.69-3.18,.13-4.43-1.14-4.76-4.79-9.52-9.58-14.3-14.35-.72-.72-1.22-1.5-1.51-2.48-.48-1.64-1.17-3.18-2.39-4.42-.53-.54-1.13-.82-1.94-.5,.03,.5,.06,.99,.09,1.48,.11,2.12,.25,4.23,.31,6.35,.03,1.11-.11,2.22-.14,3.32-.05,1.89,.55,3.35,2.14,4.61,5.59,4.42,11.62,8.32,16.71,13.48,5.31-3.07,10.7-6.17,16.07-9.31,.21-.12,.35-.59,.31-.87-.23-1.52-.61-3.01-.78-4.54-.44-4.04-.78-8.09-1.2-12.14-.16-1.57-.6-3.11-1.97-4.03-2.01-1.35-4.13-2.54-6.2-3.79Zm-28.55-2.09c.14,1.02,.21,1.91,.4,2.77,.16,.74,1.76,2.09,2.38,2.06,2.04-.09,3.63,.81,4.68,2.46,.89,1.41,1.51,3.01,2.25,4.52,.19,.38,.31,.83,.6,1.11,4.9,4.95,9.81,9.88,14.74,14.79,.31,.3,.76,.55,1.18,.63,.88,.16,1.45-.36,1.84-1.1,.45-.86,.1-1.52-.52-2.14-8.05-8.07-16.09-16.14-24.15-24.2-.24-.24-.59-.46-.92-.53-.75-.16-1.51-.23-2.48-.36Zm23.37,38.76c.24,.41,.43,.75,.64,1.09,1.88,3.03,2.73,3.29,5.88,1.57,2.86-1.56,5.68-3.2,8.49-4.85,.9-.53,1.74-1.16,2.53-1.84,.74-.63,1.02-1.5,.64-2.42-.44-1.06-1-2.07-1.53-3.17-5.64,3.26-11.12,6.42-16.66,9.62Zm-4.34-25.66c1.69-.93,2.46-2.68,1.68-4.24-.77-1.54-1.67-3-2.55-4.48-.1-.16-.48-.32-.64-.26-1.76,.74-3.51,1.52-5.22,2.27l6.74,6.71Z"/><path class="cls-1" d="M.04,37.88c0-10.76,.06-21.52-.04-32.28C-.03,2.17,2.58-.02,5.58,0c12.21,.09,24.41,.03,36.62,.04,3.4,0,5.5,2.08,5.5,5.45,0,7.52,0,15.05,0,22.57,0,.25,.09,.57-.03,.72-.3,.37-.69,.9-1.06,.92-.36,.02-.83-.46-1.11-.83-.17-.23-.09-.65-.09-.99,0-5.3-.02-10.61,.01-15.91,0-.75-.19-1.01-.97-1.01-13.75,.02-27.5,.02-41.25,0-.72,0-.95,.22-.95,.95,.02,17.24,.02,34.47,0,51.71,0,.87,.4,.92,1.07,.92,8.01-.01,16.03,0,24.04,0,.37,0,.74,0,1.11,.03,.69,.06,1.1,.46,1.07,1.14-.03,.67-.46,1.05-1.15,1.07-.31,.01-.62,0-.92,0-8.02,0-16.03,.02-24.04-.02-.97,0-1.24,.29-1.17,1.2,.08,1.07,0,2.16,.11,3.23,.14,1.37,1.17,2.27,2.55,2.33,.86,.04,1.73,.01,2.59,.01,10.7,0,21.39,0,32.09,0,.37,0,.82-.08,1.08,.1,.38,.26,.81,.69,.87,1.11,.1,.61-.39,.99-1.02,1.08-.21,.03-.43,.01-.65,.01-11.47,0-22.94,0-34.4,0-3.39,0-5.45-2.07-5.46-5.48,0-10.82,0-21.64,0-32.47ZM2.22,8.66H45.37c0-1.44,.16-2.84-.07-4.18-.12-.7-.84-1.39-1.46-1.86-.41-.31-1.11-.29-1.69-.29-12.17-.01-24.35-.01-36.52,0-.31,0-.62,0-.92,.04-1.13,.12-2.02,.74-2.21,1.81-.25,1.46-.2,2.97-.27,4.5Z"/><path class="cls-1" d="M18.83,40.9c.37-.3,.8-.56,1.1-.92,.97-1.16,1.89-2.35,2.82-3.54,.59-.76,1.2-.97,1.78-.51,.68,.54,.57,1.18,.1,1.78-1.04,1.33-2.02,2.73-3.19,3.94-.68,.7-1.62,1.25-2.55,1.58-1.44,.51-2.84-.54-2.72-2.06,.11-1.4,.49-2.78,.8-4.15,.66-2.94,1.37-5.86,2.02-8.81,.12-.56,.12-1.17,.07-1.75-.1-1.09-.66-1.33-1.56-.73-.23,.15-.45,.33-.64,.53-2.93,2.93-5.24,6.29-6.81,10.13-.13,.31-.22,.64-.31,.97-.61,2.19-.1,3.05,2.12,3.45,.79,.14,1.29,.48,1.19,1.32-.08,.62-.49,.93-1.16,.96-2.9,.09-5.09-2.51-4.55-5.43,.52-2.85,1.88-5.34,3.54-7.65,1.33-1.84,2.78-3.62,4.34-5.27,.77-.82,1.84-1.44,2.89-1.92,1.22-.56,2.2-.08,2.83,1.12,.62,1.18,.67,2.45,.41,3.7-.75,3.58-1.58,7.14-2.38,10.71-.17,.79-.32,1.58-.49,2.37l.35,.18Z"/></g></svg>