<?xml version="1.0" encoding="UTF-8"?><svg id="_лой_2" xmlns="http://www.w3.org/2000/svg" viewBox="0 0 82.32 84.9"><defs><style>.cls-1{fill:#e2a1aa;}.cls-2{fill:#bc2639;}.cls-3{fill:#bc2539;}.cls-4{fill:#bd263a;}.cls-5{fill:#fbf5f6;}.cls-6{fill:#fefdfe;}.cls-7{fill:#bd273a;}.cls-8{fill:#fefefe;}.cls-9{fill:#fdfbfb;}</style></defs><g id="_лой_1-2"><path class="cls-8" d="M82.3,39.05c0,15.03,0,30.07,.02,45.1,0,.63-.12,.75-.75,.75-26.94-.02-53.88-.02-80.81,0-.63,0-.75-.12-.75-.75C.02,56.35,.02,28.55,0,.75,0,.12,.12,0,.75,0,27.69,.02,54.63,.02,81.57,0c.63,0,.76,.12,.75,.75-.02,12.64-.02,25.28-.02,37.92-2.03-1.26-4.16-.48-6.24-.27-1.8,.18-3.58,.48-5.34,.93-1.61,.41-3.07,1.1-4.27,2.24-1.45,1.38-3.17,2.18-5.12,2.53-.54,.1-1.08,.25-1.61,.38-.64,.16-1.06-.09-1.13-.72-.39-3.59-1.97-6.9-2.43-10.47-.25-1.98-.99-3.86-1.44-5.8-.1-.42-.19-.82-.1-1.27,.27-1.31-.78-2.25-2.07-1.87-.39,.11-.73,.31-1.08,.51-.85,.5-1.66,1.04-2.51,1.54-.53,.31-1.08,.44-1.67,.28-.8-.22-1.15-.91-.75-1.63,1.03-1.88,2.17-3.71,3.57-5.35,.91-1.06,2.14-1.14,3.39-.89,1.53,.3,3.04,.73,4.48,1.36,1.01,.44,1.82,1.12,2.47,2.01,.29,.4,.55,.81,.8,1.23,1.41,2.35,3.48,3.66,6.2,3.92,3.77,.37,7.45-.19,11.09-1.11,.42-.11,.86-.25,.79-.83-.07-.55-.44-.79-.95-.81-1.27-.07-2.5,.24-3.74,.41-2.16,.31-4.32,.49-6.5,.51-1.93,.02-3.36-.79-4.52-2.22-.66-.81-1.26-1.66-1.85-2.52-.85-1.24-1.96-2.11-3.39-2.54-.78-.23-1.14-.67-1.2-1.51-.07-.94-.26-1.88-.6-2.78-1.07-2.85-3.16-3.97-6.35-4.09-2.2-.08-4.41,.22-6.59,.54-4.46,.65-8.92,1.34-13.26,2.59-1.65,.48-3.28,1.04-4.79,1.88-1.84,1.02-2.37,2.24-1.88,4.28,.71,2.89,1.87,5.51,4.16,7.53,.6,.53,1.24,1.01,1.95,1.37,1.13,.58,2.3,.76,3.56,.33,1.16-.4,2.3-.85,3.52-1.07,.39-.07,.79-.13,1.19-.09,.24,.03,.54,.01,.6,.31,.06,.29-.21,.42-.43,.51-.51,.21-1.02,.42-1.48,.73-1.78,1.2-2.12,3.97-.55,5.44,.7,.66,.95,1.26,.66,2.17-.33,1.04,.01,1.96,.81,2.66,.77,.67,1.05,1.34,.71,2.41-.4,1.25,.19,2.38,1.1,3.23,.61,.57,.8,1.15,.75,1.94-.06,.88-.11,1.8,.47,2.57,.87,1.15,2.05,1.61,3.46,1.5,.15-.01,.3-.07,.45-.09,.29-.04,.64-.22,.86,.08,.25,.34-.04,.64-.21,.91-.45,.69-.65,1.44-.63,2.27,.04,2.16,1.97,3.68,4.09,3.21,.63-.14,1.23-.37,1.79-.69,1.23-.71,1.41-.62,1.79,.79,.29,1.1,.59,2.19,.88,3.29,.23,.89,.5,1.05,1.39,.9,.82-.13,1.62-.35,2.41-.59,1.16-.36,1.47-.86,1.17-2.07-.36-1.43-.81-2.83-1.15-4.26-.35-1.44-.37-1.47,.85-2.26,1.62-1.04,2.22-2.44,1.78-4.33-.3-1.27-.21-1.31,1.05-1.56,2.46-.49,4.84-1.21,6.71-3,1.54-1.48,3.46-2.03,5.46-2.44,2.44-.51,4.91-.78,7.38-.89,.9-.04,1.4-.59,2.09-.91Z"/><path class="cls-3" d="M82.3,39.05c-.48,.9-1.25,1.14-2.25,1.19-3.13,.14-6.22,.55-9.25,1.38-.94,.26-1.8,.61-2.51,1.28-2.29,2.17-5.06,3.28-8.13,3.73-.45,.07-.6,.22-.46,.65,.05,.14,.09,.29,.12,.44,.48,2.41,.05,3.53-2.06,4.76-.78,.46-.87,.88-.62,1.66,.47,1.49,.86,3,1.24,4.51,.36,1.45,.04,1.95-1.37,2.37-.91,.27-1.83,.51-2.77,.64-.67,.09-1.07-.08-1.24-.84-.36-1.6-.83-3.19-1.26-4.81-.94,.44-1.69,1.04-2.64,1.26-1.66,.39-3.22-.11-4.1-1.35-.88-1.24-.89-2.94-.01-4.33,.18-.28,.36-.56,.61-.94-.94,.17-1.74,.45-2.62,.25-2.12-.49-3.18-1.74-3.06-3.92,.05-.91,0-1.59-.77-2.3-1.14-1.07-1.51-2.51-.85-4.04,.16-.37,.05-.56-.22-.76-1.46-1.11-2.01-2.5-1.3-4.28,.13-.32,.04-.53-.25-.77-2.54-2.06-2.14-5.29,.81-6.68,.4-.19,.81-.35,1.2-.6-1.44-.22-2.77,.19-4.04,.74-2.51,1.09-4.67,.5-6.61-1.24-.57-.51-1.12-1.06-1.6-1.65-1.66-2.05-2.52-4.47-3.01-7.02-.29-1.5,.47-2.84,1.94-3.63,2.53-1.36,5.26-2.16,8.05-2.77,5-1.1,10.04-1.97,15.16-2.32,1.17-.08,2.33-.08,3.48,.12,2.9,.48,4.89,2.52,5.29,5.79,.18,1.46,.49,2.46,2.11,2.8,1.03,.22,1.75,1.09,2.38,1.94,.68,.91,1.33,1.84,2.02,2.74,1.14,1.52,2.61,2.3,4.57,2.27,2.93-.04,5.8-.51,8.68-.9,.51-.07,1.04-.12,1.56-.11,.77,0,1.04,.52,1.12,1.2,.08,.67-.36,.83-.87,.95-3.59,.85-7.2,1.48-10.92,1.2-3.03-.23-5.43-1.49-6.88-4.21-.99-1.86-2.48-2.99-4.46-3.55-1.06-.3-2.12-.6-3.19-.86-1.35-.33-2.47,.02-3.33,1.17-1.18,1.57-2.29,3.19-3.23,4.91-.42,.76,.02,1.47,.89,1.47,.55,0,.99-.28,1.44-.54,1.11-.64,2.12-1.47,3.35-1.9,.82-.29,1.78,0,2.3,.67,.24,.31,.43,.7,.26,1.02-.45,.85-.06,1.61,.13,2.39,1.16,4.75,2.32,9.51,3.49,14.26,.15,.62-.09,1.54,.42,1.8,.44,.22,1.21-.22,1.84-.32,2.29-.35,4.23-1.34,5.88-2.97,.91-.9,2.08-1.4,3.3-1.74,3.2-.88,6.5-1.2,9.79-1.52,.96-.09,1.82,.12,2.43,.95v.37Z"/><path class="cls-3" d="M19.45,13.43c-.08,3.5-.1,6.99,.05,10.49,.04,.98,.39,1.6,1.23,2.06,1.1,.6,2.2,1.21,3.17,2.02,2.09,1.76,3.2,3.97,3.2,6.73,0,14.72-.02,29.44,.02,44.16,0,1.49-.6,2.45-1.76,3.18-1.74,1.09-3.7,1.61-5.69,1.98-4.47,.84-8.95,1-13.41-.09-1.98-.48-3.84-1.26-5.29-2.78-.51-.53-.77-1.1-.77-1.88,.02-14.57-.03-29.14,.05-43.7,.02-3.71,1.54-6.83,4.75-8.95,.1-.07,.19-.16,.31-.2,2.31-.81,2.73-2.48,2.69-4.8-.11-6.22,.07-12.45,.12-18.68,0-1.08,.69-1.59,1.53-1.95,1.77-.76,3.65-.75,5.52-.57,1.1,.1,2.18,.3,3.19,.78,.77,.37,1.13,.87,1.12,1.79-.05,3.46-.02,6.93-.02,10.4Z"/><path class="cls-8" d="M44.18,27.01c-.8-.28-1.5-.36-2.21-.31-.21,.01-.41,.03-.58-.17-1.46-1.68-3.37-1.55-5.27-1.2-1.23,.22-2.44,.59-3.65,.93-.83,.24-1.58,.16-2.25-.4-2.25-1.88-3.83-4.2-4.48-7.09-.27-1.21,.01-1.66,1.15-2.16,4.18-1.86,8.61-2.79,13.08-3.53,2.91-.48,5.83-.76,8.77-1.01,.96-.08,1.9-.04,2.84,.12,1.61,.28,2.59,1.19,2.97,2.84,.41,1.77,.46,1.82-1.28,1.53-1.95-.33-3.48,.27-4.79,1.69-1.74,1.89-3.03,4.07-4.24,6.32-.39,.73-.38,1.53-.08,2.45Z"/><path class="cls-8" d="M46.1,28.71c2.2,.81,3.8-.2,5.39-1.3,.84-.58,.85-.57,1.09,.42,1.58,6.48,3.16,12.97,4.74,19.45,.04,.18,.09,.36,.12,.54,.32,1.82,.28,1.89-1.35,2.85-2.13,1.26-4.23,2.6-6.46,3.69-.38,.19-.79,.34-1.17,.53-.52,.25-.95,.09-1.35-.26-.4-.35-.44-.82-.3-1.27,.13-.4,.34-.79,.58-1.14,.93-1.3,1.54-2.77,2.86-3.88,1.48-1.25,1.21-3.52-.28-5.01-.5-.5-.66-.9-.44-1.58,.52-1.6,.16-2.96-1.28-3.95-.41-.28-.56-.57-.45-1.14,.33-1.65,.13-3.2-1.45-4.22-.32-.21-.27-.41-.18-.69,.33-.96,.32-1.92-.1-3.06Z"/><path class="cls-8" d="M47.32,40.57c0,.92-.4,1.31-.91,1.55-1.42,.66-2.94,1.01-4.47,1.3-.85,.16-1.17-.49-1.38-1.17-.21-.68-.04-1.23,.67-1.48,1.32-.46,2.64-.96,4-1.31,1.32-.34,2.11,.25,2.1,1.12Z"/><path class="cls-6" d="M44.01,30.5c0,.73-.36,1.19-.95,1.38-1.45,.46-2.93,.86-4.4,1.26-.56,.15-.86-.21-1.02-.68-.19-.56-.6-1.18,.09-1.66,1.54-1.09,3.33-1.52,5.17-1.65,.86-.06,1.03,.71,1.11,1.36Z"/><path class="cls-8" d="M40.38,38.2c-.73,.04-1.17-.3-1.34-1-.17-.71,.02-1.32,.69-1.62,1.37-.61,2.81-1.04,4.28-1.33,.76-.15,1.24,.28,1.46,.96,.25,.76,.04,1.47-.7,1.79-1.4,.61-2.88,.99-4.4,1.2Z"/><path class="cls-8" d="M43.91,48.54c-1.06,0-1.42-.53-1.63-1.29-.2-.76,.16-1.2,.8-1.43,1.27-.45,2.55-.87,3.84-1.26,.77-.23,1.32,.14,1.64,.83,.31,.66,.25,1.36-.42,1.69-1.4,.69-2.86,1.23-4.23,1.46Z"/><path class="cls-9" d="M55.88,58.32c.16,.46-.18,.44-.38,.5-.23,.07-.55,.3-.67-.14-.33-1.2-.66-2.41-.94-3.62-.11-.47,.34-.62,.66-.73,.47-.15,.36,.33,.41,.52,.34,1.17,.63,2.35,.91,3.47Z"/><path class="cls-8" d="M24.85,56.62c0,7.33-.02,14.66,.02,21.99,0,.88-.33,1.36-1.04,1.73-1.82,.95-3.79,1.4-5.79,1.69-3.97,.58-7.94,.67-11.85-.45-.38-.11-.76-.24-1.13-.39-2.32-.95-2.55-1.28-2.55-3.78,0-13.83-.01-27.66,0-41.5,0-3.38,1.39-6.04,4.36-7.77,4.06-2.37,3.22-2.48,3.29-5.81,.09-4.54,.12-9.08,.15-13.62,0-.66,.14-.91,.85-.89,1.72,.05,3.44,.05,5.15,0,.73-.03,.84,.24,.83,.89-.03,4.02-.03,8.04,0,12.05,0,1.32,.12,2.63,.18,3.95,.06,1.19,.56,2.12,1.57,2.75,.86,.54,1.73,1.05,2.58,1.59,2.24,1.42,3.39,3.4,3.38,6.12-.05,7.15-.02,14.29-.02,21.44Z"/><path class="cls-6" d="M13.82,5.56c-.95,0-1.9-.02-2.85,0-.48,.02-.61-.15-.63-.63-.06-1.98-.07-1.98,1.91-2.24,1.42-.18,2.81,0,4.2,.25,.56,.11,.72,.38,.71,.94-.02,1.67,0,1.67-1.69,1.67-.55,0-1.1,0-1.66,0h0Z"/><path class="cls-3" d="M39.6,14.18c1.47,.02,2.84,.3,4.14,.91,.42,.2,.81,.43,1.13,.77,.33,.34,.47,.74,.22,1.17-.24,.4-.65,.59-1.1,.47-.44-.12-.86-.32-1.28-.5-3.44-1.47-6.71-.4-8.59,2.8-.17,.29-.36,.58-.6,.8-.38,.34-.83,.37-1.27,.1-.41-.25-.56-.64-.47-1.1,.05-.27,.14-.54,.28-.77,1.75-2.83,4.11-4.66,7.56-4.63Z"/><path class="cls-3" d="M38.84,19.13c-.97,.25-1.69,.83-2.21,1.67-.18,.29-.35,.58-.55,.85-.3,.4-.66,.79-1.22,.57-.6-.24-.74-.79-.71-1.37,.02-.46,.24-.88,.51-1.26,2.1-2.97,5.39-3.32,8.32-1.93,.24,.11,.46,.31,.64,.51,.31,.35,.57,.76,.28,1.24-.3,.5-.78,.57-1.29,.41-.64-.2-1.26-.45-1.89-.68-.63-.04-1.25,.16-1.88,0Z"/><path class="cls-3" d="M40.36,19.31c1.44,.51,2.08,1.69,1.62,2.98-.45,1.27-2.06,2-3.31,1.51-1.19-.47-1.8-1.94-1.29-3.13,.31-.72,.89-1.14,1.64-1.34,.44-.24,.89-.22,1.34-.02Z"/><path class="cls-1" d="M40.36,19.31l-1.34,.02-.19-.19c.63-.28,1.25-.25,1.88,0l-.35,.17Z"/><path class="cls-2" d="M21.39,55.71c0,2.54,0,5.09,0,7.63,0,1.13-.46,1.65-1.59,1.65-4.05,.02-8.09,.02-12.14,0-1.07,0-1.57-.53-1.58-1.6-.02-1.38-.02-2.76,0-4.14,.02-1.06,.53-1.64,1.35-1.62,.84,.02,1.34,.6,1.36,1.62,.02,.8,.03,1.6,0,2.39-.02,.49,.16,.62,.63,.62,2.91-.02,5.83-.02,8.74,0,.5,0,.61-.18,.61-.65-.01-3.92-.02-7.85,0-11.77,0-.5-.11-.7-.65-.7-2.88,.02-5.76,.03-8.65,0-.62,0-.69,.25-.68,.76,.02,1.87,.03,3.74,0,5.61-.02,1.18-1.09,1.81-2.04,1.28-.51-.29-.68-.76-.68-1.32,0-2.48-.02-4.97,0-7.45,0-1.06,.54-1.55,1.62-1.55,4.02,0,8.03-.01,12.05,0,1.18,0,1.65,.5,1.65,1.7,0,2.51,0,5.03,0,7.54Z"/><path class="cls-3" d="M13.72,59.11c1.01,0,2.02-.01,3.03,0,.88,.01,1.44,.53,1.49,1.29,.04,.74-.49,1.39-1.37,1.41-2.11,.05-4.22,.05-6.32,0-.87-.02-1.35-.66-1.29-1.47,.05-.71,.61-1.21,1.45-1.23,1.01-.02,2.02,0,3.03,0Z"/><path class="cls-2" d="M5.86,43.31c.52,0,1.04-.03,1.56,0,.78,.06,1.37,.66,1.33,1.37-.05,.79-.53,1.2-1.29,1.31-.6,.08-1.38-.28-1.74,.18-.29,.38-.09,1.11-.14,1.69-.06,.8-.53,1.25-1.3,1.27-.77,.02-1.24-.41-1.35-1.21-.14-1.1-.11-2.2-.01-3.3,.08-.86,.59-1.31,1.47-1.31,.49,0,.98,0,1.47,0h0Z"/><path class="cls-3" d="M5.79,68.15c-2.38,.05-2.99,.24-2.94-3.05,0-.55,.02-1.11,.1-1.65,.1-.73,.58-1.18,1.31-1.15,.75,.03,1.24,.45,1.33,1.25,.07,.6-.28,1.39,.17,1.75,.37,.29,1.12,.07,1.69,.14,.82,.1,1.3,.66,1.28,1.41-.03,.75-.54,1.23-1.39,1.29-.06,0-.12,0-.18,0-.46,0-.92,0-1.38,0Z"/><path class="cls-3" d="M24.49,46.25c0,.58,.03,1.17,0,1.75-.05,.78-.53,1.17-1.27,1.15-.71-.02-1.22-.37-1.3-1.15-.07-.63,.27-1.43-.15-1.86-.39-.39-1.17-.08-1.77-.13-.81-.07-1.21-.53-1.22-1.33-.02-.77,.42-1.27,1.13-1.32,1.13-.09,2.27-.09,3.4,0,.79,.06,1.27,.55,1.21,1.43-.03,.49,0,.98,0,1.47h0Z"/><path class="cls-3" d="M24.49,65.25q0,2.9-2.87,2.9c-.55,0-1.11,.04-1.65-.03-.71-.09-1.19-.49-1.21-1.26-.02-.79,.4-1.27,1.16-1.42,.62-.13,1.44,.25,1.85-.17,.41-.42,.06-1.23,.15-1.86,.11-.77,.62-1.12,1.34-1.11,.68,0,1.17,.39,1.23,1.12,.05,.61,0,1.22,0,1.84Z"/><path class="cls-3" d="M13.73,52.3c-1.01,0-2.02,.01-3.03,0-.92-.01-1.45-.5-1.45-1.3,0-.8,.51-1.33,1.41-1.34,2.05-.02,4.11-.02,6.16,0,.86,.01,1.44,.61,1.42,1.36-.02,.78-.58,1.27-1.47,1.28-1.01,.01-2.02,0-3.03,0Z"/><path class="cls-4" d="M12.14,55.97c.55,0,1.1-.02,1.65,0,.81,.04,1.23,.55,1.28,1.29,.05,.73-.34,1.21-1.11,1.32-1.19,.17-2.37,.18-3.56,.02-.82-.11-1.18-.62-1.14-1.39,.05-.79,.54-1.2,1.32-1.24,.52-.03,1.04,0,1.56,0Z"/><path class="cls-3" d="M12.12,55.45c-.55,0-1.1,.02-1.65,0-.77-.03-1.17-.48-1.21-1.22-.04-.75,.35-1.3,1.07-1.36,1.22-.09,2.45-.08,3.66,0,.75,.05,1.1,.66,1.08,1.36-.02,.73-.43,1.2-1.21,1.22-.58,.01-1.16,0-1.74,0Z"/><path class="cls-7" d="M16.89,55.44c-.86-.02-1.33-.53-1.3-1.4,.03-.71,.59-1.23,1.31-1.22,.73,.01,1.35,.63,1.32,1.34-.02,.79-.56,1.3-1.34,1.28Z"/><path class="cls-4" d="M16.83,58.59c-.82-.04-1.25-.51-1.23-1.37,.01-.75,.62-1.29,1.38-1.25,.73,.04,1.29,.67,1.26,1.41-.03,.78-.58,1.24-1.41,1.21Z"/><path class="cls-5" d="M39.6,21.16c.3,0,.48,.12,.5,.36,.02,.3-.17,.47-.45,.46-.23,0-.4-.16-.41-.41,0-.26,.18-.36,.35-.41Z"/></g></svg>