<?xml version="1.0" encoding="UTF-8"?>
<!DOCTYPE svg PUBLIC "-//W3C//DTD SVG 1.1//EN" "http://www.w3.org/Graphics/SVG/1.1/DTD/svg11.dtd">
<!-- Creator: CorelDRAW 2021.5 -->
<svg xmlns="http://www.w3.org/2000/svg" xml:space="preserve" width="16.9334mm" height="16.7348mm" version="1.1" style="shape-rendering:geometricPrecision; text-rendering:geometricPrecision; image-rendering:optimizeQuality; fill-rule:evenodd; clip-rule:evenodd"
viewBox="0 0 1693.34 1673.48"
 xmlns:xlink="http://www.w3.org/1999/xlink"
 xmlns:xodm="http://www.corel.com/coreldraw/odm/2003">
 <defs>
  <style type="text/css">
   <![CDATA[
    .fil0 {fill:#FEFEFE;fill-rule:nonzero}
   ]]>
  </style>
 </defs>
 <g id="Слой_x0020_1">
  <metadata id="CorelCorpID_0Corel-Layer"/>
  <g id="_лой_1-2">
   <g>
    <polygon class="fil0" points="1059.4,1450.44 1061.51,1450.44 1061.51,1448.59 1059.4,1448.59 "/>
    <polygon class="fil0" points="756.71,1448.59 754.6,1448.59 754.6,1450.44 756.71,1450.44 "/>
    <polygon class="fil0" points="1288,991.39 1288,993.51 1290.11,993.51 1287.99,991.39 "/>
    <polygon class="fil0" points="832.91,1524.52 831.06,1524.52 831.06,1526.64 833.18,1526.64 833.18,1524.52 "/>
    <polygon class="fil0" points="907,1524.52 907,1526.64 909.11,1526.64 909.11,1524.52 "/>
    <path class="fil0" d="M1661.85 1216.28c33.34,-74.35 -23.28,-69.85 -90.49,-82.02 30.69,-30.96 49.21,-47.36 65.09,-66.15 15.35,-17.99 28.05,-38.36 56.89,-78.58 -79.64,10.58 -116.42,-1.85 -91.28,-69.06l62.97 -8.47 0 -71.17 -146.32 0.01c-1.32,21.43 -2.65,43.13 -3.97,68.26 -22.49,4.23 -43.92,8.2 -69.85,12.96 -2.12,44.71 -3.97,88.9 -6.35,139.7l-144.99 0.01c-1.85,-21.96 -3.7,-45.24 -5.56,-68.53 -21.43,-1.32 -42.86,-2.38 -68,-3.97 -4.23,-22.23 -7.94,-43.13 -12.96,-69.32 -22.75,-1.59 -46.04,-3.44 -69.32,-5.03 -1.59,-23.55 -3.44,-47.1 -5.56,-76.2l-223.04 0 0 -68c23.81,-4.5 44.98,-8.47 74.08,-14.02l0 -144.46 -74.34 0c-1.06,21.7 -2.38,43.39 -3.7,69.85l-145 0c-1.85,-23.55 -3.7,-46.57 -5.56,-69.85 -24.87,-0.53 -49.48,-1.32 -74.35,-1.85l0 -74.35 70.65 0c2.12,26.99 3.7,50.54 5.56,74.08l150.54 0 0 -68.79c-29.9,-5.29 -50.8,-9 -78.05,-13.76l0 -220.13 -72.49 0c-1.06,21.7 -2.12,43.92 -3.18,70.91 -25.4,1.85 -49.21,3.44 -72.76,5.03l-2.12 150.55c-24.61,0 -49.48,0 -74.08,0 -1.06,-21.43 -2.12,-42.86 -3.44,-67.73 -21.96,-4.23 -43.13,-8.47 -69.32,-13.76 -1.59,-22.23 -3.44,-45.51 -5.29,-68.79 -21.96,-1.06 -43.92,-2.12 -70.91,-3.18 -1.85,-25.4 -3.44,-48.95 -5.29,-72.76l-219.87 0c-6.35,27.25 -11.64,50.27 -23.28,101.86 -35.45,-38.36 -57.15,-61.91 -78.58,-85.2l11.38 -13.49c-21.43,-2.91 -42.86,-5.82 -70.38,-9.79l-0.01 -294.48 -69.32 0 0 1666.87 1670.58 0c-2.38,-25.93 -4.23,-46.83 -6.88,-74.35l-218.28 0.01c-1.85,-28.58 -3.44,-50.54 -5.03,-72.23l-67.2 0c-6.09,26.46 -11.38,49.48 -16.14,69.32l-297.92 0 0 -145.79 -67.2 0c-5.03,23.55 -9.26,44.19 -14.82,70.91 -21.96,1.59 -45.24,3.44 -68.26,5.29 -1.06,21.43 -2.38,43.13 -3.7,70.11 -22.23,1.59 -42.86,3.18 -69.06,5.03 -1.85,-28.05 -3.7,-51.59 -5.29,-75.14 -21.7,-1.32 -43.39,-2.38 -70.91,-3.97 -1.85,-25.14 -3.7,-48.68 -5.29,-71.97 -24.87,-0.53 -49.48,-1.32 -74.35,-1.85 -1.59,-23.55 -3.44,-47.1 -5.29,-72.5 -27.52,-1.59 -49.21,-2.65 -70.91,-3.7l0 -74.08 150.28 0c0.79,50.01 1.59,100.28 2.12,150.28 21.7,1.06 43.66,2.12 70.91,3.44 1.85,25.14 3.44,48.95 5.03,72.5l74.34 0 0 -145.52 148.7 0c1.85,22.75 3.7,46.04 5.82,69.32 21.7,1.32 43.66,2.65 66.94,4.23 6.61,25.14 12.44,48.15 17.46,67.47l144.2 0 0 -218.55 70.11 0.01c3.97,25.14 7.14,46.3 10.58,68.26l295.02 0 0 -67.2c-25.4,-4.5 -46.83,-8.2 -64.82,-11.38 -27.25,-71.44 24.87,-69.85 60.85,-74.88l0.26 -0.27zm-669.66 -299.24l143.67 0 0 47.1c-38.1,32.54 -65.09,55.56 -92.34,78.85l12.17 24.34 -146.31 -0.01 0 -74.08c23.28,-1.85 46.57,-3.44 68.53,-5.03 5.56,-26.99 9.79,-47.63 14.55,-70.91l-0.27 -0.26zm-619.92 -536.04l0 73.29c-18.79,1.06 -42.07,9.53 -50.54,1.59 -14.82,-14.02 -20.37,-37.84 -34.4,-66.41 34.13,-3.44 55.3,-5.56 84.67,-8.47l0.27 0zm1.59 155.31l0 74.08c-23.28,1.59 -46.57,3.44 -68.79,5.03 -5.03,26.46 -9.26,47.36 -13.76,71.17l-67.47 0c0,-50.01 0,-100.01 0,-150.02 46.83,0 93.93,0 150.02,0l0 -0.26zm-222.25 226.21c-1.59,-23.55 -2.91,-44.19 -5.03,-74.08l74.88 0 0 74.08 -69.85 0zm146.05 609.6l-69.85 0c-1.59,-24.08 -3.18,-44.71 -5.29,-74.08l75.14 0c0,24.61 0,49.48 0,74.08zm0 -152.4l-142.35 0c-16.67,-48.95 -14.55,-79.38 47.1,-75.41 31.49,2.12 63.24,1.06 94.99,1.32 0,24.61 0,49.48 0,74.08l0.26 0.01zm-221.99 -756.97l145.79 0 0 71.44 -145.79 0 0 -71.44zm0 454.03c22.75,0 46.3,0 69.59,0l0 65.35c-61.38,22.23 -84.14,5.29 -69.59,-65.35zm-1.32 679.18c-1.32,-20.11 -2.38,-39.16 -4.23,-70.91l149.22 0c0,21.7 0,43.66 0,70.91l-144.99 0zm147.37 -72.76c1.32,-21.43 2.65,-42.86 4.23,-73.03 25.4,0 48.42,0 71.7,0l0 73.03c-26.99,0 -51.33,0 -75.94,0l0.01 0zm236.01 3.18c21.7,0 45.24,0 68.53,0l0 65.88c-60.06,20.64 -85.73,7.14 -68.53,-65.88zm220.66 -76.2l0 137.58c-76.46,44.19 -71.97,-18.26 -81.76,-59 -24.87,-1.59 -46.57,-3.18 -68.26,-4.5 0,-50.01 0,-100.01 0,-150.02l74.35 0c1.85,23.55 3.44,46.83 5.29,71.97 27.52,1.59 49.21,2.91 70.64,4.23l-0.26 -0.26zm-80.69 -307.45c-5.56,-5.29 -11.38,-10.58 -16.93,-16.14 -24.08,26.72 -48.15,53.45 -83.34,92.6 -1.06,0 -22.49,4.5 -39.95,7.94 -28.31,73.29 25.66,69.59 68.53,75.41l0 69.32c-21.43,1.06 -43.13,2.12 -68.26,3.44 -4.23,22.23 -8.2,43.39 -13.76,72.5l-144.48 0c0,-24.61 0,-49.21 0,-73.82 23.55,-1.59 47.1,-3.18 74.88,-5.29 -1.59,-26.46 -2.91,-47.63 -4.5,-73.03l-70.38 0c0,-24.87 0,-49.48 0,-74.35 23.55,-1.59 47.1,-3.18 74.88,-5.03 -1.85,-26.19 -3.18,-47.36 -4.76,-69.59 -26.99,-1.32 -48.68,-2.38 -70.38,-3.18 0,-21.7 0,-43.39 0,-54.77 39.95,-57.68 153.19,40.22 150.28,-93.66l-216.16 0.01c-7.14,-28.58 -12.7,-51.59 -18.79,-76.46 -23.81,-1.32 -45.51,-2.65 -67.2,-3.97 0,-21.43 0,-43.13 0,-68 23.55,-4.23 44.71,-7.94 70.91,-12.7 1.59,-22.75 3.44,-46.04 5.03,-69.32l75.93 0 0 147.11 76.73 0 0 -142.61c29.37,-5.29 50.8,-9 71.7,-12.7 0.18,-41.45 -23.81,-68.18 -71.97,-80.17l0 -64.03c46.3,0 92.6,0 142.35,0 5.56,-25.4 10.05,-46.3 16.67,-76.2l67.46 0c1.85,23.28 3.44,46.83 5.29,71.7 27.52,1.59 49.21,2.91 70.64,4.23l0 143.67c-23.81,4.76 -44.71,9 -73.82,14.82l0 144.2c21.7,1.32 43.66,2.65 69.32,4.23 6.09,41.8 5.82,93.13 76.46,66.15 3.18,-18.79 6.88,-40.22 10.85,-64.03 20.9,-2.91 40.48,-5.56 64.29,-8.73 3.44,-20.11 7.14,-41.8 12.17,-71.17l69.61 0c0,50.01 0,100.28 0,150.28 -23.55,1.59 -47.36,3.18 -72.5,5.03 -1.32,27.25 -2.38,49.21 -3.44,71.17 -23.55,1.85 -47.1,3.7 -76.2,6.09l0 146.05 -76.99 -0.01 0 -141.02c-74.88,-34.4 -73.55,19.58 -80.17,64.29l0 -0.26zm159.01 153.19c0,-24.61 0,-49.48 0,-74.08 24.61,0 49.48,0 74.08,0l0 74.08c-28.31,0 -51.33,0 -74.08,0zm76.2 -76.46l0 -150.28c24.61,0 49.48,0 74.08,0l0 150.55 -74.08 -0.01 0 -0.26zm375.45 141.02c-43.04,11.11 -69.85,-9.79 -80.44,-62.7l-218.54 0 0 -75.94c72.5,0 144.99,0 222.25,0 4.5,-48.42 7.14,-97.37 76.73,-70.11l0 208.76 0 -0.01zm304.53 -71.7c-67.2,29.1 -73.82,-13.23 -74.08,-64.03 -45.77,-2.65 -92.6,-5.56 -66.41,-75.14l140.23 0 0 139.17 0.26 0z"/>
    <path class="fil0" d="M1290.11 686.32c0,0 -1.32,0 -2.12,0l0 2.12 2.12 0 0 -1.85 0 -0.27z"/>
    <polygon class="fil0" points="1517.39,840.31 1516.6,841.1 1518.45,841.11 1518.45,838.99 1516.6,838.99 1516.6,841.11 1517.13,840.32 "/>
    <path class="fil0" d="M1517.39 301.88c-28.31,2.12 -51.59,3.7 -74.61,5.56l0 305.06 -152.4 0.01 0 74.08c31.75,0.53 63.76,3.18 95.25,0.53 55.3,-4.5 63.5,22.75 48.95,77.79l-143.94 0 0 74.08 226.75 0c1.85,-23.55 3.97,-47.1 6.35,-76.46l145.52 -0.01c-1.32,-27.78 -2.38,-48.68 -3.7,-76.46l-145.79 0c-3.18,-132.82 109.27,-38.36 152.4,-101.6 -7.41,-10.32 -20.11,-30.69 -35.72,-48.95 -15.88,-18.79 -34.4,-35.19 -66.41,-67.2 50.54,-7.41 72.23,-10.58 95.25,-14.02l0 -70.64c-56.36,3.97 -89.16,-10.05 -61.91,-74.61 47.1,0.53 87.84,-8.47 57.15,-76.2 -43.66,-0.79 -87.58,-7.14 -58.21,-71.17 45.16,-9.36 66.23,-26.3 63.24,-50.81 -41.01,-43.13 -67.47,-70.64 -105.57,-110.6 -6.88,5.29 -38.1,17.73 -39.69,33.34 -6.09,60.33 -39.42,44.19 -76.73,37.31 2.65,-56.36 -12.44,-88.64 -74.88,-58.74l0 136.26c24.34,4.23 45.77,7.94 69.06,11.91 1.59,25.14 3.18,47.1 4.5,68.79 21.17,1.32 42.6,2.38 69.85,3.97 1.59,21.96 3.18,42.33 5.03,68.53l0.26 0.25z"/>
    <polygon class="fil0" points="1290.11,612.24 1290.11,610.12 1288,610.12 1288,612.24 "/>
    <polygon class="fil0" points="1442.51,229.39 1440.4,229.39 1440.4,231.24 1442.51,231.24 "/>
    <polygon class="fil0" points="1288,762.52 1288,764.64 1290.11,764.64 1290.11,762.52 "/>
    <path class="fil0" d="M1288 762.52c0,-24.61 0,-49.48 0,-74.08 -21.43,-1.06 -42.86,-2.38 -70.11,-3.7 -1.59,-21.96 -2.91,-42.6 -4.76,-68.53 28.31,-2.12 51.59,-3.97 74.88,-5.56 1.06,-21.7 2.12,-43.66 3.44,-69.59 43.66,-6.09 97.63,-6.61 62.71,-81.49l-136.28 0.01c-2.38,-28.84 -4.23,-52.12 -6.09,-75.67l-74.34 0 0 378.88 150.28 0 0.27 -0.27z"/>
    <polygon class="fil0" points="1137.71,383.64 1137.71,381.52 1135.6,381.52 1135.6,383.64 "/>
    <polygon class="fil0" points="528.11,381.52 526,381.52 526,383.64 528.11,383.64 "/>
    <polygon class="fil0" points="528.11,307.44 528.11,305.32 526,305.32 526,307.44 "/>
    <polygon class="fil0" points="678.66,381.52 678.66,383.64 680.51,383.64 680.51,381.52 "/>
    <path class="fil0" d="M678.66 381.52c1.32,-21.7 2.38,-43.39 3.97,-70.64 25.14,-1.85 48.68,-3.7 71.97,-5.29l0 -67.2c-26.46,-6.35 -49.48,-11.91 -78.05,-18.79l-0.01 -210.08c-71.97,-28.05 -73.82,21.7 -79.11,64.56 -25.66,1.85 -47.36,3.18 -69.06,4.76l0 66.41c26.46,6.88 49.48,12.7 69.85,17.99l0 139.96c-26.46,1.59 -48.42,2.91 -70.11,4.23l0 74.08c50.27,0 100.28,0 150.55,0l0 0.01z"/>
    <polygon class="fil0" points="526.26,79.11 528.38,79.11 528.38,76.99 "/>
    <polygon class="fil0" points="756.71,610.12 754.86,610.12 754.86,612.24 756.98,612.24 756.98,610.12 "/>
    <polygon class="fil0" points="756.71,307.44 756.71,305.32 754.6,305.32 754.6,307.44 "/>
    <polygon class="fil0" points="908.05,611.18 906.99,612.24 908.85,612.24 908.85,610.12 907,610.12 907,612.24 908.06,611.18 "/>
    <polygon class="fil0" points="447.94,77.25 450.06,77.25 447.94,75.13 "/>
    <polygon class="fil0" points="221.46,79.11 223.58,79.11 223.58,76.99 "/>
    <polygon class="fil0" points="223.58,154.78 223.58,152.93 221.46,152.92 223.58,154.77 "/>
    <path class="fil0" d="M367.77 6.87c-71.97,-25.93 -68.79,27.52 -75.41,68 -25.4,1.59 -47.1,2.91 -68.53,3.97l0 74.08c23.28,1.85 46.3,3.7 56.36,4.5 19.84,31.49 30.16,54.24 46.83,70.91 6.88,6.88 27.25,-0.26 42.6,-1.06 3.97,-26.19 7.41,-47.63 10.32,-67.2 25.66,-5.29 46.83,-9.53 71.17,-14.55 -1.06,-25.14 -2.12,-46.83 -3.18,-68.53 -21.43,0 -42.86,0 -65.88,0 -5.56,-27.52 -10.32,-50.8 -14.29,-70.11l0.01 -0.01z"/>
    <path class="fil0" d="M1666.08 1454.41l-223.83 0 0 70.38c74.35,0 148.96,0 223.84,0l0 -70.38 -0.01 0z"/>
    <polygon class="fil0" points="1442.51,1524.79 1440.4,1524.79 1441.46,1525.85 1440.4,1524.79 1440.4,1526.91 1442.51,1526.91 "/>
    <path class="fil0" d="M1065.48 7.93l0 144.73 69.85 0 0 -152.66c-30.43,3.44 -51.33,5.82 -69.85,7.94l0 -0.01z"/>
    <polygon class="fil0" points="1135.6,152.66 1135.6,154.78 1137.72,152.66 "/>
    <path class="fil0" d="M907 224.63l0 -145.52c-24.61,0 -49.21,0 -73.55,0l0 151.61c28.84,-2.38 49.74,-3.97 73.55,-6.09z"/>
    <polygon class="fil0" points="907,76.99 907,79.11 909.11,79.11 906.99,76.99 "/>
    <polygon class="fil0" points="833.18,79.11 833.18,76.99 831.06,79.11 "/>
    <path class="fil0" d="M1137.71 154.78l0 71.97 152.14 -0.01c-1.85,-23.02 -3.7,-46.3 -5.56,-71.97l-146.58 0.01z"/>
    <polygon class="fil0" points="1135.6,154.78 1137.71,154.78 1137.71,152.66 1135.59,154.78 "/>
    <polygon class="fil0" points="913.08,307.44 913.08,457.46 983.19,457.46 983.19,307.44 "/>
    <polygon class="fil0" points="983.19,457.72 983.19,459.84 985.31,459.84 985.31,457.72 "/>
    <polygon class="fil0" points="985.31,610.12 983.2,610.12 983.2,612.24 985.31,612.24 "/>
    <polygon class="fil0" points="1055.16,459.84 985.31,459.84 985.31,610.12 1055.16,610.12 "/>
    <polygon class="fil0" points="1291.17,227.8 1291.96,226.74 1289.85,226.74 1289.85,229.12 1291.96,229.12 1291.96,227 1291.17,227.79 "/>
    <polygon class="fil0" points="1440.66,305.32 1440.66,307.44 1442.78,307.44 1442.78,305.32 "/>
    <path class="fil0" d="M1440.66 231.24c-49.48,-0.79 -98.95,-1.32 -148.43,-2.12 -0.53,25.4 -1.06,50.8 -1.59,76.2l150.28 0c0,-24.61 0,-49.48 0,-74.08l-0.26 0z"/>
    <polygon class="fil0" points="1290.38,305.32 1288.26,305.32 1288.26,307.44 1290.38,307.44 "/>
    <path class="fil0" d="M155.58 76.99l65.88 0c0,-23.55 0,-47.1 0,-68.79 -72.23,-16.67 -87.05,8.2 -65.88,68.79z"/>
    <polygon class="fil0" points="221.46,79.11 223.58,76.99 221.46,76.99 "/>
    <polygon class="fil0" points="526.26,79.11 528.38,76.99 526.26,76.99 "/>
    <path class="fil0" d="M453.5 5.82c-1.32,26.72 -2.38,48.15 -3.44,69.32 25.4,0.53 50.8,1.06 76.2,1.59 0,-23.02 0,-46.3 0,-74.61 -29.37,1.32 -50.01,2.38 -72.76,3.44l0 0.26z"/>
    <polygon class="fil0" points="450.06,77.25 450.06,75.4 447.94,75.4 "/>
    <polygon class="fil0" points="833.18,76.99 831.06,76.99 831.06,79.11 "/>
    <path class="fil0" d="M831.06 76.99c0,-23.28 0,-46.57 0,-69.59 -71.44,-16.14 -87.58,8.2 -66.41,69.59l66.41 0z"/>
    <polygon class="fil0" points="1213.91,381.52 1211.8,381.52 1211.8,383.64 1213.91,383.64 "/>
    <polygon class="fil0" points="1288,307.44 1213.91,307.44 1213.91,381.52 1288,381.52 "/>
    <polygon class="fil0" points="1061.51,307.44 1061.51,305.32 1059.4,305.32 1059.4,307.44 "/>
    <polygon class="fil0" points="1135.86,381.52 1135.86,307.44 1061.78,307.44 1061.78,381.52 "/>
    <path class="fil0" d="M1283.76 5.82c-60.33,-12.96 -83.87,4.5 -64.29,66.15 55.83,16.4 80.96,1.06 64.29,-66.15z"/>
    <path class="fil0" d="M1059.66 230.45c-29.9,2.12 -50.54,3.44 -74.08,5.03l0 69.85c24.61,0 49.48,0 74.08,0l0 -74.88z"/>
    <polygon class="fil0" points="985.31,305.32 983.2,305.32 983.2,307.44 985.31,307.44 "/>
    <path class="fil0" d="M525.99 230.45c-30.16,2.12 -50.8,3.44 -74.08,5.03l0 70.11c24.61,0 49.48,0 74.08,0l0 -74.88 0 -0.26z"/>
    <polygon class="fil0" points="451.91,305.32 449.79,305.32 449.79,307.44 451.91,307.44 "/>
    <polygon class="fil0" points="223.58,154.78 221.46,152.66 221.46,154.78 "/>
    <path class="fil0" d="M221.46 220.66l0 -65.88c-23.28,0 -46.83,0 -68.79,0 -16.67,73.03 9,86.78 68.79,65.88z"/>
    <path class="fil0" d="M909.11 10.58l0 66.41c23.55,0 47.1,0 69.32,0 16.4,-74.08 -10.58,-86.25 -69.32,-66.41z"/>
    <polygon class="fil0" points="907,76.99 909.12,79.11 909.12,76.99 "/>
    <path class="fil0" d="M602.46 982.66l0 -65.62c-23.55,0 -47.1,0 -69.06,0 -16.67,71.97 8.2,86.78 69.06,65.62z"/>
    <polygon class="fil0" points="602.46,916.78 604.58,916.78 603.52,915.72 604.58,916.78 604.58,914.66 602.46,914.66 "/>
    <polygon class="fil0" points="1288,991.39 1290.12,993.51 1290.12,991.39 "/>
    <path class="fil0" d="M1290.11 924.18l0 67.2c23.28,0 46.3,0 68.79,0 17.73,-74.88 -11.11,-85.73 -68.79,-67.2z"/>
   </g>
  </g>
 </g>
</svg>
