<?xml version="1.0" encoding="UTF-8"?>
<!DOCTYPE svg PUBLIC "-//W3C//DTD SVG 1.1//EN" "http://www.w3.org/Graphics/SVG/1.1/DTD/svg11.dtd">
<!-- Creator: CorelDRAW 2021.5 -->
<svg xmlns="http://www.w3.org/2000/svg" xml:space="preserve" width="21.5441mm" height="18.2722mm" version="1.1" style="shape-rendering:geometricPrecision; text-rendering:geometricPrecision; image-rendering:optimizeQuality; fill-rule:evenodd; clip-rule:evenodd"
viewBox="0 0 2154.84 1827.58"
 xmlns:xlink="http://www.w3.org/1999/xlink"
 xmlns:xodm="http://www.corel.com/coreldraw/odm/2003">
 <defs>
  <style type="text/css">
   <![CDATA[
    .fil0 {fill:#FEFEFE;fill-rule:nonzero}
   ]]>
  </style>
 </defs>
 <g id="Слой_x0020_1">
  <metadata id="CorelCorpID_0Corel-Layer"/>
  <g id="_лой_1-2">
   <g>
    <path class="fil0" d="M1625.92 1281.11c15.08,-11.64 12.96,-30.7 0.26,-42.87 -12.44,-11.91 -28.85,-11.91 -43.14,1.59 -7.14,6.61 -11.91,15.61 -19.31,25.67 -8.2,-9 -10.85,-11.91 -13.76,-15.08 -66.95,-73.04 -148.99,-101.88 -246.64,-85.22 -124.64,21.43 -219.12,142.38 -210.38,268.6 9.53,137.08 116.7,244.53 247.96,248.23 174.92,5.03 304.86,-150.58 264.37,-320.47 -8.2,-34.67 -9.26,-58.22 20.37,-80.72l0.27 0.27zm-176.51 315.71c-94.21,52.66 -214.09,19.31 -268.87,-74.36 -55.31,-94.48 -24.87,-215.15 68.8,-272.04 89.18,-54.25 211.44,-29.11 266.49,57.16 -50.81,50.55 -100.83,100.56 -151.11,150.58 -3.44,3.44 -7.41,6.35 -12.7,11.11 -24.34,-24.61 -48.43,-48.96 -72.77,-73.3 -5.03,-5.03 -9.53,-10.32 -15.08,-14.55 -14.29,-10.85 -28.85,-11.11 -41.55,2.12 -11.91,12.44 -12.44,27.79 -0.79,39.7 36.52,37.85 73.56,75.16 111.41,111.67 14.29,13.76 28.85,10.85 46.05,-6.09 48.69,-48.43 97.12,-97.39 145.82,-145.82 5.29,-5.29 11.11,-10.32 16.67,-15.88 36.52,68.8 -10.58,183.66 -92.89,229.71l0.52 0.01z"/>
    <path class="fil0" d="M2152.29 1305.45c-2.91,-28.32 -26.73,-46.05 -56.37,-47.11 -18.26,-0.79 -36.52,0 -54.78,0 -26.47,0 -52.66,0 -80.45,0l0 -30.44c0,-279.72 0,-559.44 0,-839.16 0,-7.14 0.79,-14.29 -0.53,-20.9 -2.91,-14.29 -11.11,-24.08 -26.73,-25.15 -16.14,-1.32 -27.53,6.09 -31.5,21.7 -2.12,8.73 -2.12,17.99 -2.12,27 0,279.72 0,559.44 0,839.16l0 25.94 -81.77 0c0,-40.49 0.53,-78.87 0,-117.5 -1.06,-46.84 -22.23,-84.16 -64.04,-103.47 -25.67,-11.91 -29.64,-26.73 -28.85,-51.34 1.59,-61.92 0.53,-123.58 0.53,-185.51 0,-14.02 0.53,-28.32 -1.32,-42.08 -24.61,-208.27 -199.01,-351.17 -407.01,-333.97 -183.4,15.08 -333.45,175.99 -335.56,360.43 -0.79,72.24 -0.53,144.76 0,217.26 0,15.08 -3.44,23.28 -18.52,29.91 -48.16,20.9 -73.3,59.01 -74.36,112.2 -0.53,30.97 0,61.92 0,92.89 0,7.41 -0.79,14.82 -1.06,21.43l-632.48 0.01c0,-28.59 0,-55.31 0,-81.78 0,-24.08 -11.38,-37.85 -29.91,-38.64 -19.05,-0.53 -30.97,14.02 -30.97,38.9 0,27.26 0,54.25 0,83.36 -39.96,0 -77.01,1.59 -114.06,-0.53 -37.85,-2.12 -65.36,9.79 -80.45,45.78l0 84.42c1.59,5.29 3.7,10.58 4.76,15.88 16.93,104.27 105.32,182.87 210.91,186.04 42.87,1.32 85.48,0.53 128.35,0.53 173.33,0 346.67,0.26 519.74,-0.26 19.05,0 25.94,5.03 24.87,24.87 -1.59,32.29 -1.32,64.57 0,96.86 2.65,59.54 49.22,111.67 106.91,113.53 94.74,2.91 189.48,1.59 283.96,1.32 7.67,0 18.52,-3.44 22.23,-9 5.29,-8.47 8.73,-20.64 6.88,-30.17 -2.65,-14.55 -15.35,-20.11 -30.44,-20.11 -84.16,0 -168.31,0 -252.46,0 -52.4,0 -77.54,-22.75 -77.81,-74.62 -0.79,-181.28 -0.79,-362.55 0,-543.83 0,-45.78 25.94,-69.86 71.45,-69.86 222.29,0 444.85,0 667.14,0 45.52,0 71.45,24.34 71.71,69.6 0.53,181.28 0.53,362.55 0,543.83 0,50.55 -25.67,74.62 -75.69,74.62 -84.16,0 -168.31,0 -252.46,0 -21.96,0 -35.99,11.91 -35.73,29.64 0,16.93 13.23,29.64 33.88,29.64 91.3,0.26 182.34,1.59 273.63,-0.79 67.21,-1.85 114.32,-52.93 115.91,-120.41 0.79,-32.29 0.79,-64.57 0,-96.86 -0.26,-13.76 4.5,-18.79 18.26,-18.52 34.41,0.53 68.8,0.53 103.21,-0.53 62.98,-1.59 115.11,-27.53 157.19,-73.83 55.31,-60.34 63.77,-133.91 55.84,-210.91l0 0.54zm-1264.69 211.71c0,4.76 -8.2,10.05 -13.23,13.76 -2.38,1.59 -6.88,0.26 -10.32,0.26 -210.38,0 -420.77,0 -631.43,0 -86.54,0 -153.22,-53.46 -167.78,-135.76 -4.23,-23.55 -0.53,-48.69 -0.53,-74.36l824.08 0c0,67.21 0.26,131.79 -0.53,196.36l-0.26 -0.26zm637.51 -499.9l-342.71 0c-0.53,-4.5 -1.32,-7.67 -1.32,-11.11 0,-73.83 -1.32,-147.67 0.79,-221.23 2.38,-87.6 73.56,-158.78 161.16,-164.6 93.42,-6.35 179.16,68.8 182.07,162.75 2.12,77.28 0.53,154.55 0.53,234.47l-0.52 -0.27zm139.46 0l-77.01 0c-0.26,-7.94 -1.06,-15.35 -1.06,-22.75 0,-67.48 0.26,-134.97 0,-202.45 -1.06,-115.91 -90.77,-218.32 -200.33,-229.97 -124.11,-13.23 -231.3,60.07 -259.08,177.84 -4.23,18.26 -5.82,37.58 -6.09,56.37 -0.79,65.36 -0.26,130.73 -0.26,196.1l0 24.34 -77.27 -0.01c-0.79,-5.29 -2.12,-10.05 -2.12,-14.82 0.53,-78.6 -1.32,-157.46 2.38,-236.06 6.35,-137.61 125.17,-263.58 261.72,-281.31 175.72,-22.75 324.44,85.75 356.2,260.4 3.7,20.64 3.97,42.08 3.97,62.98 0.53,61.13 0,122.26 0,183.4 0,8.2 -0.79,16.67 -1.06,25.94zm268.34 513.39c-32.82,1.32 -65.89,1.06 -98.97,-0.26 -5.29,0 -14.82,-8.73 -14.82,-13.76 -1.06,-64.57 -0.79,-129.15 -0.79,-196.36l271.51 0c22.49,117.76 -53.72,205.89 -157.19,210.12l0.26 0.26z"/>
    <path class="fil0" d="M223.35 1052.72c17.73,0.79 28.32,-10.58 31.23,-28.06 1.32,-7.41 0.53,-15.35 0.53,-23.02 0,-276.81 0,-553.62 0,-830.43 0,-69.07 42.61,-111.67 111.41,-111.67 474.22,0 948.19,0 1422.42,0 67.48,0 109.82,43.14 110.35,110.88 0,19.58 -0.79,39.43 0.79,59.01 1.32,16.14 10.05,27.53 28.06,28.32 17.46,0.79 30.97,-8.47 30.97,-24.61 0,-38.37 2.12,-78.07 -6.61,-114.85 -17.47,-74.35 -81.52,-118.28 -163.29,-118.28 -237.12,0 -474.22,0 -711.34,0 -235,0 -469.99,0 -704.99,0 -17.46,0 -35.46,0 -52.13,4.23 -76.48,17.99 -126.5,82.31 -126.5,162.48 0,281.05 0,562.09 0,843.13 0,4.23 0,8.47 0,12.7 1.32,17.99 11.64,29.38 29.11,30.17l0 0.01z"/>
    <path class="fil0" d="M637.78 182.07c0,-43.14 -12.17,-53.46 -54.78,-48.96 -84.95,9 -151.9,48.43 -201.65,118.02 -43.67,61.13 -61.39,129.41 -51.6,202.98 19.31,145.29 147.4,251.93 299.57,242.41 134.17,-8.47 250.88,-126.24 257.49,-265.69 1.59,-32.82 -9.53,-44.46 -43.14,-44.46 -60.34,0 -120.67,0 -180.75,0l-25.15 0c0,-70.65 0,-137.35 0,-204.03l0 -0.27zm160.1 264.9l22.49 0c5.82,91.3 -100.3,185.78 -210.12,189.75 -119.08,4.23 -224.67,-100.3 -222.82,-220.97 1.85,-125.97 104,-207.21 189.48,-217.26 0,18.26 0,36.52 0,54.51 0,51.87 0,104 0,155.87 0,28.06 10.05,38.11 37.85,38.11 60.86,0 121.99,0 182.87,0l0.26 0z"/>
    <path class="fil0" d="M854.51 819.31c19.31,-1.06 32.02,-12.44 32.29,-28.85 0.53,-17.2 -12.96,-30.17 -33.08,-30.17 -82.57,-0.26 -165.39,0 -247.96,0l-0.01 0c-80.45,0 -161.16,0 -241.61,0 -16.14,0 -29.38,4.23 -34.67,20.9 -6.61,20.9 7.14,38.11 31.23,38.64 48.43,0.53 96.59,0.26 145.02,0.26 110.09,0 219.91,0 330.01,0 6.35,0 12.7,0 18.79,0l-0.01 -0.79z"/>
    <path class="fil0" d="M540.66 882.57c-59.54,0 -119.08,0 -178.63,0 -21.7,0 -33.35,10.58 -33.88,28.85 -0.53,18.52 10.05,29.11 31.76,31.5 2.12,0 4.23,0.26 6.35,0.26 114.85,0 229.71,0 344.56,0 26.2,0 38.64,-11.11 38.11,-31.5 -0.53,-19.58 -12.7,-28.85 -38.11,-28.85 -56.63,0 -113.53,0 -170.16,0l0 -0.26z"/>
   </g>
  </g>
 </g>
</svg>
