<?xml version="1.0" encoding="UTF-8"?><svg id="_лой_2" xmlns="http://www.w3.org/2000/svg" viewBox="0 0 81.43 69.07"><defs><style>.cls-1{fill:#bc2539;}</style></defs><g id="_лой_1-2"><g><path class="cls-1" d="M61.45,48.41c.57-.44,.49-1.16,.01-1.62-.47-.45-1.09-.45-1.63,.06-.27,.25-.45,.59-.73,.97-.31-.34-.41-.45-.52-.57-2.53-2.76-5.63-3.85-9.32-3.22-4.71,.81-8.28,5.38-7.95,10.15,.36,5.18,4.41,9.24,9.37,9.38,6.61,.19,11.52-5.69,9.99-12.11-.31-1.31-.35-2.2,.77-3.05Zm-6.67,11.93c-3.56,1.99-8.09,.73-10.16-2.81-2.09-3.57-.94-8.13,2.6-10.28,3.37-2.05,7.99-1.1,10.07,2.16-1.92,1.91-3.81,3.8-5.71,5.69-.13,.13-.28,.24-.48,.42-.92-.93-1.83-1.85-2.75-2.77-.19-.19-.36-.39-.57-.55-.54-.41-1.09-.42-1.57,.08-.45,.47-.47,1.05-.03,1.5,1.38,1.43,2.78,2.84,4.21,4.22,.54,.52,1.09,.41,1.74-.23,1.84-1.83,3.67-3.68,5.51-5.51,.2-.2,.42-.39,.63-.6,1.38,2.6-.4,6.94-3.51,8.68Z"/><path class="cls-1" d="M81.34,49.33c-.11-1.07-1.01-1.74-2.13-1.78-.69-.03-1.38,0-2.07,0-1,0-1.99,0-3.04,0v-1.15c0-10.57,0-21.14,0-31.71,0-.27,.03-.54-.02-.79-.11-.54-.42-.91-1.01-.95-.61-.05-1.04,.23-1.19,.82-.08,.33-.08,.68-.08,1.02,0,10.57,0,21.14,0,31.71v.98h-3.09c0-1.53,.02-2.98,0-4.44-.04-1.77-.84-3.18-2.42-3.91-.97-.45-1.12-1.01-1.09-1.94,.06-2.34,.02-4.67,.02-7.01,0-.53,.02-1.07-.05-1.59-.93-7.87-7.52-13.27-15.38-12.62-6.93,.57-12.6,6.65-12.68,13.62-.03,2.73-.02,5.47,0,8.21,0,.57-.13,.88-.7,1.13-1.82,.79-2.77,2.23-2.81,4.24-.02,1.17,0,2.34,0,3.51,0,.28-.03,.56-.04,.81H9.66c0-1.08,0-2.09,0-3.09,0-.91-.43-1.43-1.13-1.46-.72-.02-1.17,.53-1.17,1.47,0,1.03,0,2.05,0,3.15-1.51,0-2.91,.06-4.31-.02-1.43-.08-2.47,.37-3.04,1.73v3.19c.06,.2,.14,.4,.18,.6,.64,3.94,3.98,6.91,7.97,7.03,1.62,.05,3.23,.02,4.85,.02,6.55,0,13.1,.01,19.64-.01,.72,0,.98,.19,.94,.94-.06,1.22-.05,2.44,0,3.66,.1,2.25,1.86,4.22,4.04,4.29,3.58,.11,7.16,.06,10.73,.05,.29,0,.7-.13,.84-.34,.2-.32,.33-.78,.26-1.14-.1-.55-.58-.76-1.15-.76-3.18,0-6.36,0-9.54,0-1.98,0-2.93-.86-2.94-2.82-.03-6.85-.03-13.7,0-20.55,0-1.73,.98-2.64,2.7-2.64,8.4,0,16.81,0,25.21,0,1.72,0,2.7,.92,2.71,2.63,.02,6.85,.02,13.7,0,20.55,0,1.91-.97,2.82-2.86,2.82-3.18,0-6.36,0-9.54,0-.83,0-1.36,.45-1.35,1.12,0,.64,.5,1.12,1.28,1.12,3.45,.01,6.89,.06,10.34-.03,2.54-.07,4.32-2,4.38-4.55,.03-1.22,.03-2.44,0-3.66-.01-.52,.17-.71,.69-.7,1.3,.02,2.6,.02,3.9-.02,2.38-.06,4.35-1.04,5.94-2.79,2.09-2.28,2.41-5.06,2.11-7.97Zm-47.79,8c0,.18-.31,.38-.5,.52-.09,.06-.26,.01-.39,.01-7.95,0-15.9,0-23.86,0-3.27,0-5.79-2.02-6.34-5.13-.16-.89-.02-1.84-.02-2.81h31.14c0,2.54,.01,4.98-.02,7.42Zm24.09-18.89h-12.95c-.02-.17-.05-.29-.05-.42,0-2.79-.05-5.58,.03-8.36,.09-3.31,2.78-6,6.09-6.22,3.53-.24,6.77,2.6,6.88,6.15,.08,2.92,.02,5.84,.02,8.86Zm5.27,0h-2.91c-.01-.3-.04-.58-.04-.86,0-2.55,.01-5.1,0-7.65-.04-4.38-3.43-8.25-7.57-8.69-4.69-.5-8.74,2.27-9.79,6.72-.16,.69-.22,1.42-.23,2.13-.03,2.47-.01,4.94-.01,7.41v.92h-2.92c-.03-.2-.08-.38-.08-.56,.02-2.97-.05-5.95,.09-8.92,.24-5.2,4.73-9.96,9.89-10.63,6.64-.86,12.26,3.24,13.46,9.84,.14,.78,.15,1.59,.15,2.38,.02,2.31,0,4.62,0,6.93,0,.31-.03,.63-.04,.98Zm10.14,19.4c-1.24,.05-2.49,.04-3.74-.01-.2,0-.56-.33-.56-.52-.04-2.44-.03-4.88-.03-7.42h10.26c.85,4.45-2.03,7.78-5.94,7.94Z"/><path class="cls-1" d="M8.45,39.78c.67,.03,1.07-.4,1.18-1.06,.05-.28,.02-.58,.02-.87,0-10.46,0-20.92,0-31.38,0-2.61,1.61-4.22,4.21-4.22,17.92,0,35.83,0,53.75,0,2.55,0,4.15,1.63,4.17,4.19,0,.74-.03,1.49,.03,2.23,.05,.61,.38,1.04,1.06,1.07,.66,.03,1.17-.32,1.17-.93,0-1.45,.08-2.95-.25-4.34C73.13,1.66,70.71,0,67.62,0c-8.96,0-17.92,0-26.88,0-8.88,0-17.76,0-26.64,0-.66,0-1.34,0-1.97,.16-2.89,.68-4.78,3.11-4.78,6.14,0,10.62,0,21.24,0,31.86,0,.16,0,.32,0,.48,.05,.68,.44,1.11,1.1,1.14Z"/><path class="cls-1" d="M24.11,6.88c0-1.63-.46-2.02-2.07-1.85-3.21,.34-5.74,1.83-7.62,4.46-1.65,2.31-2.32,4.89-1.95,7.67,.73,5.49,5.57,9.52,11.32,9.16,5.07-.32,9.48-4.77,9.73-10.04,.06-1.24-.36-1.68-1.63-1.68-2.28,0-4.56,0-6.83,0h-.95c0-2.67,0-5.19,0-7.71Zm6.05,10.01h.85c.22,3.45-3.79,7.02-7.94,7.17-4.5,.16-8.49-3.79-8.42-8.35,.07-4.76,3.93-7.83,7.16-8.21,0,.69,0,1.38,0,2.06,0,1.96,0,3.93,0,5.89,0,1.06,.38,1.44,1.43,1.44,2.3,0,4.61,0,6.91,0Z"/><path class="cls-1" d="M32.3,30.96c.73-.04,1.21-.47,1.22-1.09,.02-.65-.49-1.14-1.25-1.14-3.12-.01-6.25,0-9.37,0h0c-3.04,0-6.09,0-9.13,0-.61,0-1.11,.16-1.31,.79-.25,.79,.27,1.44,1.18,1.46,1.83,.02,3.65,.01,5.48,.01,4.16,0,8.31,0,12.47,0,.24,0,.48,0,.71,0Z"/><path class="cls-1" d="M20.44,33.35c-2.25,0-4.5,0-6.75,0-.82,0-1.26,.4-1.28,1.09-.02,.7,.38,1.1,1.2,1.19,.08,0,.16,.01,.24,.01,4.34,0,8.68,0,13.02,0,.99,0,1.46-.42,1.44-1.19-.02-.74-.48-1.09-1.44-1.09-2.14,0-4.29,0-6.43,0Z"/></g></g></svg>